<svg xmlns="http://www.w3.org/2000/svg" width="1400" height="980" viewBox="0 0 1400 980" role="img" aria-labelledby="title desc"><title id="title">lidar_slam_2d trajectory gallery</title><desc id="desc">Overlay panels showing aligned lidar_slam_2d trajectories against reference trajectories across backpack and IILABS datasets.</desc><defs><linearGradient id="bg2" x1="0" x2="1" y1="0" y2="1"><stop offset="0%" stop-color="#ffffff"/><stop offset="100%" stop-color="#eef2ff"/></linearGradient></defs><rect width="100%" height="100%" fill="url(#bg2)"/><text x="60" y="78" font-size="42" font-family="Inter,Arial,sans-serif" font-weight="700" fill="#0f172a">Trajectory overlays</text><text x="60" y="116" font-size="20" font-family="Inter,Arial,sans-serif" fill="#475569">lidar_slam_2d trajectories are aligned in SE(2) to the reference path for visual comparison.</text><rect x="60" y="130" width="14" height="14" rx="7" fill="#2563eb"/><text x="84" y="142" font-size="16" font-family="Inter,Arial,sans-serif" fill="#0f172a">lidar_slam_2d</text><rect x="150" y="130" width="14" height="14" rx="7" fill="#94a3b8"/><text x="174" y="142" font-size="16" font-family="Inter,Arial,sans-serif" fill="#0f172a">reference</text><rect x="60" y="170" rx="28" ry="28" width="610" height="350" fill="#ffffff" stroke="#cbd5e1" stroke-width="2"/><text x="84" y="208" font-size="24" font-family="Inter,Arial,sans-serif" font-weight="700" fill="#0f172a">Backpack 300 scans</text><text x="646" y="208" text-anchor="end" font-size="16" font-family="Inter,Arial,sans-serif" fill="#475569">Cartographer pseudo GT | align RMSE 0.081 m</text><polyline points="509.7,238.1 509.1,238.0 508.8,238.1 508.6,238.3 508.4,238.4 507.7,238.7 507.3,238.8 506.8,239.0 505.7,239.4 504.7,239.6 503.5,239.7 502.1,240.0 500.1,240.6 500.1,240.6 500.1,240.6 500.1,240.6 500.1,240.6 500.1,240.6 500.1,240.6 500.1,240.6 500.1,240.6 500.1,240.6 500.1,240.6 499.1,241.1 497.5,242.0 494.1,244.3 492.0,246.0 489.9,247.7 488.4,249.0 486.9,250.0 485.3,251.1 482.7,252.9 480.8,254.5 480.0,255.2 480.0,255.2 480.0,255.2 480.0,255.2 480.0,255.2 480.0,255.2 480.0,255.2 480.0,255.2 480.0,255.2 480.0,255.2 480.0,255.2 480.0,255.5 479.1,256.6 475.9,260.8 474.1,263.4 472.6,265.7 469.7,269.6 468.6,271.8 467.8,273.9 465.3,277.6 463.7,279.5 462.9,280.7 462.8,280.8 462.8,280.8 462.8,280.8 462.8,280.8 462.8,280.8 462.3,281.5 460.7,283.3 458.7,285.0 455.3,287.6 451.9,290.1 449.6,292.2 447.3,294.5 445.5,296.2 443.0,297.9 440.4,299.9 438.3,301.9 437.6,302.6 437.6,302.6 437.6,302.6 437.6,302.6 437.6,302.6 437.6,302.6 437.8,302.5 436.0,304.4 434.1,306.6 430.6,310.0 427.2,313.2 423.5,316.8 422.5,317.6 420.1,320.1 418.4,322.3 416.3,324.6 413.5,326.8 413.1,327.1 413.1,327.1 413.1,327.1 413.1,327.1 413.1,327.1 413.1,327.1 413.1,327.1 413.1,327.1 413.1,327.1 410.5,329.1 408.2,331.0 406.4,332.3 405.3,333.1 402.4,334.8 400.0,336.5 394.2,341.4 391.8,343.4 390.5,344.0 388.8,344.9 386.6,346.6 386.1,347.0 386.1,347.0 386.1,347.0 386.1,347.0 386.1,347.0 386.1,347.0 386.1,347.0 386.1,347.0 386.1,347.0 386.1,347.0 386.1,347.0 386.1,347.0 384.8,348.1 381.8,350.9 379.6,353.3 378.7,354.2 376.7,356.4 375.5,357.7 374.3,359.1 372.9,360.8 369.9,364.0 368.7,365.5 367.6,367.1 366.2,369.0 365.4,370.0 363.8,371.8 362.4,373.3 360.6,375.0 360.6,375.0 360.6,375.0 360.6,375.0 360.6,375.0 360.6,375.0 360.6,375.0 360.6,375.0 360.6,375.0 360.6,375.0 360.6,375.0 360.6,375.0 360.6,375.0 360.6,375.0 360.6,375.0 359.6,375.9 358.5,376.7 356.8,378.0 355.0,379.6 355.0,379.6 352.3,381.7 350.8,382.8 349.3,384.1 348.9,384.4 346.0,386.7 344.7,387.8 340.9,390.9 338.4,392.8 336.3,393.9 333.8,395.5 333.7,395.7 333.7,395.7 333.7,395.7 333.7,395.7 333.7,395.7 333.7,395.7 333.7,395.7 333.7,395.7 333.4,396.0 329.6,399.5 327.3,401.5 324.2,404.0 322.3,405.6 318.8,408.6 316.6,410.2 312.7,412.9 310.9,414.7 309.2,416.8 309.1,416.9 308.0,417.9 306.6,418.9 305.1,419.8 304.1,420.4 304.1,420.4 304.1,420.4 304.1,420.4 304.1,420.4 304.1,420.4 304.1,420.4 303.7,420.6 302.6,421.1 300.2,422.4 300.2,422.4 297.5,424.1 296.7,424.5 293.5,426.3 291.4,427.4 288.5,429.0 286.9,430.1 283.2,432.6 279.8,434.6 277.5,435.8 277.4,435.9 275.8,436.8 274.4,437.7 274.4,437.7 274.4,437.7 274.4,437.7 274.4,437.7 274.4,437.7 274.4,437.7 274.4,437.7 274.4,437.7 274.4,437.7 274.4,437.7 274.4,437.7 274.4,437.7 273.7,438.1 271.6,439.6 269.6,440.9 268.5,441.7 267.2,442.7 264.7,444.6 263.5,445.6 260.8,447.8 259.3,449.0 257.5,450.2 253.2,452.9 251.7,454.4 249.8,456.4 248.1,458.0 247.4,458.5 245.5,459.6 245.5,459.6 245.5,459.6 245.5,459.6 245.5,459.6 245.5,459.6 245.5,459.6 245.0,459.9 244.9,460.0 240.4,462.3 236.5,464.2 233.9,465.4 231.4,466.5 230.1,467.1 227.2,468.1 225.6,468.7 221.7,470.0" fill="none" stroke="#94a3b8" stroke-width="5" stroke-linecap="round" stroke-linejoin="round"/><polyline points="506.9,241.4 506.9,241.4 506.9,241.4 506.9,241.4 506.9,241.4 506.9,241.4 506.9,241.4 506.9,241.4 506.9,241.4 506.9,241.4 506.9,241.4 506.9,241.4 506.9,241.4 506.9,241.4 506.9,241.4 506.9,241.4 506.9,241.4 506.9,241.4 506.9,241.4 506.9,241.4 506.9,241.4 506.9,241.4 506.9,241.4 506.9,241.4 506.9,241.4 506.9,241.4 506.9,241.4 506.9,241.4 506.9,241.4 506.9,241.4 506.9,241.4 506.9,241.4 506.9,241.4 506.9,241.4 506.9,241.4 506.9,241.4 506.9,241.4 506.9,241.4 506.9,241.4 506.9,241.4 506.9,241.4 506.9,241.4 506.9,241.4 506.9,241.4 506.9,241.4 506.9,241.4 506.9,241.4 506.9,241.4 506.9,241.4 506.9,241.4 507.1,243.8 506.9,241.4 506.9,241.4 506.9,241.4 504.2,239.3 504.2,239.3 499.9,244.5 499.7,242.1 499.9,244.5 499.7,242.1 499.7,242.1 499.7,242.1 497.3,242.3 497.3,242.3 497.3,242.3 492.5,242.8 492.5,242.8 492.5,242.8 490.1,243.0 492.5,242.8 490.5,247.8 490.5,247.8 485.9,250.6 485.9,250.6 486.2,253.0 486.2,253.0 483.8,253.3 483.8,253.3 483.5,250.9 483.3,248.5 480.9,248.7 479.0,253.7 481.1,251.1 478.7,251.3 476.8,256.3 476.8,256.3 476.8,256.3 474.6,259.0 474.6,259.0 472.2,259.2 472.2,259.2 472.2,259.2 472.4,261.6 472.7,264.0 470.2,264.2 468.1,266.8 468.1,266.8 466.1,271.9 466.1,271.9 466.1,271.9 466.1,271.9 466.3,274.3 466.3,274.3 463.9,274.5 461.8,277.1 461.8,277.1 462.0,279.5 459.8,282.1 459.8,282.1 459.8,282.1 457.6,284.8 455.5,287.4 453.3,290.0 453.3,290.0 453.3,290.0 453.3,290.0 450.9,290.2 450.9,290.2 448.9,295.3 446.5,295.5 444.4,298.1 444.4,298.1 444.4,298.1 442.2,300.7 442.2,300.7 442.2,300.7 439.8,301.0 437.8,306.0 437.8,306.0 437.8,306.0 435.4,306.2 435.4,306.2 431.1,311.5 428.7,311.7 428.7,311.7 426.5,314.3 426.7,316.7 426.7,316.7 426.3,311.9 426.7,316.7 424.1,314.5 426.7,316.7 424.3,316.9 420.0,322.2 420.0,322.2 420.0,322.2 417.8,324.8 417.8,324.8 413.4,330.1 413.4,330.1 413.4,330.1 411.2,332.7 411.2,332.7 408.8,332.9 408.8,332.9 404.3,335.8 404.3,335.8 404.0,333.4 399.7,338.6 399.7,338.6 399.7,338.6 399.7,338.6 399.7,338.6 399.9,341.0 397.5,341.2 397.5,341.2 393.2,346.5 390.8,346.7 390.5,344.3 390.8,346.7 390.8,346.7 386.2,349.5 386.2,349.5 386.2,349.5 386.2,349.5 381.8,354.8 381.8,354.8 381.8,354.8 377.3,357.6 377.3,357.6 377.5,360.0 372.9,362.9 367.6,358.5 367.6,358.5 367.6,358.5 367.6,358.5 367.6,358.5 367.9,360.9 368.3,365.7 368.3,365.7 366.4,370.8 364.4,375.8 364.4,375.8 364.4,375.8 359.2,371.4 362.0,376.0 362.0,376.0 357.4,378.9 357.4,378.9 357.7,381.3 352.9,381.7 352.6,379.3 352.9,381.7 352.9,381.7 350.5,381.9 348.5,387.0 348.1,382.2 345.9,384.8 343.7,387.4 341.3,387.6 341.5,390.0 341.5,390.0 336.7,390.5 336.9,392.9 336.9,392.9 332.4,395.7 332.4,395.7 332.4,395.7 332.4,395.7 328.0,401.0 325.8,403.6 328.0,401.0 326.1,406.0 326.1,406.0 321.5,408.9 319.1,409.1 316.9,411.7 316.9,411.7 316.9,411.7 314.7,414.3 314.7,414.3 314.7,414.3 312.6,417.0 310.4,419.6 308.0,419.8 308.0,419.8 308.0,419.8 308.0,419.8 303.6,425.1 303.6,425.1 301.2,425.3 298.8,425.5 298.8,425.5 298.8,425.5 296.2,423.3 294.0,425.9 291.6,426.2 289.0,424.0 289.2,426.4 289.2,426.4 287.0,429.0 284.6,429.2 284.6,429.2 282.2,429.5 282.5,431.9 280.1,432.1 277.7,432.3 275.5,434.9 275.5,434.9 273.1,435.2 270.9,437.8 270.9,437.8 268.7,440.4 269.0,442.8 266.6,443.0 264.4,445.7 264.4,445.7 264.2,443.3 264.2,443.3 262.0,445.9 262.0,445.9 259.8,448.5 257.4,448.7 257.4,448.7 255.2,451.4 252.8,451.6 253.0,454.0 250.9,456.6 250.9,456.6 250.9,456.6 248.5,456.8 246.3,459.5 243.9,459.7 241.3,457.5 243.9,459.7 241.5,459.9 241.5,459.9 239.1,460.1 236.7,460.4 234.5,463.0 232.1,463.2 232.1,463.2 232.1,463.2 229.7,463.4 229.9,465.8 227.5,466.1 225.1,466.3 222.7,466.5 222.7,466.5 220.3,466.7" fill="none" stroke="#2563eb" stroke-width="4" stroke-linecap="round" stroke-linejoin="round"/><text x="84" y="502" font-size="14" font-family="Inter,Arial,sans-serif" fill="#64748b">matched span: 258 points | footprint: 6.00 m</text><rect x="710" y="170" rx="28" ry="28" width="610" height="350" fill="#ffffff" stroke="#cbd5e1" stroke-width="2"/><text x="734" y="208" font-size="24" font-family="Inter,Arial,sans-serif" font-weight="700" fill="#0f172a">Backpack 2k scans</text><text x="1296" y="208" text-anchor="end" font-size="16" font-family="Inter,Arial,sans-serif" fill="#475569">Cartographer pseudo GT | align RMSE 0.475 m</text><polyline points="1129.4,421.4 1129.3,421.4 1129.2,421.5 1129.0,421.5 1128.7,421.6 1128.3,421.7 1127.8,421.8 1127.8,421.8 1127.8,421.8 1127.8,421.8 1127.8,421.8 1127.8,421.8 1127.3,422.1 1126.3,422.8 1125.7,423.3 1125.2,423.7 1124.4,424.3 1124.3,424.4 1124.3,424.4 1124.3,424.4 1124.3,424.4 1124.3,424.4 1124.3,424.4 1123.5,425.4 1123.0,426.2 1122.3,427.3 1121.7,428.3 1121.3,428.8 1121.3,428.8 1121.3,428.8 1121.2,429.0 1120.5,429.6 1119.4,430.5 1118.6,431.2 1117.8,431.8 1117.0,432.5 1116.9,432.6 1116.9,432.6 1116.9,432.6 1116.6,433.0 1115.6,433.9 1114.4,435.1 1113.8,435.7 1113.2,436.5 1112.6,436.9 1112.6,436.9 1112.6,436.9 1112.6,436.9 1112.6,436.9 1111.7,437.6 1111.2,437.9 1110.3,438.5 1108.9,439.8 1108.4,440.0 1107.9,440.4 1107.9,440.4 1107.9,440.4 1107.9,440.4 1107.9,440.4 1107.9,440.4 1107.7,440.6 1106.8,441.5 1106.3,442.0 1105.8,442.5 1105.1,443.3 1104.7,443.9 1104.3,444.4 1103.8,444.9 1103.4,445.3 1103.4,445.3 1103.4,445.3 1103.4,445.3 1103.4,445.3 1103.4,445.3 1103.4,445.3 1103.3,445.4 1102.8,445.8 1102.5,446.0 1101.7,446.6 1101.4,446.9 1100.7,447.5 1099.6,448.4 1098.8,448.8 1098.8,448.8 1098.8,448.8 1098.8,448.8 1098.8,448.8 1098.0,449.5 1097.1,450.3 1096.2,451.1 1095.1,451.9 1094.5,452.5 1094.3,452.7 1093.8,453.1 1093.6,453.2 1093.6,453.2 1093.6,453.2 1093.5,453.2 1092.9,453.5 1092.5,453.8 1091.8,454.2 1090.9,454.7 1090.0,455.3 1089.0,455.8 1088.7,456.0 1088.4,456.2 1088.4,456.2 1088.4,456.2 1088.4,456.2 1088.4,456.2 1088.4,456.2 1088.3,456.2 1087.6,456.7 1087.2,457.0 1086.5,457.6 1085.8,458.1 1084.7,458.8 1084.1,459.4 1083.7,459.8 1083.4,460.0 1083.4,460.0 1083.4,460.0 1083.3,460.0 1082.5,460.5 1081.4,461.0 1080.7,461.3 1079.9,461.6 1078.9,461.9 1078.3,462.1 1078.3,462.1 1078.3,462.1 1078.3,462.1 1077.8,462.4 1076.8,463.0 1076.1,463.4 1074.8,464.3 1074.0,464.7 1073.7,465.0 1073.4,465.3 1073.4,465.3 1073.4,465.3 1073.3,465.3 1072.8,465.6 1072.4,465.8 1071.1,466.3 1070.3,466.7 1069.4,467.0 1068.1,467.3 1067.7,467.5 1067.6,467.5 1067.6,467.5 1067.6,467.5 1067.3,467.7 1066.9,467.9 1066.1,468.2 1065.3,468.5 1064.4,469.0 1062.8,469.4 1062.3,469.6 1062.0,469.7 1062.0,469.7 1062.0,469.7 1062.0,469.7 1061.6,469.7 1060.6,469.8 1059.3,469.8 1058.0,469.9 1057.1,469.8 1056.2,469.7 1056.0,469.6 1056.0,469.6 1056.0,469.6 1056.0,469.6 1056.0,469.6 1055.4,469.7 1054.4,469.8 1053.9,469.8 1053.1,469.9 1052.1,469.9 1050.8,470.0 1050.3,470.0 1049.9,470.0 1049.7,470.0 1049.6,469.9 1049.6,469.9 1049.2,469.9 1047.9,469.8 1046.7,469.4 1045.4,469.2 1043.9,468.6 1043.4,468.4 1043.4,468.4 1043.4,468.4 1042.7,468.3 1041.4,468.1 1040.1,467.6 1038.6,467.3 1037.3,467.0 1036.8,466.8 1036.8,466.8 1036.8,466.8 1036.8,466.8 1036.0,466.5 1034.6,466.1 1033.8,465.8 1032.7,465.3 1031.2,464.4 1030.7,464.2 1030.7,464.2 1030.7,464.2 1030.7,464.2 1030.0,463.9 1028.8,463.6 1027.7,463.2 1026.7,462.5 1026.2,462.3 1025.1,462.0 1024.5,461.5 1024.4,461.4 1024.4,461.4 1024.4,461.4 1023.7,460.9 1022.5,460.3 1021.3,459.2 1020.1,458.0 1019.4,457.5 1019.0,457.3 1019.0,457.3 1019.0,457.3 1019.0,457.3 1018.6,457.0 1017.9,456.4 1016.6,455.3 1015.2,454.5 1014.4,453.8 1013.4,452.7 1013.4,452.7 1013.4,452.7 1013.4,452.7 1013.4,452.7 1013.0,452.4 1012.2,451.9 1010.5,450.1 1009.8,449.4 1008.6,449.0 1008.3,448.8 1008.3,448.8 1008.3,448.8 1008.3,448.8 1007.0,448.0 1004.9,446.5 1004.1,446.1 1003.1,445.5 1002.2,444.8 1002.2,444.8 1001.9,444.6 1000.6,443.7 999.0,442.1 998.3,441.9 997.6,441.6 996.6,440.8 996.6,440.8 996.6,440.8 996.6,440.8 996.6,440.8 995.5,439.9 994.2,439.0 993.3,438.4 992.2,437.4 990.9,436.3 990.9,436.3 990.9,436.3 990.9,436.3 990.9,436.3 989.9,435.2 988.8,433.9 987.6,433.0 986.6,432.3 986.1,432.0 986.1,432.0 985.5,431.6 984.0,430.4 982.9,429.5 982.1,428.8 981.0,428.1 981.0,428.1 981.0,428.1 981.0,428.1 979.8,426.5 979.1,426.0 977.9,425.4 976.5,424.4 976.1,424.1 976.1,424.1 976.1,424.1 976.1,424.1 975.5,423.6 974.4,422.9 974.0,422.7 973.1,422.0 972.0,421.1 971.2,420.5 971.2,420.5 971.2,420.5 971.2,420.5 971.2,420.5 969.9,418.9 969.3,418.4 968.6,418.0 968.3,417.8 967.7,417.1 967.0,416.6 966.3,416.1 966.3,416.1 966.3,416.1 966.3,416.1 966.3,416.1 966.3,416.1 966.2,416.2 965.0,415.3 964.1,414.7 963.3,413.8 962.6,413.2 961.7,412.5 961.7,412.5 961.7,412.3 960.5,410.7 959.9,409.8 959.3,409.5 958.1,408.5 957.4,407.8 957.4,407.8 957.4,407.8 957.4,407.8 956.3,406.9 955.3,406.1 954.7,405.4 953.2,403.8 952.9,403.3 952.9,403.3 952.9,403.3 952.8,403.2 951.8,401.7 951.5,401.1 950.6,400.5 949.2,398.7 949.0,398.4 949.0,398.4 948.4,397.6 947.7,397.1 947.2,396.6 946.6,395.6 945.8,394.5 945.2,393.7 945.2,393.7 945.2,393.7 945.2,393.7 944.1,391.8 943.9,391.1 943.3,390.7 942.7,390.0 941.2,388.2 941.2,388.2 941.2,388.2 941.2,388.2 941.2,388.2 940.4,387.2 939.8,386.7 939.4,385.9 938.2,384.3 937.4,383.2 937.4,383.1 937.4,383.1 937.4,383.1 937.4,383.1 937.1,382.6 936.4,381.0 935.8,380.4 935.0,379.6 934.2,378.5 933.7,377.9 933.7,377.9 933.7,377.9 933.7,377.9 932.9,376.8 932.3,376.1 931.7,375.0 931.1,374.2 930.5,373.4 930.5,373.4 930.5,373.4 930.3,373.0 929.7,372.2 929.3,371.2 928.9,370.6 928.3,370.2 927.5,369.4 926.9,368.7 926.9,368.7 926.9,368.7 925.2,367.1 924.6,366.5 923.9,365.5 923.4,364.9 922.9,364.3 922.9,364.3 922.9,364.3 922.9,364.3 922.9,364.3 922.9,364.3 921.8,362.8 921.4,361.9 920.8,361.3 920.1,360.9 919.1,360.0 918.7,359.6 918.7,359.6 918.7,359.6 918.7,359.6 918.7,359.6 918.6,359.6 917.9,359.1 916.9,358.5 916.2,358.1 915.4,357.4 914.5,356.8 913.7,356.3 913.7,356.3 913.7,356.3 913.7,356.3 913.5,356.1 912.3,355.2 911.6,354.4 910.9,354.1 910.0,353.8 909.0,353.1 908.9,353.1 908.9,353.1 908.9,353.1 908.9,353.1 908.4,352.8 907.3,352.3 907.0,352.1 906.4,351.9 905.8,351.3 905.1,350.8 904.8,350.5 904.8,350.5 904.8,350.5 904.6,350.2 903.9,349.5 903.6,349.0 903.2,348.4 902.9,347.9 902.7,347.6 902.5,347.3 902.0,346.7 902.0,346.6 902.0,346.6 902.0,346.6 901.7,346.2 901.4,345.7 901.1,345.1 901.0,344.9 900.8,344.4 900.6,343.9 900.4,343.4 900.2,343.0 900.1,342.6 900.0,342.0 900.0,341.7 900.0,341.7 900.0,341.7 900.0,341.7 900.0,341.5 899.9,340.9 899.9,340.3 899.8,339.7 899.8,339.1 899.9,338.3 899.9,338.0 899.8,337.7 899.7,337.4 899.7,337.2 899.6,336.8 899.6,336.8 899.6,336.8 899.6,336.8 899.6,336.8 899.6,336.8 899.6,336.2 899.4,335.7 899.3,335.3 899.2,335.0 899.2,334.6 899.2,334.1 899.1,333.7 899.1,333.4 899.1,333.3 899.1,333.0 899.2,332.6 899.2,332.5 899.2,332.5 899.2,332.5 899.2,332.5 899.2,332.5 899.2,332.4 899.3,332.1 899.4,331.8 899.6,331.6 899.7,331.5 900.0,331.3 900.3,331.1 900.5,331.1 900.8,331.0 901.2,331.0 901.6,330.9 901.7,330.9 902.0,330.8 902.0,330.8 902.0,330.8 902.2,330.8 902.4,330.8 902.7,330.8 902.9,330.7 903.2,330.6 904.0,330.5 904.3,330.6 904.7,330.7 905.3,330.6 906.1,330.5 906.3,330.5 906.3,330.5 906.3,330.5 906.3,330.5 906.6,330.7 907.2,331.2 907.6,331.2 908.1,331.0 908.5,331.1 908.7,331.3 909.0,331.7 909.5,332.2 910.1,332.5 910.4,332.8 910.4,332.8 910.4,332.8 910.4,332.8 910.9,333.5 911.2,334.3 911.6,335.0 912.4,335.9 912.7,336.5 913.2,337.2 913.4,337.6 913.4,337.6 913.4,337.6 913.4,337.6 913.4,337.6 913.6,337.8 914.0,338.7 914.7,339.6 915.1,340.2 915.3,340.9 915.6,341.9 916.0,342.6 916.0,342.6 916.0,342.6 916.0,342.6 916.0,342.6 916.1,342.7 916.7,344.1 916.8,344.8 916.8,345.7 917.0,345.9 917.5,346.3 918.0,347.2 918.2,347.9 918.2,347.9 918.2,347.9 918.2,347.9 918.5,348.3 918.8,349.0 919.4,349.9 920.0,350.4 920.5,351.1 920.9,351.6 921.1,352.3 921.5,352.8 921.6,352.8 921.6,352.8 921.9,353.3 922.3,353.9 923.0,354.8 923.4,355.4 923.9,356.0 924.8,356.7 925.9,357.4 925.9,357.4 925.9,357.4 925.9,357.4 926.4,357.7 927.2,358.1 928.3,358.5 928.9,358.7 930.2,359.6 931.0,360.0 931.2,360.1 931.2,360.1 931.2,360.1 931.2,360.1 931.2,360.1 932.2,360.6 932.7,361.0 933.7,361.9 934.6,362.4 935.3,362.7 936.2,363.3 936.2,363.3 936.2,363.3 936.2,363.3 936.6,363.6 937.4,364.1 938.5,364.7 939.5,365.3 940.1,365.9 941.0,366.7 941.3,366.9 941.3,366.9 941.3,366.9 941.3,366.9 941.5,367.1 942.5,368.0 943.0,368.7 943.4,369.1 943.6,369.2 944.3,369.6 945.3,370.3 946.0,370.6 946.0,370.6 946.0,370.6 946.0,370.6 946.8,371.0 947.4,371.2 948.4,371.5 949.0,371.7 949.4,371.8 949.7,371.9 950.0,372.0 950.5,372.2 950.9,372.3 951.2,372.4 951.6,372.5 951.6,372.5 951.6,372.5 951.6,372.5 951.6,372.5 951.6,372.5 951.6,372.5 951.9,372.6 952.3,372.7 952.7,372.8 953.2,372.9 953.8,372.9 953.9,373.0 954.1,373.0 954.4,373.0 954.7,373.1 954.9,373.1 955.2,373.1 955.5,373.2 955.7,373.2 956.3,373.2 956.5,373.1 957.0,373.0 957.7,372.8 957.8,372.8 957.8,372.8 957.8,372.8 957.8,372.8 957.8,372.8 957.8,372.8 957.8,372.8 958.3,372.5 958.6,372.4 958.9,372.2 959.4,372.0 959.8,371.7 960.2,371.5 960.5,371.3 961.3,371.0 961.6,370.9 962.1,370.8 962.8,370.5 963.4,370.2 963.4,370.2 963.4,370.2 963.4,370.2 963.4,370.2 964.4,369.5 965.2,369.0 965.4,368.9 965.9,368.6 966.7,368.0 967.3,367.5 967.7,366.9 968.0,366.4 968.1,366.3 968.1,366.3 968.3,366.0 969.5,364.5 969.9,363.7 970.4,362.9 971.2,362.0 971.8,361.1 971.8,361.1 971.8,361.1 971.8,361.1 971.8,361.1 972.6,359.9 973.2,358.9 973.8,358.2 974.4,356.6 974.7,355.8 974.8,355.4 974.8,355.4 974.8,355.4 974.8,355.4 975.4,353.8 975.6,352.7 976.1,351.3 976.7,350.3 977.0,349.7 977.0,349.7 977.0,349.7 977.5,348.6 978.1,347.4 978.4,346.8 978.9,345.2 979.3,344.1 979.4,343.6 979.4,343.6 979.4,343.6 979.4,343.6 979.5,343.0 979.8,341.7 980.0,340.9 980.4,339.7 981.0,338.7 981.4,337.8 981.6,337.4 981.6,337.4 981.6,337.4 981.6,337.4 981.6,337.4 981.6,337.4 982.0,336.5 982.8,335.6 983.0,335.1 983.3,333.9 983.6,333.3 984.2,332.2 984.5,331.5 984.5,331.5 984.5,331.5 984.5,331.5 984.8,330.7 985.0,329.9 985.4,329.0 986.2,327.7 986.6,327.1 987.3,325.9 987.5,325.5 987.5,325.5 987.5,325.5 987.5,325.5 988.4,324.6 989.1,323.5 989.4,322.5 990.0,321.7 990.8,320.6 991.3,319.7 991.3,319.7 991.3,319.7 991.3,319.7 991.3,319.7 991.3,319.7 991.7,319.0 992.2,318.1 992.8,317.4 993.6,316.2 994.2,314.9 994.7,314.1 994.7,314.1 994.7,314.1 994.7,314.1 994.7,314.1 994.7,314.1 995.1,313.8 996.0,312.8 996.5,311.6 996.8,310.7 997.4,309.6 998.6,307.8 998.7,307.5 998.7,307.5 998.7,307.5 998.7,307.5 998.7,307.5 998.9,307.0 1000.0,305.8 1000.8,304.7 1001.3,303.6 1002.6,302.0 1002.9,301.8 1002.9,301.8 1002.9,301.8 1002.9,301.8 1002.9,301.8 1003.3,301.2 1004.0,299.7 1005.2,298.1 1006.2,296.5 1006.5,295.9 1006.5,295.9 1006.5,295.9 1006.5,295.9 1006.5,295.9 1006.8,295.6 1007.9,294.4 1009.5,292.4 1011.0,290.9 1011.2,290.7 1011.2,290.7 1011.2,290.7 1011.9,289.8 1012.1,289.5 1012.8,288.5 1013.7,286.9 1013.9,286.5 1013.9,286.5 1013.9,286.5 1013.9,286.5 1014.0,286.3 1015.4,284.8 1016.6,283.3 1018.0,281.7 1018.2,281.4 1018.2,281.4 1018.2,281.4 1018.2,281.4 1018.5,281.0 1019.4,279.6 1020.2,278.3 1021.0,277.3 1021.2,277.0 1021.2,277.0 1021.2,277.0 1021.2,277.0 1021.6,276.3 1022.2,275.8 1023.0,275.3 1023.3,275.0 1023.3,275.0 1023.3,275.0 1023.3,275.0 1023.5,274.9 1023.4,274.6 1023.5,274.2 1023.6,274.1 1023.6,274.1 1023.6,274.1 1023.6,274.1 1023.6,274.1 1023.6,274.1 1023.4,273.7 1023.5,273.1 1023.9,272.5 1024.2,271.7 1024.7,271.0 1024.7,271.0 1024.7,271.0 1024.9,270.3 1024.9,268.7 1025.0,267.4 1025.0,266.0 1025.1,265.3 1025.1,265.0 1025.1,265.0 1025.1,265.0 1025.1,265.0 1025.1,265.0 1025.2,264.3 1025.2,262.7 1025.1,261.4 1024.9,260.3 1024.8,259.7 1025.0,259.3 1025.0,259.3 1025.1,258.9 1025.1,258.0 1024.9,257.1 1024.5,256.1 1024.2,255.3 1024.0,254.4 1024.1,253.9 1024.2,253.6 1024.2,253.3 1024.2,253.3 1024.2,253.3 1024.2,252.9 1024.0,251.7 1024.1,250.7 1024.4,249.7 1024.3,248.2 1024.4,247.5 1024.5,247.3 1024.5,247.3 1024.5,247.3 1024.5,247.2 1024.6,246.3 1024.4,245.2 1024.2,244.4 1024.2,243.0 1024.4,241.5 1024.4,241.3 1024.4,241.3 1024.4,241.3 1024.4,241.3 1024.4,240.9 1024.3,240.1 1024.2,239.7 1024.5,238.5 1024.6,238.0" fill="none" stroke="#94a3b8" stroke-width="5" stroke-linecap="round" stroke-linejoin="round"/><polyline points="1133.7,426.8 1133.7,426.8 1133.7,426.8 1133.7,426.8 1133.7,426.8 1133.7,426.8 1133.7,426.8 1133.7,426.8 1133.7,426.8 1133.7,426.8 1133.7,426.8 1133.7,426.8 1133.7,426.8 1133.7,426.8 1133.7,426.8 1133.7,426.8 1133.7,426.8 1133.7,426.8 1133.7,426.8 1133.7,426.8 1133.7,426.8 1133.7,426.8 1133.7,426.8 1133.7,426.8 1133.7,426.8 1133.7,427.2 1133.7,426.8 1133.3,426.4 1132.5,427.2 1132.5,427.2 1132.5,426.8 1132.0,426.8 1132.0,426.8 1131.2,426.7 1130.8,426.7 1130.8,427.6 1129.9,428.0 1129.9,428.4 1129.5,428.4 1129.5,428.0 1129.1,427.5 1129.1,428.0 1128.2,428.8 1128.2,428.8 1127.8,429.2 1127.4,429.2 1127.4,429.6 1126.9,430.0 1126.5,430.4 1126.1,431.2 1126.1,431.2 1126.0,431.7 1125.2,432.1 1125.2,432.5 1124.8,432.9 1124.3,433.3 1123.5,434.1 1123.5,434.1 1123.1,434.1 1122.6,434.9 1121.8,435.3 1121.8,435.3 1121.3,435.8 1120.9,435.7 1120.5,436.6 1120.1,436.6 1119.2,437.4 1118.8,437.4 1118.3,438.2 1118.4,437.4 1117.9,437.8 1117.9,438.2 1117.1,439.0 1116.6,439.4 1115.8,440.3 1115.8,440.3 1115.3,440.7 1114.9,440.7 1114.1,441.1 1113.2,441.5 1113.2,441.5 1113.2,441.5 1112.8,441.9 1111.9,442.7 1111.5,442.3 1111.5,442.7 1110.7,443.1 1110.7,443.1 1109.8,443.9 1109.0,444.3 1108.9,444.7 1107.3,444.3 1107.3,444.3 1107.3,444.3 1107.2,445.5 1106.8,446.4 1106.4,447.2 1105.5,446.3 1105.9,447.2 1105.1,447.6 1104.2,448.0 1104.2,448.0 1103.8,448.0 1103.4,448.0 1102.5,448.8 1102.1,449.2 1101.3,449.2 1101.3,449.6 1100.4,450.0 1100.4,450.0 1099.1,451.2 1099.1,451.6 1098.3,452.0 1097.4,452.4 1097.4,452.4 1097.0,452.9 1096.6,453.3 1095.7,453.7 1095.7,453.7 1094.9,454.5 1094.4,454.5 1094.0,454.5 1093.6,454.0 1092.8,454.4 1092.3,454.4 1091.9,454.8 1091.5,454.8 1091.1,455.2 1090.2,455.2 1089.8,455.6 1088.9,456.0 1088.5,456.4 1088.1,456.9 1087.6,457.3 1087.7,456.8 1087.2,457.3 1086.4,457.7 1085.9,458.1 1085.5,458.5 1085.1,458.9 1084.7,458.9 1083.8,459.3 1083.8,459.3 1083.4,459.3 1082.6,459.2 1081.7,459.6 1081.7,459.6 1081.3,460.1 1080.4,460.0 1080.0,460.0 1079.6,460.0 1079.2,460.0 1078.3,460.4 1078.3,460.4 1077.9,460.8 1077.1,460.8 1076.6,461.2 1076.6,461.6 1076.2,461.6 1075.8,462.0 1074.9,462.4 1074.5,462.8 1073.6,462.8 1073.2,463.2 1072.4,463.2 1072.4,463.2 1071.5,463.2 1071.1,462.8 1069.8,463.6 1070.3,463.6 1069.8,463.6 1068.2,464.4 1068.6,464.0 1068.6,464.0 1067.3,464.4 1066.9,464.8 1066.5,464.3 1065.2,464.7 1065.6,465.6 1064.4,465.1 1064.3,465.6 1063.1,465.5 1063.1,465.5 1063.1,465.9 1061.8,465.9 1061.8,465.9 1061.0,465.9 1060.1,465.5 1060.1,465.9 1059.7,465.9 1058.9,465.4 1058.0,465.4 1057.2,465.4 1057.6,465.4 1056.8,465.0 1055.9,465.4 1054.7,464.9 1054.7,464.9 1054.7,464.9 1053.0,464.9 1053.4,464.9 1052.2,464.9 1050.9,464.8 1050.9,464.8 1050.5,464.8 1050.1,464.8 1049.7,464.8 1048.4,464.8 1047.1,464.3 1046.7,463.9 1046.7,463.9 1045.9,464.7 1045.9,463.9 1045.0,464.3 1043.8,464.2 1043.8,464.2 1043.4,464.2 1042.5,463.8 1041.7,463.8 1040.9,462.9 1040.4,463.3 1039.2,462.9 1038.8,462.9 1038.8,462.9 1038.3,462.9 1037.1,462.8 1036.7,462.0 1036.3,462.4 1035.8,462.4 1035.4,462.0 1034.2,460.7 1034.2,460.7 1033.8,460.7 1032.9,460.2 1032.5,460.2 1031.7,460.2 1031.7,460.2 1030.9,459.3 1030.0,459.3 1029.6,458.5 1028.8,458.4 1028.8,458.4 1027.5,457.6 1027.1,457.6 1026.7,457.6 1026.7,457.6 1025.9,457.1 1025.0,456.7 1024.6,456.7 1023.8,456.2 1023.8,456.2 1023.0,455.4 1022.6,455.4 1022.1,454.5 1021.7,453.7 1021.3,453.2 1020.5,452.4 1020.5,452.4 1019.7,452.4 1019.7,451.9 1018.4,451.5 1017.6,451.0 1016.7,451.9 1016.7,451.9 1016.3,451.4 1016.3,451.4 1015.9,451.4 1014.7,450.1 1013.9,449.3 1013.5,448.8 1013.5,448.8 1013.5,448.8 1013.0,448.4 1012.6,448.0 1011.4,447.1 1011.0,446.3 1010.6,445.8 1009.8,445.0 1009.7,445.4 1009.3,444.6 1008.9,444.5 1008.5,444.1 1007.7,443.7 1007.3,443.2 1006.0,442.0 1005.6,441.9 1005.2,441.9 1004.4,441.5 1004.0,441.5 1003.5,441.1 1002.7,439.8 1002.3,439.3 1001.9,438.9 1001.5,438.5 1001.1,438.9 1000.2,438.5 999.8,438.0 999.8,438.0 999.0,437.6 998.2,436.7 997.4,436.3 997.4,436.3 996.5,436.3 996.1,435.4 996.1,435.4 995.3,434.6 994.5,434.1 994.5,434.1 993.2,433.7 992.4,433.2 992.4,433.2 992.4,432.8 991.6,432.0 991.2,431.5 991.2,431.5 990.7,431.1 989.9,430.2 989.9,430.2 989.5,429.8 989.5,429.8 988.7,429.0 987.9,428.9 987.0,428.5 987.0,427.7 986.2,426.8 986.2,426.8 985.8,426.8 985.4,426.8 985.0,426.3 984.1,425.5 983.7,425.1 983.3,424.2 983.3,425.0 982.5,423.3 982.5,423.3 982.1,422.9 981.7,422.5 981.3,423.3 980.9,422.5 980.4,422.0 979.6,421.2 979.6,421.2 978.8,420.3 978.4,420.3 978.0,420.3 978.8,420.7 978.4,420.3 978.0,420.3 976.7,419.9 977.5,420.3 975.9,419.4 974.2,418.5 974.2,418.5 973.8,417.7 973.8,417.3 973.0,417.2 973.0,417.2 972.6,417.2 972.2,416.8 971.8,416.0 971.8,416.0 970.9,415.1 970.5,414.7 969.7,414.7 969.7,413.8 968.9,413.8 968.0,413.4 967.6,412.5 966.8,411.6 966.8,411.6 966.4,412.5 966.4,411.6 965.1,411.6 964.7,411.2 964.3,410.7 964.3,409.9 963.9,409.1 963.5,409.9 962.7,409.0 963.5,409.0 963.1,408.2 962.3,406.9 961.9,406.9 961.5,406.5 961.1,406.1 961.1,406.1 960.2,405.2 959.8,405.2 959.4,404.8 959.0,403.9 958.6,404.7 958.1,404.7 957.3,403.4 957.3,403.9 956.9,403.0 956.5,403.0 955.7,402.1 955.3,401.7 954.5,400.9 954.0,400.4 954.0,400.4 954.1,400.0 953.2,399.1 952.4,398.7 952.4,398.3 952.4,398.3 952.4,398.3 952.0,397.0 951.2,396.6 949.9,396.6 950.3,397.0 950.4,396.1 949.5,394.9 949.5,395.3 948.7,395.3 947.9,394.4 947.9,394.4 947.5,394.0 946.7,392.3 946.2,392.7 945.8,391.8 945.8,391.4 945.8,391.8 945.4,391.4 945.4,391.4 945.0,390.6 945.0,390.1 944.6,390.1 944.2,389.7 943.0,388.4 943.4,388.0 942.6,387.1 941.3,386.3 941.3,386.3 940.5,385.4 940.5,385.4 940.1,385.4 939.7,385.0 939.3,384.1 939.3,384.5 939.3,384.1 938.1,382.8 938.5,382.4 938.1,382.0 937.7,381.6 937.3,381.1 936.8,380.7 936.9,379.9 936.4,379.9 936.9,379.9 936.4,379.9 935.6,379.0 935.6,378.6 934.4,378.5 934.0,377.7 934.0,378.1 933.6,377.3 933.6,377.3 933.6,377.3 933.6,377.3 932.7,376.4 931.9,375.5 931.9,375.5 931.9,375.5 931.1,374.3 931.1,374.7 930.7,373.8 930.3,373.0 929.9,373.4 929.9,373.0 929.1,371.7 928.7,370.9 928.7,370.4 928.3,370.4 927.8,370.4 927.0,370.0 926.6,370.0 926.6,370.0 926.2,370.0 926.2,369.1 925.8,368.7 925.4,368.7 924.5,369.1 924.1,368.6 925.0,367.8 923.7,366.1 922.5,364.8 922.1,364.0 922.1,363.6 921.7,363.5 920.9,362.7 920.5,361.8 921.3,362.3 920.5,361.8 920.5,361.8 919.2,361.0 919.2,360.6 919.2,360.6 918.0,359.7 918.0,360.1 918.0,360.1 917.2,359.2 916.7,359.2 915.9,358.8 914.7,357.9 915.1,358.4 914.3,357.1 913.8,357.1 913.4,356.6 913.0,356.6 912.2,356.2 911.8,355.3 911.4,354.9 911.4,354.9 911.0,354.9 910.5,354.9 909.7,354.5 909.3,354.0 908.5,354.0 908.0,353.6 908.0,353.6 907.6,353.6 907.2,353.6 906.4,353.1 906.0,353.1 906.0,352.7 905.1,352.7 905.1,352.2 905.1,352.2 904.3,351.4 904.3,351.4 903.9,351.4 903.9,351.0 903.1,350.1 902.7,349.7 902.7,350.1 902.7,350.1 902.3,349.7 901.8,349.2 901.4,348.8 901.4,348.4 901.0,347.5 900.6,347.1 900.2,346.7 899.8,346.2 899.4,345.8 899.4,345.0 899.4,345.0 899.0,345.0 899.0,344.1 899.0,343.3 899.9,344.1 900.7,344.6 899.5,342.9 899.1,342.4 899.5,342.5 899.5,341.2 899.1,341.2 898.3,340.3 898.3,340.3 897.9,339.1 897.9,339.1 897.5,338.6 897.5,338.6 897.5,337.8 897.5,338.2 897.5,336.9 896.7,336.5 896.7,336.5 896.3,335.2 896.3,335.2 896.3,334.8 896.3,334.4 897.1,334.4 897.1,334.4 897.6,333.6 897.2,333.6 897.6,333.2 898.4,333.6 898.8,333.6 898.8,333.2 899.7,332.8 899.7,332.8 900.5,333.2 900.5,332.8 900.5,332.8 901.0,332.8 901.4,332.8 901.8,332.4 902.6,332.9 902.6,332.9 903.5,332.5 904.3,332.9 904.7,332.9 904.3,332.5 905.6,332.9 905.6,332.9 906.4,333.4 907.2,333.4 907.7,333.4 908.1,334.2 908.9,334.3 908.9,335.1 909.3,335.5 909.7,335.5 909.7,335.5 910.1,336.0 910.1,336.8 910.5,336.8 910.9,337.2 910.9,337.7 911.3,338.1 911.7,338.9 912.2,339.0 912.2,339.4 912.2,339.4 912.6,339.8 913.4,340.2 913.8,340.7 914.2,341.1 914.6,341.5 914.2,342.8 914.6,343.2 914.6,343.2 915.0,344.5 915.0,344.5 915.8,344.9 915.4,345.8 915.8,345.8 915.8,346.6 916.2,346.6 916.6,347.9 916.6,349.1 917.4,349.2 917.4,349.2 917.4,350.4 918.2,350.4 918.6,350.9 918.6,351.7 919.4,351.3 919.8,352.2 919.8,352.6 919.8,353.8 920.7,353.4 920.6,353.9 921.0,354.7 921.5,354.7 921.9,355.6 921.0,356.4 922.7,356.8 923.5,357.7 923.5,357.3 923.9,357.7 924.3,358.1 925.2,358.6 925.6,359.4 926.4,358.6 926.0,359.4 926.8,359.0 928.1,358.7 928.5,359.9 928.5,359.9 929.3,360.8 929.3,359.9 929.3,361.6 930.1,361.6 930.2,360.4 930.2,360.0 931.0,360.4 931.0,360.4 931.8,361.3 933.1,362.5 933.9,363.0 934.3,363.4 934.7,364.3 936.0,363.9 936.4,364.3 936.8,363.5 936.4,364.3 938.1,364.3 938.5,364.4 938.0,365.2 938.0,365.2 939.3,365.6 939.3,365.6 940.5,366.9 940.5,366.5 940.1,366.5 940.5,366.9 941.3,367.8 942.2,368.2 942.6,369.5 943.0,370.3 943.8,369.9 943.8,369.9 944.7,370.0 945.5,370.4 944.7,369.5 945.1,370.0 946.3,370.4 946.3,370.0 946.8,370.0 947.6,370.9 947.6,370.4 947.6,370.9 948.4,370.9 948.8,371.3 948.0,369.6 948.4,370.5 948.4,370.5 949.7,371.8 949.7,370.9 950.9,371.4 951.8,371.4 951.8,371.4 952.2,371.4 953.4,372.3 953.0,371.4 954.3,371.9 954.3,371.4 955.9,372.3 955.1,371.0 956.8,371.9 956.8,370.2 956.8,370.2 957.3,370.2 957.7,370.3 958.1,369.8 958.9,369.9 959.4,369.5 960.2,368.6 961.1,369.5 961.1,369.1 961.5,368.2 962.4,367.4 962.4,367.0 962.8,367.4 962.4,366.6 963.2,365.8 964.1,364.9 964.5,364.5 964.5,364.5 965.0,364.1 965.0,364.1 965.8,362.9 965.8,362.5 966.7,362.1 967.1,361.6 967.5,361.2 967.1,360.8 968.4,360.4 968.4,359.2 968.9,359.2 969.3,358.8 969.7,357.9 969.7,357.9 970.2,357.5 970.6,356.7 971.0,356.3 970.6,355.8 971.5,355.0 970.6,355.0 971.1,354.6 971.5,353.3 971.5,352.9 971.5,352.9 972.0,352.1 972.4,351.3 972.8,350.8 972.9,349.6 973.3,349.2 973.7,350.0 973.7,349.2 974.1,348.4 974.6,347.9 974.6,347.9 975.0,347.1 975.0,346.3 975.0,345.9 975.5,345.4 975.9,344.6 976.7,344.6 976.3,344.2 976.3,343.8 976.4,342.5 976.4,342.5 976.4,341.7 976.8,340.9 977.3,340.4 977.7,339.6 978.1,339.2 978.6,338.4 978.6,338.0 979.0,337.5 979.4,336.7 979.9,336.3 979.9,336.3 980.3,335.5 980.3,335.5 980.7,335.1 980.8,334.2 981.2,334.2 981.6,333.4 981.6,332.6 981.6,332.6 982.1,331.7 982.5,330.9 982.5,330.5 983.0,329.6 983.4,329.2 983.8,328.4 983.8,328.4 984.3,328.0 984.7,327.6 985.1,326.8 986.0,325.9 986.4,325.5 986.9,325.1 986.9,324.7 986.9,324.7 986.9,324.3 987.3,323.4 987.7,323.0 988.2,321.8 988.6,321.4 989.1,321.0 989.1,320.5 989.9,320.1 990.8,318.9 990.8,318.9 990.8,318.5 991.2,318.1 991.7,317.7 991.7,317.2 991.7,316.8 992.5,316.0 993.0,315.6 993.4,314.8 993.4,313.9 993.8,313.5 994.7,312.7 994.7,312.3 995.1,311.9 995.6,311.0 995.6,310.6 996.5,309.8 996.5,309.4 996.9,309.0 997.8,308.1 998.2,307.3 998.2,307.3 998.6,306.9 999.1,306.1 999.5,305.6 1000.3,304.8 999.9,304.8 1000.4,304.4 1001.6,303.2 1001.7,302.8 1001.7,302.3 1002.1,301.9 1002.5,301.1 1002.5,301.1 1003.4,299.9 1003.8,299.4 1004.3,298.6 1004.7,298.2 1005.6,297.4 1005.6,297.4 1006.0,297.0 1006.0,297.0 1006.4,296.6 1007.7,295.3 1007.7,294.9 1008.6,294.5 1009.0,294.1 1010.3,292.9 1009.9,292.9 1009.9,292.9 1010.3,292.4 1010.7,292.0 1010.7,291.6 1011.2,291.2 1011.2,290.8 1011.6,290.0 1012.1,289.1 1012.1,289.1 1012.9,288.3 1013.3,287.9 1013.3,287.9 1013.8,287.5 1014.2,287.1 1014.6,286.7 1015.1,286.3 1015.5,285.8 1015.5,285.8 1015.5,285.8 1015.5,285.8 1015.9,285.4 1016.4,284.6 1017.2,283.4 1017.7,283.0 1017.7,282.5 1018.1,282.1 1018.1,282.1 1018.1,282.1 1018.5,281.7 1018.5,281.7 1019.4,280.9 1019.8,280.5 1020.3,279.6 1021.1,278.8 1021.1,278.8 1021.5,278.8 1022.0,278.4 1021.5,278.8 1021.5,278.8 1022.0,278.8 1022.0,278.8 1022.0,278.8 1022.0,278.8 1022.4,278.4 1022.8,277.6 1023.7,276.8 1022.8,277.6 1022.8,277.6 1023.7,276.8 1024.1,276.4 1024.1,276.0 1024.5,275.5 1024.5,275.5 1024.9,276.4 1025.4,276.0 1025.8,275.2 1026.2,274.7 1026.2,274.7 1027.1,273.9 1028.0,273.1 1027.5,273.1 1028.0,272.7 1028.0,272.3 1028.4,271.9 1028.0,271.4 1028.4,271.0 1028.5,270.2 1028.9,269.3 1027.6,270.2 1028.5,268.9 1028.9,268.5 1028.9,267.7 1029.8,267.3 1029.8,266.8 1030.2,266.4 1030.2,265.6 1030.3,264.7 1030.3,263.9 1030.3,263.5 1030.3,263.9 1030.7,263.1 1030.7,263.1 1031.1,262.7 1030.7,261.8 1031.2,261.4 1031.2,261.0 1030.8,260.6 1029.5,260.1 1029.5,259.3 1029.5,259.3 1030.4,258.4 1030.0,257.6 1030.0,257.6 1030.9,256.8 1030.9,256.4 1030.9,255.9 1030.9,255.5 1030.9,254.7 1030.9,254.3 1031.4,253.4 1031.8,253.0 1032.2,252.6 1032.2,251.8 1032.2,251.3 1032.2,251.3 1032.3,250.9 1032.7,250.5 1032.7,250.1 1032.7,249.3 1032.7,248.8 1033.2,248.0 1033.2,247.6 1032.8,246.7 1032.8,246.3 1033.2,245.5 1033.6,245.1 1033.7,244.7 1033.7,243.8 1033.3,243.8 1034.1,243.0 1034.1,242.6 1034.1,242.1 1034.6,241.7" fill="none" stroke="#2563eb" stroke-width="4" stroke-linecap="round" stroke-linejoin="round"/><text x="734" y="502" font-size="14" font-family="Inter,Arial,sans-serif" fill="#64748b">matched span: 1953 points | footprint: 28.26 m</text><rect x="60" y="560" rx="28" ry="28" width="610" height="350" fill="#ffffff" stroke="#cbd5e1" stroke-width="2"/><text x="84" y="598" font-size="24" font-family="Inter,Arial,sans-serif" font-weight="700" fill="#0f172a">IILABS loop 2k</text><text x="646" y="598" text-anchor="end" font-size="16" font-family="Inter,Arial,sans-serif" fill="#475569">Ground truth | align RMSE 0.148 m</text><polyline points="337.9,857.8 337.9,857.8 337.9,857.8 337.9,857.8 337.9,857.8 337.9,857.8 337.9,857.8 337.9,857.8 337.9,857.8 337.9,857.8 337.9,857.8 337.9,857.8 337.9,857.8 337.9,857.8 337.9,857.8 338.1,857.7 340.0,857.7 341.9,857.6 343.8,857.7 345.7,857.8 347.6,857.8 349.4,857.8 351.3,857.7 353.2,857.6 355.1,857.4 356.9,857.2 358.8,856.9 360.6,856.5 362.4,856.0 364.2,855.5 366.0,854.8 367.7,854.0 369.3,853.1 370.9,852.0 372.3,850.8 373.6,849.4 374.8,847.9 375.9,846.4 376.8,844.8 377.7,843.1 378.4,841.4 379.0,839.6 379.5,837.8 379.8,836.0 380.1,834.1 380.3,832.0 380.6,828.8 380.9,825.7 381.2,822.6 381.5,819.5 381.8,816.3 382.2,813.3 382.5,810.2 382.8,807.0 383.1,803.9 383.3,800.8 383.6,797.7 384.0,794.6 384.4,791.4 384.8,788.3 385.0,785.2 385.3,782.1 385.5,779.0 385.8,775.9 386.1,772.8 386.4,769.7 386.8,766.5 387.1,763.4 387.4,760.3 387.7,757.2 388.1,754.1 388.4,751.0 388.7,747.9 389.1,744.7 389.4,741.6 389.6,738.5 389.9,735.4 390.1,732.3 390.4,729.1 390.7,726.0 391.0,722.9 391.2,719.8 391.4,717.8 391.4,716.0 391.1,714.1 390.7,712.3 390.1,710.5 389.4,708.8 388.4,707.1 387.4,705.6 386.3,704.1 385.2,702.7 383.9,701.3 382.7,699.9 381.5,698.5 380.4,697.1 379.3,695.6 378.3,694.1 377.5,692.4 376.8,690.7 376.4,688.9 376.1,687.0 376.0,685.2 376.1,683.3 376.3,681.4 376.5,679.5 376.7,677.6 376.9,675.8 377.0,673.9 377.2,672.0 377.4,670.1 377.6,668.3 377.8,666.4 378.0,664.5 378.2,662.6 378.3,660.7 378.4,658.9 378.6,657.0 378.8,655.1 379.0,653.3 379.2,651.4 379.4,649.5 379.6,647.6 379.8,645.8 379.9,643.9 379.6,642.1 378.9,640.3 377.9,638.7 376.7,637.3 375.3,636.1 373.8,635.0 372.1,634.1 370.5,633.2 368.7,632.4 367.0,631.7 365.2,631.1 363.4,630.5 361.6,630.1 359.8,629.7 357.9,629.3 356.1,629.0 354.2,628.7 352.4,628.5 350.5,628.3 348.6,628.2 346.8,628.1 344.9,628.1 344.1,846.1 346.0,846.1 347.9,846.2 349.8,846.2 351.7,846.1 353.5,846.1 355.4,845.9 357.3,845.7 359.2,845.5 361.0,845.3 362.9,845.0 364.7,844.6 366.5,844.2 368.3,843.6 370.1,843.0 371.8,842.3 373.5,841.5 375.1,840.5 376.5,839.4 377.9,838.1 379.0,836.6 379.8,834.9 380.2,833.1 380.5,830.2 380.8,827.1 381.1,824.0 381.4,820.9 381.7,817.8 382.0,814.6 382.3,811.5 382.6,808.4 382.9,805.3 383.2,802.2 383.5,799.1 383.8,796.0 384.3,792.8 384.6,789.7 384.9,786.6 385.2,783.5 385.4,780.4 385.7,777.3 386.0,774.2 386.3,771.0 386.6,767.9 386.9,764.8 387.3,761.7 387.6,758.6 387.9,755.4 388.2,752.3 388.5,749.2 388.9,746.1 389.2,743.0 389.5,739.9 389.8,736.7 390.0,733.6 390.3,730.5 390.5,727.4 390.9,724.3 391.2,721.2 391.4,718.6 391.4,716.7 391.2,714.9 390.9,713.0 390.4,711.2 389.7,709.5 388.9,707.8 387.8,706.2 386.8,704.7 385.6,703.3 384.4,701.9 383.2,700.5 382.0,699.2 380.9,697.7 379.7,696.3 378.7,694.8 377.8,693.1 377.1,691.4 376.6,689.7 376.2,687.8 376.0,686.0 376.0,684.1 376.2,682.2 376.4,680.3 376.6,678.5 376.8,676.6 377.0,674.7 377.1,672.9 377.3,671.0 377.5,669.1 377.7,667.2 377.9,665.4 378.1,663.5 378.2,661.6 378.4,659.8 378.5,657.9 378.8,656.0 379.0,654.2 379.2,652.3 379.4,650.4 379.6,648.6 379.8,646.7 380.0,644.8 379.8,642.9 379.3,641.2 378.4,639.5 377.3,638.0 376.0,636.7 374.5,635.5 372.9,634.5 371.3,633.6 369.6,632.8 367.9,632.0 366.1,631.4 364.3,630.8 362.5,630.3 360.7,629.9 358.9,629.5 357.0,629.2 355.1,628.9 353.3,628.6 351.4,628.4 349.5,628.3 347.7,628.1 345.8,628.1 343.9,628.1 345.2,846.1 347.1,846.2 349.0,846.2 350.9,846.2 352.7,846.1 354.6,846.0 356.5,845.8 358.3,845.6 360.2,845.4 362.0,845.1 363.9,844.8 365.7,844.4 367.5,843.9 369.3,843.3 371.1,842.6 372.8,841.9 374.4,841.0 375.9,839.9 377.3,838.7 378.5,837.3 379.5,835.7 380.1,833.9 380.3,831.7 380.6,828.6 380.9,825.4 381.2,822.3 381.5,819.2 381.9,816.1 382.2,812.9 382.5,809.8 382.8,806.7 383.1,803.6 383.3,800.5 383.6,797.4 384.1,794.2 384.5,791.1 384.7,788.0 385.0,784.9 385.3,781.8 385.5,778.7 385.8,775.5 386.1,772.4 386.4,769.3 386.8,766.2 387.1,763.1 387.4,760.0 387.8,756.9 388.1,753.8 388.4,750.6 388.8,747.5 389.1,744.4 389.4,741.3 389.7,738.2 389.9,735.0 390.1,731.9 390.4,728.8 390.7,725.7 391.0,722.6 391.3,719.5 391.4,717.7 391.4,715.8 391.1,713.9 390.6,712.1 390.1,710.3 389.3,708.6 388.4,707.0 387.3,705.5 386.2,704.0 385.0,702.6 383.8,701.2 382.6,699.8 381.4,698.5 380.2,697.0 379.2,695.6 378.2,694.0 377.4,692.3 376.8,690.5 376.3,688.8 376.1,686.9 376.0,685.0 376.1,683.1 376.3,681.2 376.5,679.4 376.7,677.5 376.9,675.6 377.0,673.7 377.2,671.9 377.4,670.0 377.6,668.1 377.8,666.2 378.0,664.4 378.2,662.5 378.3,660.6 378.5,658.7 378.7,656.9 378.9,655.0 379.1,653.2 379.2,651.3 379.4,649.4 379.7,647.6 379.9,645.7 379.9,643.8 379.6,642.0 378.9,640.3 377.8,638.7 376.6,637.3 375.2,636.1 373.7,635.0 372.1,634.0 370.4,633.2 368.7,632.4 366.9,631.7 365.2,631.0 363.4,630.5 361.6,630.0 359.7,629.7 357.9,629.3 356.0,629.0 354.1,628.7 352.3,628.5 350.4,628.3 348.5,628.2 346.6,628.1 344.8,628.1 344.3,846.1 346.2,846.2 348.1,846.2 350.0,846.2 351.9,846.1 353.7,846.1 355.6,845.9 357.5,845.7 359.3,845.5 361.2,845.3 363.0,844.9 364.9,844.6 366.7,844.2 368.5,843.6 370.2,843.0 372.0,842.3 373.6,841.4 375.2,840.5 376.7,839.3 378.0,838.0 379.1,836.5 379.9,834.8 380.2,832.9 380.5,830.0 380.8,826.9 381.1,823.7 381.4,820.6 381.7,817.5 382.0,814.4 382.3,811.3 382.6,808.1 382.9,805.0 383.2,801.9 383.5,798.8 383.9,795.7 384.3,792.5 384.6,789.5 384.9,786.3 385.2,783.2 385.4,780.1 385.7,777.0 386.0,773.9 386.3,770.8 386.6,767.7 387.0,764.5 387.3,761.4 387.6,758.3 387.9,755.2 388.3,752.1 388.6,749.0 388.9,745.9 389.3,742.8 389.5,739.6 389.8,736.5 390.0,733.4 390.3,730.3 390.6,727.2 390.9,724.1 391.2,720.9 391.4,718.5 391.4,716.7 391.2,714.8 390.9,713.0 390.4,711.1 389.7,709.4 388.8,707.7 387.8,706.2 386.7,704.7 385.6,703.2 384.4,701.8 383.2,700.5 382.0,699.1 380.8,697.7 379.7,696.2 378.7,694.7 377.8,693.1 377.1,691.4 376.5,689.6 376.2,687.7 376.0,685.9 376.0,684.0 376.2,682.1 376.4,680.2 376.6,678.4 376.8,676.5 377.0,674.6 377.1,672.7 377.3,670.9 377.5,669.0 377.7,667.1 377.9,665.2 378.1,663.4 378.2,661.5 378.4,659.6 378.6,657.7 378.8,655.9 379.0,654.0 379.2,652.1 379.4,650.3 379.6,648.4 379.8,646.5 380.0,644.6 379.8,642.8 379.2,641.0 378.3,639.3 377.2,637.9 375.8,636.6 374.4,635.4 372.8,634.4 371.1,633.5 369.4,632.7 367.7,632.0 365.9,631.3 364.2,630.7 362.4,630.2 360.5,629.8 358.7,629.5 356.8,629.2 355.0,628.8 353.1,628.5 351.2,628.4 349.3,628.3 347.5,628.2 345.6,628.1 343.7,628.1 345.3,846.1 347.2,846.2 349.0,846.2 350.9,846.2 352.8,846.1 354.7,846.0 356.6,845.8 358.4,845.6 360.3,845.4 362.1,845.1 364.0,844.8 365.8,844.4 367.6,843.9 369.4,843.3 371.1,842.6 372.8,841.9 374.5,841.0 376.0,839.9 377.4,838.7 378.6,837.2 379.5,835.6 380.1,833.9 380.4,831.5 380.7,828.4 381.0,825.2 381.3,822.1 381.6,819.0 381.9,815.9 382.2,812.8 382.5,809.7 382.8,806.6 383.1,803.4 383.3,800.3 383.7,797.2 384.1,794.1 384.5,791.0 384.8,787.9 385.0,784.7 385.3,781.6 385.5,778.5 385.8,775.4 386.2,772.3 386.5,769.2 386.8,766.0 387.1,762.9 387.4,759.8 387.8,756.7 388.1,753.6 388.4,750.5 388.8,747.4 389.1,744.2 389.4,741.1 389.7,738.0 389.9,734.9 390.2,731.7 390.4,728.6 390.7,725.5 391.1,722.4 391.3,719.4 391.4,717.5 391.4,715.7 391.1,713.8 390.6,712.0 390.0,710.2 389.2,708.5 388.3,706.9 387.3,705.4 386.2,703.9 385.0,702.5 383.8,701.1 382.6,699.7 381.4,698.4 380.2,696.9 379.1,695.4 378.2,693.9 377.4,692.2 376.8,690.4 376.3,688.7 376.1,686.8 376.0,684.9 376.1,683.0 376.3,681.1 376.5,679.3 376.7,677.4 376.9,675.5 377.0,673.6 377.2,671.8 377.4,669.9 377.6,668.0 377.8,666.2 378.0,664.3 378.2,662.4 378.3,660.5 378.5,658.7 378.7,656.8 378.9,654.9 379.1,653.1 379.3,651.2 379.5,649.3 379.7,647.5 379.9,645.6 379.9,643.7 379.6,641.9 378.8,640.1 377.8,638.6 376.5,637.2 375.1,636.0 373.6,634.9 372.0,634.0 370.3,633.1 368.6,632.3 366.9,631.6 365.1,631.0 363.3,630.5 361.4,630.0 359.6,629.6 357.8,629.3 355.9,629.0 354.1,628.6 352.2,628.4 350.3,628.3 348.4,628.2 346.5,628.1 344.7,628.1 344.3,846.1 346.2,846.2 348.0,846.2 349.9,846.2 351.8,846.1 353.7,846.0 355.6,845.9 357.4,845.7 359.3,845.5 361.1,845.2 363.0,844.9 364.8,844.6 366.7,844.2 368.4,843.6 370.2,843.0 371.9,842.3 373.6,841.5 375.2,840.5 376.7,839.3 378.0,838.0 379.1,836.5 379.8,834.8 380.1,833.6 380.2,833.5 380.2,833.5 380.2,833.5 379.9,835.1 379.6,836.9 379.2,838.8 378.7,840.6 378.1,842.4 377.3,844.1 376.4,845.7 375.4,847.3 374.3,848.8 373.0,850.2 371.6,851.5 370.1,852.6 368.6,853.7 366.9,854.6 365.2,855.4 363.5,856.0 361.7,856.5 359.8,857.0 358.0,857.3 356.1,857.5 354.3,857.7 352.4,857.8 350.5,857.9 348.7,857.9 346.8,857.8 344.9,857.8 343.0,857.7 341.2,857.6 339.4,857.5 338.4,857.3 338.2,857.3 338.2,857.3 338.2,857.3 338.2,857.3 338.2,857.3" fill="none" stroke="#94a3b8" stroke-width="5" stroke-linecap="round" stroke-linejoin="round"/><polyline points="337.7,859.4 337.7,859.4 337.7,859.4 337.7,859.4 337.7,859.4 337.7,859.4 337.7,859.4 337.7,859.4 337.7,859.4 337.7,859.4 337.7,859.4 337.7,859.4 337.7,859.4 337.7,859.4 337.7,859.5 337.7,859.5 337.7,859.5 337.8,859.5 337.8,859.5 337.8,859.5 337.8,859.5 337.8,859.5 337.8,859.5 337.8,859.5 337.8,859.5 337.8,859.5 337.8,859.5 337.8,859.5 337.8,859.5 337.8,859.5 337.8,859.5 337.8,859.5 337.8,859.5 337.8,859.5 337.8,859.5 337.8,859.5 337.8,859.5 337.8,859.5 337.7,859.5 337.7,859.5 337.7,859.5 337.7,859.5 337.7,859.5 337.7,859.5 337.7,859.5 337.7,859.5 337.7,859.5 337.7,859.5 337.7,859.5 337.7,859.5 337.7,859.5 337.7,859.5 337.7,859.5 337.7,859.5 337.7,859.5 337.7,859.5 337.7,859.5 337.7,859.5 337.7,859.5 337.7,859.5 337.7,859.5 337.7,859.5 337.7,859.5 337.7,859.5 337.7,859.5 337.7,859.4 337.7,859.4 337.7,859.4 337.7,859.4 337.7,859.4 337.7,859.4 337.7,859.4 337.7,859.4 337.7,859.4 337.7,859.4 337.7,859.4 337.7,859.4 337.7,859.4 337.7,859.4 337.7,859.4 337.7,859.4 337.7,859.4 337.7,859.4 337.7,859.4 337.7,859.4 337.7,859.4 337.7,859.4 337.7,859.4 337.7,859.4 337.7,859.4 337.7,859.4 337.7,859.4 337.7,859.4 337.7,859.4 337.7,859.4 337.7,859.4 337.7,859.4 337.7,859.4 337.7,859.4 337.7,859.4 337.7,859.4 337.7,859.4 337.7,859.4 337.7,859.4 337.7,859.4 337.7,859.4 337.7,859.4 337.7,859.4 337.7,859.4 337.7,859.4 337.7,859.4 337.7,859.4 337.7,859.4 337.7,859.4 337.7,859.4 337.7,859.4 337.7,859.4 337.7,859.4 337.7,859.4 337.7,859.4 337.7,859.4 337.7,859.4 337.7,859.4 337.7,859.4 337.7,859.4 337.7,859.4 337.7,859.4 337.7,859.4 337.7,859.4 337.7,859.4 337.7,859.4 337.7,859.4 337.7,859.4 337.7,859.4 337.7,859.4 337.7,859.4 337.7,859.4 337.7,859.4 337.7,859.4 337.7,859.4 337.7,859.4 337.7,859.4 337.7,859.4 337.7,859.4 337.7,859.4 337.7,859.4 337.7,859.4 337.7,859.4 337.7,859.4 337.7,859.4 337.9,859.5 337.9,859.5 337.9,859.5 337.9,859.5 337.9,859.5 337.9,859.5 337.9,859.5 337.9,859.5 337.9,859.5 337.9,859.5 337.9,859.5 337.9,859.5 337.9,859.5 338.0,858.9 338.0,858.9 338.0,858.9 338.0,858.9 338.2,858.8 338.3,858.8 338.6,858.9 338.7,858.9 339.0,858.9 339.1,859.0 339.4,859.0 339.6,859.1 339.5,859.7 339.7,859.7 339.9,859.7 340.1,859.6 340.2,859.7 340.4,859.6 340.6,859.6 340.8,859.4 340.9,859.6 341.1,859.6 341.3,859.6 341.5,859.5 341.6,859.5 341.4,859.8 341.6,859.9 341.7,859.8 342.0,859.9 342.2,859.9 342.3,859.9 342.3,859.9 342.7,859.8 342.9,859.9 343.1,860.0 343.2,859.9 343.4,859.9 343.6,859.8 343.8,859.9 344.0,859.9 344.2,859.9 344.4,859.9 344.6,859.9 344.7,859.9 344.9,859.9 345.1,859.9 345.3,860.0 345.3,859.9 345.7,859.9 345.9,859.9 346.1,859.9 346.3,859.9 346.5,859.9 346.6,859.9 346.8,859.9 347.0,859.9 347.2,859.9 347.4,859.9 347.5,859.9 347.7,859.9 347.8,859.9 348.0,859.9 348.2,859.9 348.4,859.9 348.5,859.9 348.7,859.9 349.0,859.8 349.2,859.8 349.3,859.8 349.5,859.8 349.7,859.8 349.8,859.8 350.0,859.7 350.2,859.7 350.4,859.7 350.6,859.7 350.7,859.7 350.9,859.7 351.1,859.6 351.3,859.7 351.5,859.7 351.6,859.6 351.8,859.6 352.0,859.6 352.2,859.6 352.4,859.5 352.6,859.5 352.7,859.5 352.9,859.5 353.1,859.5 353.2,859.4 353.4,859.4 353.6,859.4 353.7,859.4 353.9,859.4 354.2,859.3 354.4,859.4 354.5,859.4 354.7,859.3 354.9,859.3 355.0,859.3 355.2,859.2 355.4,859.2 355.6,859.2 355.7,859.2 355.9,859.1 356.1,859.1 356.3,859.0 356.5,859.0 356.7,859.0 356.9,859.0 357.0,859.0 357.2,858.9 357.4,858.9 357.6,858.9 357.7,858.9 357.8,858.9 358.0,858.8 358.2,858.6 358.5,858.7 358.7,858.7 358.8,858.7 359.0,858.5 359.1,858.6 359.3,858.6 359.5,858.5 359.7,858.3 359.8,858.3 360.0,858.4 360.1,858.2 360.3,858.3 360.5,858.1 360.7,858.0 360.9,857.9 361.1,857.9 361.3,857.8 361.4,857.8 361.6,857.8 361.8,857.9 362.0,857.9 362.0,857.7 362.4,857.7 362.5,857.5 362.6,857.6 362.8,857.5 363.0,857.3 363.2,857.4 363.3,857.4 363.5,857.2 363.7,857.2 363.8,857.2 364.0,857.0 364.2,856.9 364.1,856.8 364.4,856.9 364.7,856.8 364.7,856.6 364.9,856.5 365.2,856.4 365.2,856.4 365.4,856.3 365.5,856.3 365.8,856.3 365.9,856.1 366.1,856.0 366.2,856.1 366.4,856.0 366.5,855.8 366.7,855.6 366.9,855.8 367.0,855.6 367.2,855.4 367.3,855.5 367.5,855.2 367.6,855.2 367.8,855.0 368.0,855.1 368.2,855.0 368.3,854.9 368.4,854.8 368.6,854.6 368.7,854.4 368.9,854.3 369.0,854.4 369.2,854.3 369.3,854.2 369.5,854.0 369.7,854.0 369.8,853.9 369.9,853.8 370.0,853.7 370.1,853.6 370.3,853.3 370.5,853.1 370.6,853.0 370.8,852.9 371.0,852.8 371.1,852.7 371.1,852.7 371.3,852.5 371.4,852.6 371.6,852.5 371.7,852.4 371.9,852.2 372.0,852.1 372.2,851.7 372.3,851.6 372.4,851.5 372.5,851.3 372.6,851.2 372.7,851.1 372.9,851.2 373.0,851.0 373.1,850.8 373.2,850.7 373.3,850.5 373.3,850.2 373.4,850.1 373.6,850.0 373.7,849.9 373.8,849.7 373.9,849.5 374.0,849.3 374.1,849.1 374.3,848.9 374.4,848.8 374.5,848.7 374.6,848.4 374.7,848.4 374.8,848.2 374.9,848.1 374.9,847.9 375.0,847.7 375.1,847.6 375.2,847.7 375.4,847.3 375.4,847.1 375.5,846.9 375.5,846.8 375.6,846.6 375.9,846.6 376.0,846.4 375.9,846.2 376.0,846.0 376.1,846.0 376.1,845.9 376.3,845.7 376.5,845.5 376.5,845.4 376.5,845.2 376.5,845.0 376.6,844.6 376.7,844.5 376.9,844.5 376.8,844.3 377.0,844.1 377.0,843.8 377.2,843.7 377.3,843.6 377.1,843.5 377.2,843.3 377.3,843.2 377.5,843.0 377.6,842.8 377.4,842.6 377.6,842.5 377.5,842.2 377.6,841.9 377.7,841.8 377.8,841.7 377.8,841.5 378.0,841.4 377.9,841.2 378.0,840.8 378.1,840.9 378.2,840.8 378.3,840.4 378.3,840.2 378.4,840.0 378.4,839.9 378.4,839.8 378.3,839.5 378.4,839.2 378.4,839.0 378.5,838.9 378.6,838.7 378.7,838.7 378.8,838.4 378.6,838.1 378.8,838.1 378.9,838.1 378.7,837.9 378.8,837.7 378.9,837.4 379.0,837.2 379.0,837.1 379.0,836.8 379.0,836.7 379.0,836.4 379.0,836.4 379.1,836.0 379.1,835.9 379.0,835.8 379.3,835.7 379.2,835.3 379.2,835.2 379.4,835.2 379.2,834.9 379.2,834.7 379.3,834.5 379.4,834.2 379.3,834.2 379.4,833.9 379.5,833.7 379.4,833.6 379.5,833.3 379.5,833.3 379.5,833.0 379.7,832.7 379.6,832.4 379.5,831.8 379.7,831.7 379.7,831.3 379.6,831.2 379.9,830.8 379.7,830.2 379.9,830.5 379.8,830.0 379.8,829.2 380.0,829.4 379.9,828.9 380.0,828.6 380.1,828.6 379.9,828.0 380.2,827.8 380.2,827.4 380.2,827.0 380.0,826.5 380.0,826.4 380.1,825.9 380.3,825.5 380.5,825.6 380.4,825.5 380.5,825.0 380.3,824.8 380.7,824.4 380.7,824.1 380.8,823.8 380.8,823.5 380.8,823.3 380.8,822.7 380.9,822.5 380.6,822.2 380.7,821.7 380.8,821.4 380.7,821.3 381.0,821.0 380.9,820.8 380.9,820.4 380.9,820.2 381.2,819.7 381.1,819.6 381.1,819.2 381.1,818.9 381.4,818.6 381.3,818.4 381.3,817.8 381.2,817.6 381.2,817.3 381.2,816.9 381.3,816.5 381.4,816.4 381.5,816.1 381.4,815.7 381.6,815.6 381.5,815.2 381.7,814.9 381.8,814.6 381.7,814.5 381.8,814.1 381.8,813.5 381.7,813.4 381.8,813.1 382.0,812.9 381.8,812.4 381.9,812.1 382.0,811.7 382.2,811.3 382.0,811.3 382.0,810.9 382.1,810.6 382.3,810.4 382.1,809.9 382.1,809.7 382.3,809.4 382.2,809.1 382.4,808.6 382.4,808.4 382.4,808.2 382.2,807.9 382.5,807.5 382.5,807.2 382.5,807.0 382.5,806.6 382.5,806.2 382.6,806.1 382.7,805.7 382.7,805.5 382.7,804.9 382.7,804.6 382.8,804.4 382.8,804.1 382.9,803.8 382.7,803.6 382.8,803.2 383.0,802.8 383.1,802.5 383.0,802.2 383.2,801.9 383.0,801.4 383.1,801.5 383.2,801.3 383.3,800.7 383.3,800.5 383.3,800.2 383.1,800.4 383.4,799.9 383.3,799.4 383.4,799.0 383.5,798.9 383.6,798.3 383.4,797.7 383.6,797.5 383.5,797.4 383.8,797.1 383.6,797.0 383.6,796.2 383.5,796.0 383.8,795.7 383.7,795.3 383.8,795.2 383.7,795.0 383.9,794.7 383.9,794.2 384.1,793.9 384.0,793.6 384.1,793.3 384.0,792.5 384.1,792.4 384.2,792.3 384.2,792.4 384.5,792.1 384.5,791.4 384.4,791.0 384.3,791.1 384.5,790.5 384.4,790.5 384.4,789.7 384.5,789.8 384.5,789.7 384.8,789.3 384.5,788.5 384.8,788.4 384.7,787.9 384.7,787.8 384.7,787.4 384.7,787.2 384.8,786.8 384.8,786.6 385.0,786.4 385.0,786.2 384.9,786.0 385.0,785.4 385.0,785.1 385.0,785.2 385.1,784.6 385.3,784.4 385.2,783.9 385.2,783.7 385.1,783.2 385.2,782.9 385.2,782.7 385.1,782.5 385.1,782.2 385.2,781.7 385.2,781.7 385.3,781.4 385.4,780.7 385.6,780.7 385.5,780.6 385.7,780.2 385.6,779.9 385.5,779.3 385.8,779.0 385.6,778.9 385.9,778.3 385.9,778.6 385.9,778.5 385.8,777.7 385.8,777.5 385.8,777.0 386.1,776.8 386.1,776.5 386.1,776.4 386.2,776.0 386.2,775.7 386.2,775.4 386.3,775.3 386.4,774.8 386.2,774.4 386.4,773.9 386.3,773.8 386.5,773.8 386.4,773.2 386.3,772.8 386.4,772.6 386.4,772.5 386.6,771.9 386.6,772.1 386.7,771.2 386.7,770.8 386.7,770.7 386.8,770.3 386.8,770.0 386.9,769.6 387.0,769.5 387.0,769.1 387.0,769.1 387.1,768.5 387.1,768.5 387.1,767.9 387.1,767.6 387.1,767.3 387.1,767.1 387.2,766.6 387.3,766.4 387.4,766.2 387.5,766.2 387.4,765.9 387.4,765.4 387.3,765.1 387.4,764.6 387.4,764.6 387.4,764.0 387.4,764.0 387.4,763.6 387.5,763.2 387.5,763.1 387.6,762.7 387.7,762.3 387.7,761.9 387.8,761.8 387.9,761.5 387.7,761.3 387.7,760.8 387.8,760.5 387.9,760.2 387.9,759.9 387.9,760.0 388.0,759.2 388.0,758.9 388.0,758.6 388.1,758.3 388.1,758.1 388.1,757.8 388.1,757.5 388.1,757.4 388.2,757.0 388.2,756.7 388.3,756.5 388.3,756.0 388.4,755.8 388.5,755.4 388.5,755.2 388.6,754.8 388.7,754.5 388.4,754.2 388.6,753.8 388.7,753.4 388.6,753.1 388.8,752.7 388.8,752.3 388.8,752.0 388.8,752.0 388.8,751.6 388.8,751.2 388.9,750.8 388.9,750.8 389.2,750.3 388.8,750.2 389.1,749.7 389.1,749.5 389.1,749.1 389.1,748.9 389.1,748.6 389.2,748.2 389.2,748.0 389.3,747.6 389.4,747.2 389.5,747.1 389.2,746.7 389.2,746.4 389.3,746.1 389.3,746.0 389.4,745.6 389.4,745.2 389.5,745.0 389.6,744.7 389.7,744.5 389.8,744.3 389.5,743.8 389.8,743.4 389.9,743.0 389.9,742.6 389.7,742.6 389.8,742.2 389.9,741.8 390.0,741.6 390.0,741.3 389.8,741.0 389.8,740.7 389.8,740.3 389.9,740.2 390.1,739.9 389.9,739.6 390.0,739.3 390.1,739.0 390.2,738.6 390.0,738.2 390.1,737.9 390.3,737.7 390.4,737.2 390.2,737.0 390.4,736.6 390.3,736.6 390.4,736.1 390.3,735.8 390.4,735.5 390.3,735.4 390.2,735.0 390.4,734.8 390.3,734.7 390.4,734.0 390.6,733.7 390.7,733.5 390.7,733.2 390.4,733.0 390.5,732.7 390.5,732.4 390.6,732.0 390.7,731.7 390.8,731.4 390.6,730.9 390.8,730.8 390.6,730.4 390.8,730.3 391.0,729.8 390.8,729.7 391.0,729.3 390.9,728.9 390.8,728.7 391.0,728.3 390.9,728.3 391.1,727.9 391.1,727.3 391.0,727.1 391.0,726.8 391.2,726.5 391.2,726.2 391.1,725.9 391.1,725.5 391.1,725.4 391.1,724.8 391.2,724.5 391.3,724.2 391.4,723.9 391.3,723.7 391.4,723.3 391.6,723.1 391.4,722.8 391.5,722.6 391.4,722.3 391.3,721.8 391.5,721.6 391.5,721.3 391.5,721.0 391.5,720.5 391.8,720.3 391.9,720.0 391.6,719.6 391.7,719.3 391.7,719.0 391.8,718.6 391.8,718.6 391.9,718.5 391.9,718.2 391.9,717.6 392.0,717.4 392.0,717.2 392.0,717.0 392.0,716.8 392.0,716.5 391.8,716.3 391.9,716.0 392.0,716.0 392.1,715.7 391.9,715.6 392.0,715.1 392.1,715.0 392.3,714.8 392.2,714.5 392.1,714.5 392.2,714.4 392.1,714.3 391.9,714.1 392.1,713.8 392.0,713.8 391.9,713.6 391.8,713.3 391.8,712.9 391.9,713.2 391.9,712.7 391.9,712.4 391.7,711.9 391.8,711.7 391.9,711.5 392.0,711.6 392.1,711.5 392.0,711.2 391.8,711.0 392.0,710.9 391.9,710.7 391.8,710.5 391.7,710.4 391.6,710.1 391.5,710.0 391.4,709.8 391.4,709.5 391.3,709.4 391.3,709.2 391.3,708.7 391.3,708.7 391.3,708.4 391.0,708.4 391.1,708.2 390.8,707.9 390.9,707.7 391.0,707.7 390.8,707.5 390.9,707.3 390.7,707.2 390.5,707.1 390.6,706.7 390.4,706.6 390.6,706.3 390.4,706.4 390.2,706.1 390.1,705.8 389.9,705.8 390.1,705.6 390.0,705.5 389.9,705.4 389.9,704.8 389.7,704.9 389.5,704.9 389.6,704.8 389.5,704.3 389.3,704.2 389.2,704.0 389.1,704.1 389.3,704.1 389.1,703.7 388.9,703.6 388.7,703.4 388.8,703.1 388.6,703.1 388.4,702.8 388.5,702.8 388.3,702.5 388.2,702.5 388.0,702.0 388.2,702.2 387.8,701.9 387.7,701.7 387.6,701.7 387.6,701.6 387.5,701.4 387.5,701.4 387.4,701.0 387.1,700.9 387.1,700.9 386.9,700.5 387.0,700.4 386.8,700.4 386.6,700.2 386.6,700.1 386.4,700.1 386.5,699.8 386.2,699.6 386.0,699.7 386.0,699.5 385.8,699.2 385.6,698.9 385.7,699.0 385.6,698.8 385.5,698.6 385.4,698.6 385.3,698.5 384.9,698.5 385.1,698.2 385.0,698.1 384.8,698.0 384.7,697.9 384.5,697.7 384.4,697.5 384.2,697.3 384.1,697.0 384.0,697.1 383.8,697.1 383.9,696.9 383.8,696.6 383.6,696.4 383.5,696.5 383.3,696.3 383.1,696.3 383.0,695.9 383.6,696.1 382.9,695.6 382.7,695.3 382.7,695.3 382.5,695.3 382.6,695.3 382.3,695.2 382.2,695.1 382.2,694.8 382.0,694.4 382.0,694.6 381.8,694.3" fill="none" stroke="#2563eb" stroke-width="4" stroke-linecap="round" stroke-linejoin="round"/><text x="84" y="892" font-size="14" font-family="Inter,Arial,sans-serif" fill="#64748b">matched span: 1982 points | footprint: 19.28 m</text><rect x="710" y="560" rx="28" ry="28" width="610" height="350" fill="#ffffff" stroke="#cbd5e1" stroke-width="2"/><text x="734" y="598" font-size="24" font-family="Inter,Arial,sans-serif" font-weight="700" fill="#0f172a">IILABS slippage full</text><text x="1296" y="598" text-anchor="end" font-size="16" font-family="Inter,Arial,sans-serif" fill="#475569">Ground truth | align RMSE 0.111 m</text><polyline points="1014.3,628.9 1014.3,628.9 1014.3,628.9 1014.3,628.9 1014.3,628.9 1014.3,628.9 1014.3,628.9 1014.3,628.9 1014.3,628.9 1014.3,628.9 1014.3,628.9 1014.3,628.9 1014.3,628.9 1014.3,628.9 1014.3,628.9 1014.3,628.9 1014.3,628.9 1014.3,628.9 1014.3,628.9 1014.3,628.9 1014.3,628.9 1014.3,628.9 1014.3,628.9 1014.3,628.9 1014.3,628.9 1014.3,628.9 1014.3,628.9 1014.3,628.9 1014.3,628.9 1014.3,628.9 1014.5,629.3 1014.6,629.9 1014.7,630.6 1014.7,631.3 1014.7,632.1 1014.7,632.9 1014.7,633.7 1014.6,634.5 1014.6,635.3 1014.7,636.1 1014.7,636.9 1014.7,637.7 1014.7,638.4 1014.7,639.2 1014.7,640.0 1014.7,640.8 1014.7,641.5 1014.7,642.4 1014.7,643.2 1014.7,644.0 1014.7,644.8 1014.7,645.6 1014.7,646.4 1014.7,647.1 1014.7,647.9 1014.7,648.7 1014.7,649.6 1014.8,650.3 1014.8,651.1 1014.8,651.9 1014.8,652.7 1014.8,653.5 1014.8,654.3 1014.8,655.1 1014.8,655.9 1014.8,656.7 1014.8,657.5 1014.8,658.3 1014.9,659.1 1014.9,659.9 1014.9,660.7 1014.9,661.5 1014.9,662.3 1014.9,663.1 1014.9,663.9 1014.9,664.7 1014.9,665.5 1014.9,666.3 1015.0,667.1 1015.0,667.9 1015.0,668.7 1015.0,669.5 1015.0,670.3 1015.0,671.1 1015.0,671.9 1015.0,672.7 1015.0,673.5 1015.1,674.3 1015.2,675.1 1015.2,675.9 1015.2,676.6 1015.2,677.4 1015.2,678.2 1015.2,679.1 1015.2,679.9 1015.2,680.6 1015.2,681.4 1015.2,682.2 1015.3,683.0 1015.3,683.8 1015.3,684.6 1015.3,685.4 1015.3,686.2 1015.3,687.0 1015.4,687.8 1015.4,688.6 1015.4,689.4 1015.5,690.2 1015.5,691.0 1015.5,691.8 1015.5,692.6 1015.5,693.4 1015.6,694.2 1015.6,695.0 1015.6,695.8 1015.7,696.5 1015.7,697.3 1015.7,698.1 1015.7,698.9 1015.7,699.8 1015.7,700.5 1015.7,701.3 1015.7,702.1 1015.7,702.9 1015.7,703.7 1015.8,704.5 1015.8,705.3 1015.8,706.1 1015.8,706.9 1015.8,707.7 1015.8,708.5 1015.8,709.3 1015.8,710.1 1015.8,710.9 1015.9,711.7 1015.9,712.5 1016.0,713.2 1016.0,714.0 1016.0,714.8 1016.0,715.6 1016.0,716.4 1016.0,717.2 1016.0,718.0 1016.0,718.8 1016.0,719.6 1016.0,720.4 1016.0,721.2 1016.0,722.0 1016.0,722.8 1016.0,723.6 1016.0,724.4 1016.0,725.3 1016.0,726.1 1016.1,726.9 1016.1,727.6 1016.1,728.4 1016.1,729.2 1016.2,730.0 1016.2,730.8 1016.2,731.7 1016.2,732.4 1016.3,733.2 1016.3,734.0 1016.3,734.8 1016.3,735.6 1016.3,736.4 1016.3,737.2 1016.4,738.0 1016.4,738.8 1016.4,739.6 1016.4,740.4 1016.4,741.2 1016.4,742.0 1016.4,742.8 1016.4,743.6 1016.4,744.4 1016.4,745.2 1016.5,746.0 1016.5,746.8 1016.5,747.6 1016.5,748.4 1016.5,749.2 1016.5,749.9 1016.5,750.8 1016.5,751.6 1016.6,752.4 1016.5,753.2 1016.5,754.0 1016.5,754.8 1016.5,755.6 1016.5,756.3 1016.6,757.1 1016.6,757.9 1016.6,758.7 1016.6,759.5 1016.6,760.3 1016.6,761.1 1016.7,761.9 1016.7,762.6 1016.7,763.4 1016.7,764.2 1016.7,765.0 1016.7,765.8 1016.7,766.6 1016.8,767.4 1016.8,768.2 1016.8,769.0 1016.8,769.8 1016.8,770.6 1016.8,771.4 1016.8,772.2 1016.8,773.0 1016.8,773.8 1016.8,774.6 1016.8,775.4 1016.9,776.1 1016.9,777.0 1016.9,777.7 1016.9,778.5 1016.9,779.3 1016.9,780.1 1016.9,780.9 1016.9,781.7 1016.9,782.5 1017.0,783.3 1017.0,784.1 1017.0,784.9 1017.0,785.7 1017.0,786.5 1017.1,787.3 1017.1,788.1 1017.1,788.9 1017.1,789.7 1017.1,790.5 1017.1,791.3 1017.1,792.1 1017.2,792.9 1017.2,793.7 1017.2,794.5 1017.2,795.3 1017.2,796.1 1017.2,797.0 1017.3,797.8 1017.3,798.6 1017.3,799.4 1017.3,800.2 1017.3,801.0 1017.3,801.8 1017.4,802.6 1017.4,803.4 1017.4,804.2 1017.4,805.0 1017.4,805.8 1017.4,806.6 1017.4,807.4 1017.5,808.2 1017.5,809.0 1017.5,809.8 1017.5,810.6 1017.5,811.4 1017.5,812.2 1017.5,813.0 1017.5,813.8 1017.5,814.6 1017.5,815.4 1017.5,816.2 1017.6,817.0 1017.6,817.8 1017.6,818.6 1017.6,819.4 1017.6,820.2 1017.7,821.0 1017.7,821.8 1017.7,822.5 1017.7,823.3 1017.7,824.2 1017.7,825.0 1017.7,825.8 1017.7,826.6 1017.7,827.4 1017.7,828.2 1017.7,829.0 1017.8,829.8 1017.8,830.6 1017.8,831.4 1017.8,832.2 1017.8,833.0 1017.8,833.8 1017.8,834.6 1017.8,835.4 1017.8,836.2 1017.8,837.0 1017.8,837.8 1017.8,838.5 1017.7,839.3 1017.7,840.2 1017.7,840.9 1017.8,841.7 1017.8,842.5 1017.8,843.3 1017.8,844.1 1017.8,844.9 1017.8,845.7 1017.8,846.5 1017.8,847.3 1017.8,848.1 1017.8,848.9 1017.8,849.7 1017.8,850.5 1017.8,851.3 1017.8,852.2 1017.9,852.9 1017.9,853.7 1017.9,854.5 1017.9,855.3 1017.9,856.1 1017.9,856.9 1017.9,857.7 1017.9,858.5 1017.9,859.3 1017.9,859.5 1017.9,859.5 1017.9,859.5 1017.9,859.5 1017.9,859.5 1017.9,859.5 1017.9,859.5 1017.9,859.5 1017.9,859.4 1018.0,858.8 1018.0,858.0 1018.0,857.2 1017.9,856.4 1017.9,855.5 1017.9,854.7 1017.8,853.9 1017.8,853.0 1017.8,852.2 1017.8,851.4 1017.8,850.6 1017.7,849.8 1017.7,849.0 1017.7,848.1 1017.7,847.3 1017.7,846.5 1017.7,845.7 1017.7,844.9 1017.7,844.0 1017.7,843.2 1017.7,842.4 1017.6,841.6 1017.6,840.8 1017.6,839.9 1017.6,839.1 1017.7,838.3 1017.7,837.5 1017.7,836.6 1017.7,835.8 1017.6,835.0 1017.6,834.2 1017.6,833.3 1017.6,832.5 1017.6,831.7 1017.6,830.8 1017.6,830.0 1017.6,829.2 1017.6,828.4 1017.6,827.6 1017.6,826.8 1017.6,826.0 1017.6,825.3 1017.6,824.6 1017.6,823.9 1017.6,823.0 1017.6,822.3 1017.6,821.5 1017.6,820.8 1017.6,820.0 1017.6,819.1 1017.5,818.3 1017.5,817.5 1017.5,816.6 1017.5,815.8 1017.5,814.9 1017.5,814.1 1017.5,813.3 1017.5,812.4 1017.5,811.6 1017.5,810.8 1017.4,810.0 1017.4,809.2 1017.4,808.4 1017.3,807.6 1017.4,806.7 1017.3,805.9 1017.3,805.2 1017.4,804.4 1017.4,803.6 1017.4,802.7 1017.4,801.9 1017.3,801.1 1017.3,800.3 1017.3,799.4 1017.3,798.6 1017.3,797.8 1017.3,797.0 1017.3,796.2 1017.2,795.3 1017.2,794.5 1017.2,793.7 1017.2,792.9 1017.1,792.1 1017.1,791.2 1017.1,790.4 1017.1,789.6 1017.1,788.8 1017.1,788.0 1017.0,787.1 1017.0,786.3 1017.0,785.5 1016.9,784.7 1016.9,783.8 1016.9,783.0 1016.9,782.2 1016.9,781.3 1016.9,780.5 1016.9,779.7 1016.9,778.8 1016.8,778.0 1016.8,777.2 1016.8,776.4 1016.8,775.5 1016.8,774.7 1016.7,773.9 1016.7,773.1 1016.7,772.3 1016.7,771.5 1016.7,770.7 1016.7,769.8 1016.7,769.0 1016.7,768.2 1016.6,767.4 1016.6,766.5 1016.6,765.7 1016.6,764.9 1016.6,764.1 1016.6,763.2 1016.6,762.4 1016.6,761.6 1016.6,760.8 1016.6,760.0 1016.6,759.2 1016.5,758.3 1016.5,757.5 1016.5,756.7 1016.6,755.9 1016.6,755.2 1016.6,754.4 1016.5,753.6 1016.5,752.8 1016.5,752.0 1016.5,751.2 1016.6,750.5 1016.6,749.7 1016.5,748.9 1016.5,748.2 1016.4,747.4 1016.4,746.6 1016.4,745.8 1016.4,745.0 1016.3,744.1 1016.3,743.3 1016.3,742.5 1016.3,741.6 1016.3,740.8 1016.3,740.0 1016.3,739.2 1016.3,738.3 1016.3,737.5 1016.3,736.7 1016.2,735.9 1016.2,735.0 1016.2,734.2 1016.2,733.5 1016.2,732.7 1016.2,731.9 1016.2,731.1 1016.1,730.2 1016.1,729.4 1016.1,728.6 1016.1,727.8 1016.1,727.0 1016.1,726.2 1016.1,725.3 1016.0,724.5 1016.0,723.7 1016.0,722.9 1016.0,722.0 1015.9,721.2 1015.9,720.5 1016.0,719.7 1015.9,719.0 1015.9,718.2 1015.8,717.4 1015.8,716.7 1015.8,715.8 1015.8,715.0 1015.8,714.2 1015.8,713.3 1015.8,712.5 1015.8,711.7 1015.8,710.9 1015.8,710.1 1015.8,709.2 1015.8,708.4 1015.7,707.6 1015.7,706.8 1015.7,706.0 1015.7,705.2 1015.7,704.4 1015.7,703.6 1015.7,702.8 1015.7,701.9 1015.7,701.1 1015.7,700.3 1015.6,699.5 1015.6,698.7 1015.6,697.9 1015.7,697.2 1015.7,696.4 1015.6,695.6 1015.6,694.8 1015.6,694.0 1015.6,693.2 1015.6,692.4 1015.6,691.5 1015.5,690.7 1015.5,689.9 1015.5,689.0 1015.5,688.2 1015.4,687.4 1015.4,686.6 1015.4,685.7 1015.4,684.9 1015.4,684.1 1015.4,683.4 1015.3,682.5 1015.3,681.7 1015.3,680.9 1015.2,680.1 1015.2,679.2 1015.2,678.4 1015.2,677.6 1015.1,676.8 1015.1,676.0 1015.1,675.2 1015.1,674.3 1015.1,673.5 1015.1,672.7 1015.1,671.8 1015.1,671.0 1015.0,670.2 1015.0,669.3 1015.0,668.5 1015.0,667.6 1014.9,666.8 1014.9,666.0 1014.9,665.1 1014.9,664.3 1014.9,663.5 1014.9,662.7 1014.8,661.8 1014.8,661.0 1014.8,660.2 1014.8,659.4 1014.8,658.5 1014.8,657.7 1014.8,657.0 1014.7,656.2 1014.7,655.4 1014.7,654.6 1014.7,653.8 1014.6,653.0 1014.6,652.2 1014.6,651.4 1014.6,650.6 1014.6,649.8 1014.6,649.0 1014.6,648.1 1014.6,647.3 1014.6,646.5 1014.6,645.6 1014.6,644.8 1014.6,644.0 1014.5,643.2 1014.5,642.3 1014.5,641.5 1014.5,640.7 1014.4,639.9 1014.4,639.1 1014.4,638.2 1014.4,637.4 1014.4,636.6 1014.4,635.7 1014.4,634.9 1014.4,634.1 1014.4,633.3 1014.5,632.5 1014.5,631.7 1014.5,630.9 1014.5,630.1 1014.4,629.4 1014.4,628.6 1014.4,628.4 1014.4,628.4 1014.4,628.4 1014.4,628.4 1014.4,628.4 1014.4,628.4 1014.4,628.4 1014.4,628.4 1014.4,628.4 1014.4,628.4 1014.4,628.4 1014.4,628.4 1014.4,628.4 1014.4,628.4 1014.4,628.4 1014.4,628.4 1014.4,628.4 1014.4,628.4 1014.4,628.4 1014.4,628.4 1014.4,628.4 1014.4,628.4 1014.4,628.4 1014.4,628.4 1014.4,628.4 1014.4,628.4 1014.4,628.4 1014.4,628.4 1014.4,628.4 1014.4,628.4 1014.4,628.4 1014.4,628.4 1014.4,628.4 1014.4,628.4 1014.4,628.4 1014.4,628.4 1014.4,628.4 1014.4,628.4 1014.4,628.4 1014.4,628.4 1014.4,628.4 1014.4,628.4 1014.4,628.4 1014.4,628.4 1014.4,628.4 1014.4,628.4 1014.4,628.4 1014.4,628.4 1014.4,628.4 1014.4,628.4 1014.4,628.4 1014.4,628.4 1014.4,628.4 1014.4,628.4 1014.4,628.4 1014.4,628.4 1014.4,628.4 1014.4,628.4 1014.4,628.4 1014.4,628.4 1014.4,628.4 1014.4,628.4 1014.4,628.4 1014.4,628.4 1014.4,628.4 1014.4,628.4 1014.4,628.4 1014.4,628.4 1014.4,628.4 1014.4,628.4 1014.4,628.4 1014.4,628.4 1014.4,628.4 1014.4,628.4 1014.4,628.4 1014.4,628.4 1014.4,628.4 1014.4,628.4 1014.4,628.4 1014.4,628.4 1014.4,628.4 1014.4,628.4 1014.4,628.4 1014.4,628.4 1014.4,628.4 1014.4,628.4 1014.4,628.4 1014.4,628.4 1014.4,628.4 1014.4,628.4 1014.4,628.4 1014.4,628.4 1014.4,628.4 1014.4,628.4" fill="none" stroke="#94a3b8" stroke-width="5" stroke-linecap="round" stroke-linejoin="round"/><polyline points="1015.6,629.0 1015.6,629.0 1015.6,629.0 1015.6,629.0 1015.6,629.0 1015.6,629.0 1015.6,629.0 1015.6,629.0 1015.6,629.0 1015.6,629.0 1015.6,629.0 1015.6,629.0 1015.6,629.0 1015.6,629.0 1015.6,629.0 1015.6,629.0 1015.6,629.0 1015.6,629.0 1015.6,629.0 1015.6,629.0 1015.6,629.0 1015.6,629.0 1015.6,629.0 1015.6,629.0 1015.6,629.0 1015.6,629.0 1015.6,629.0 1015.6,629.0 1015.6,629.0 1015.6,629.0 1015.6,629.0 1015.6,629.0 1015.6,629.0 1015.6,629.0 1015.6,629.0 1015.6,629.0 1015.6,629.0 1015.6,629.0 1015.6,629.0 1015.6,629.0 1015.7,629.4 1016.0,630.0 1016.0,630.5 1016.0,631.3 1016.0,632.3 1016.1,633.2 1016.0,633.8 1016.0,634.5 1016.0,635.3 1016.1,636.3 1016.1,637.1 1016.1,637.8 1016.1,638.4 1016.2,639.3 1016.2,640.0 1016.2,640.9 1016.3,641.7 1016.2,642.4 1016.2,643.2 1016.3,644.1 1016.2,644.9 1016.3,645.5 1016.3,646.4 1016.3,647.2 1016.3,648.0 1016.3,648.8 1016.4,649.6 1016.4,650.5 1016.5,651.3 1016.4,652.0 1016.4,652.8 1016.4,653.4 1016.5,654.2 1016.5,655.2 1016.4,656.0 1016.5,656.7 1016.5,657.7 1016.6,658.4 1016.6,659.2 1016.6,659.9 1016.7,660.8 1016.7,661.6 1016.7,662.4 1016.7,663.1 1016.7,664.0 1016.7,664.8 1016.7,665.5 1016.8,666.4 1016.8,667.1 1016.9,667.8 1016.8,668.7 1016.9,669.5 1016.9,670.3 1016.8,671.1 1017.0,671.9 1016.8,672.8 1016.9,673.5 1017.0,674.3 1016.9,675.0 1017.2,675.9 1017.1,676.7 1017.0,677.4 1017.0,678.4 1017.0,679.0 1017.0,679.8 1017.0,680.6 1017.0,681.6 1017.0,682.3 1017.2,683.0 1017.1,683.9 1017.2,684.6 1017.0,685.3 1017.1,686.3 1017.1,687.0 1017.1,687.7 1017.4,688.7 1017.1,689.5 1017.4,690.2 1017.2,690.9 1017.2,691.6 1017.2,692.5 1017.3,693.6 1017.3,694.4 1017.4,695.0 1017.4,695.7 1017.3,696.9 1017.4,697.5 1017.5,698.2 1017.4,699.2 1017.3,700.1 1017.5,700.8 1017.4,701.6 1017.6,702.6 1017.4,703.2 1017.4,704.2 1017.6,704.9 1017.4,705.6 1017.6,706.4 1017.5,707.2 1017.7,708.0 1017.7,708.9 1017.5,709.6 1017.6,710.5 1017.5,711.3 1017.3,712.1 1017.5,712.7 1017.6,713.4 1017.5,714.4 1017.6,715.2 1017.6,716.0 1017.6,716.9 1017.7,717.6 1017.5,718.4 1017.4,719.2 1017.5,720.2 1017.4,721.0 1017.6,721.7 1017.6,722.5 1017.5,723.3 1017.4,724.1 1017.5,724.9 1017.5,725.8 1017.4,726.7 1017.6,727.3 1017.8,728.1 1017.6,728.9 1017.7,729.8 1017.6,730.6 1017.3,731.4 1017.5,732.3 1017.9,733.1 1017.5,733.7 1018.0,734.8 1017.7,735.5 1017.6,736.2 1017.8,736.9 1017.6,737.7 1017.9,738.8 1017.8,739.3 1017.9,740.4 1017.7,741.1 1017.8,741.7 1017.6,742.7 1017.6,743.5 1017.8,744.3 1017.9,745.1 1017.6,745.8 1017.7,746.7 1017.7,747.6 1017.7,748.2 1017.7,749.0 1017.7,749.8 1017.4,750.6 1017.8,751.5 1017.7,752.1 1017.7,752.8 1017.6,753.7 1017.9,754.8 1017.8,755.4 1017.4,755.9 1017.4,756.8 1017.5,757.6 1017.7,758.5 1017.8,759.4 1017.7,760.0 1017.6,760.9 1017.8,761.6 1017.8,762.5 1017.8,763.2 1017.8,764.1 1017.8,765.0 1017.7,765.9 1017.7,766.4 1017.8,767.4 1017.8,768.3 1017.5,768.8 1017.7,769.8 1017.8,770.6 1017.9,771.4 1017.5,772.1 1017.9,773.2 1017.8,773.9 1017.8,774.7 1017.4,775.1 1017.3,775.8 1017.3,776.6 1017.4,777.4 1017.2,778.2 1017.3,779.1 1017.3,779.9 1017.3,780.6 1017.2,781.4 1017.2,782.2 1017.3,783.0 1017.2,784.0 1017.2,784.7 1017.3,785.5 1017.2,786.3 1017.3,787.2 1017.2,787.9 1017.0,788.7 1017.2,789.6 1017.1,790.4 1017.3,791.3 1017.0,791.9 1017.2,792.6 1017.2,793.6 1017.1,794.4 1017.0,795.2 1016.8,795.9 1017.0,796.8 1017.1,797.6 1017.3,798.6 1017.2,799.3 1017.1,800.2 1017.0,800.9 1016.9,801.8 1017.2,802.6 1017.4,803.5 1016.8,804.2 1016.9,804.9 1017.0,806.0 1017.2,806.8 1017.2,807.4 1017.3,808.4 1017.2,809.0 1017.3,810.0 1017.1,810.9 1017.1,811.6 1017.1,812.5 1017.1,813.4 1017.1,814.3 1017.0,814.9 1017.1,815.7 1017.0,816.5 1016.9,817.1 1017.0,818.0 1017.0,818.8 1017.2,819.8 1016.6,820.6 1017.0,821.2 1017.1,822.1 1016.9,823.0 1017.3,824.0 1017.2,824.7 1017.0,825.4 1017.2,826.3 1017.3,827.1 1017.0,827.9 1016.9,828.6 1017.0,829.5 1017.3,830.3 1017.3,831.1 1017.3,832.0 1017.0,832.7 1017.3,833.5 1017.2,834.1 1017.2,835.1 1017.0,835.8 1017.3,836.6 1017.2,837.3 1016.9,838.2 1017.1,839.0 1017.4,839.8 1016.7,840.5 1017.0,841.2 1016.8,842.0 1016.9,842.8 1016.9,843.7 1016.9,844.6 1017.1,845.4 1017.1,846.1 1016.9,846.9 1016.9,847.7 1016.7,848.4 1017.1,849.3 1017.1,850.3 1016.8,850.9 1017.0,851.9 1016.8,852.6 1016.8,853.3 1016.9,854.1 1016.7,854.8 1017.2,855.5 1016.7,856.4 1016.7,857.2 1016.7,858.2 1017.1,858.9 1016.7,859.7 1017.1,860.0 1017.1,860.0 1017.1,860.0 1017.1,860.0 1017.1,860.0 1017.1,860.0 1017.1,860.0 1017.1,860.0 1016.9,860.0 1016.9,859.3 1016.9,858.4 1016.8,857.7 1017.2,856.7 1016.7,856.0 1016.9,855.2 1016.8,854.4 1016.9,853.5 1016.6,852.6 1016.7,851.9 1016.7,851.1 1016.6,850.3 1016.9,849.4 1016.9,848.6 1016.6,847.7 1016.6,847.0 1016.6,846.1 1016.9,845.4 1016.6,844.6 1016.8,843.6 1016.5,842.8 1016.9,842.1 1016.4,841.2 1016.7,840.4 1016.7,839.4 1016.7,838.8 1017.0,838.1 1016.8,837.3 1016.6,836.4 1016.5,835.4 1016.8,834.5 1016.9,833.8 1016.8,833.0 1016.8,832.0 1016.8,831.4 1016.9,830.5 1016.8,829.7 1016.8,828.9 1016.9,828.1 1016.9,827.3 1017.2,826.5 1017.0,825.9 1016.8,825.2 1016.8,824.3 1016.8,823.7 1017.1,822.6 1016.7,822.0 1016.8,821.1 1017.2,820.4 1016.7,819.5 1016.7,818.6 1016.9,817.8 1017.3,817.0 1017.2,816.3 1017.2,815.2 1017.1,814.5 1017.1,813.6 1017.3,812.7 1017.2,811.9 1016.9,811.1 1017.0,810.3 1017.0,809.5 1017.0,808.6 1016.9,807.8 1017.0,807.0 1017.1,806.2 1017.0,805.4 1017.2,804.7 1016.9,803.9 1017.0,802.9 1017.0,802.1 1016.8,801.3 1017.0,800.5 1017.1,799.7 1017.1,799.0 1016.9,798.0 1016.8,797.2 1016.9,796.3 1017.1,795.6 1017.0,795.0 1017.0,794.3 1016.8,793.2 1016.7,792.2 1016.7,791.5 1016.9,790.5 1016.9,789.8 1017.0,788.9 1016.8,788.3 1016.8,787.2 1016.7,786.3 1016.8,785.7 1016.8,784.7 1016.7,783.9 1016.7,783.1 1016.9,782.3 1016.8,781.3 1016.9,780.7 1016.9,779.7 1016.9,778.8 1016.8,778.0 1016.9,777.1 1016.8,776.5 1016.9,775.5 1016.7,774.6 1016.7,773.8 1016.8,773.1 1016.8,772.2 1016.7,771.3 1016.9,770.7 1016.8,769.8 1016.9,769.0 1016.7,768.1 1016.7,767.2 1017.0,766.6 1017.0,765.8 1017.1,765.0 1016.9,764.0 1017.0,763.1 1017.0,762.3 1017.2,761.6 1017.3,760.9 1016.8,759.7 1017.1,759.3 1016.8,758.2 1017.0,757.5 1017.1,756.8 1017.0,756.0 1017.3,755.2 1016.9,754.4 1017.2,753.7 1017.0,752.5 1017.1,751.9 1017.1,751.1 1017.0,750.5 1017.0,749.7 1017.1,749.0 1017.3,748.2 1017.1,747.3 1017.1,746.6 1017.1,745.8 1017.0,745.1 1016.9,743.9 1017.0,743.0 1017.1,742.3 1017.1,741.5 1017.0,740.9 1016.9,739.9 1017.0,739.1 1017.2,738.5 1017.1,737.2 1017.1,736.7 1016.9,735.9 1016.9,735.1 1016.9,734.2 1017.0,733.5 1016.6,732.6 1016.7,731.6 1016.8,731.1 1016.8,730.2 1016.9,729.4 1016.7,728.6 1016.7,727.6 1016.6,726.7 1016.8,726.1 1016.6,725.3 1016.5,724.2 1016.6,723.4 1016.7,722.6 1016.6,721.8 1016.6,721.1 1016.6,720.2 1016.6,719.4 1016.3,718.6 1016.5,717.8 1016.3,717.2 1016.1,716.2 1016.2,715.4 1016.1,714.4 1016.1,713.7 1016.3,712.8 1016.4,712.2 1016.3,711.3 1016.4,710.5 1016.3,709.7 1016.3,708.8 1016.3,708.0 1016.1,707.2 1016.2,706.4 1016.3,705.6 1016.1,704.8 1016.1,703.8 1016.1,702.9 1016.2,702.4 1016.1,701.5 1016.2,700.8 1016.2,699.9 1016.1,699.1 1016.2,698.3 1016.2,697.7 1016.2,696.8 1016.1,695.9 1016.0,695.1 1016.1,694.6 1016.1,693.7 1015.8,692.7 1016.1,691.9 1016.1,691.2 1015.9,690.2 1015.9,689.4 1016.0,688.6 1015.7,687.8 1015.8,686.8 1015.6,686.0 1015.5,685.2 1015.8,684.4 1015.5,683.9 1015.5,683.0 1015.5,682.0 1015.2,681.3 1015.2,680.4 1015.0,679.6 1015.1,678.8 1015.1,677.7 1014.7,676.9 1015.0,676.2 1014.7,675.4 1014.6,674.5 1014.7,673.6 1014.5,672.9 1014.7,672.0 1014.4,671.2 1014.5,670.4 1014.5,669.5 1014.4,668.6 1014.3,668.0 1014.3,667.0 1014.2,666.2 1014.2,665.2 1014.2,664.6 1014.1,663.5 1014.1,662.8 1014.0,662.1 1014.0,661.1 1013.9,660.3 1013.8,659.5 1013.7,658.7 1013.7,657.9 1013.7,657.1 1013.6,656.4 1013.6,655.7 1013.5,654.8 1013.4,653.9 1013.4,653.2 1013.4,652.4 1013.3,651.5 1013.3,650.8 1013.2,650.0 1013.1,649.2 1013.1,648.3 1013.1,647.4 1013.0,646.6 1013.0,645.8 1013.1,644.9 1013.0,644.3 1012.9,643.3 1012.9,642.6 1012.7,641.7 1012.7,640.9 1012.7,640.1 1012.6,639.4 1012.6,638.4 1012.5,637.6 1012.5,636.9 1012.5,635.8 1012.4,635.1 1012.4,634.3 1012.4,633.5 1012.4,632.6 1012.4,631.9 1012.4,631.1 1012.2,630.3 1012.2,629.5 1012.2,628.8 1012.3,628.1 1012.2,628.1 1012.3,628.1 1012.3,628.1 1012.3,628.1 1012.3,628.1 1012.3,628.1 1012.3,628.1 1012.3,628.1 1012.3,628.1 1012.3,628.1 1012.3,628.1 1012.3,628.1 1012.3,628.1 1012.3,628.1 1012.3,628.1 1012.3,628.1 1012.3,628.1 1012.3,628.1 1012.3,628.1 1012.3,628.1 1012.3,628.1 1012.3,628.1 1012.3,628.1 1012.3,628.1 1012.3,628.1 1012.3,628.1 1012.3,628.1 1012.3,628.1 1012.3,628.1 1012.3,628.1 1012.3,628.1 1012.3,628.1 1012.3,628.1 1012.3,628.1 1012.3,628.1 1012.3,628.1 1012.3,628.1 1012.3,628.1 1012.3,628.1 1012.3,628.1 1012.3,628.1 1012.3,628.1 1012.3,628.1 1012.3,628.1 1012.3,628.1 1012.3,628.1 1012.3,628.1 1012.3,628.1 1012.3,628.1 1012.3,628.1 1012.3,628.1 1012.3,628.1 1012.3,628.1 1012.3,628.1 1012.3,628.1 1012.3,628.1 1012.3,628.1 1012.3,628.1 1012.3,628.1 1012.3,628.1 1012.3,628.1 1012.3,628.1 1012.3,628.1 1012.3,628.1 1012.3,628.1 1012.3,628.1 1012.3,628.1 1012.3,628.1 1012.3,628.1 1012.3,628.1 1012.3,628.1 1012.3,628.1 1012.3,628.1 1012.3,628.1 1012.3,628.1 1012.3,628.1 1012.3,628.1 1012.3,628.1 1012.3,628.1 1012.3,628.2 1012.3,628.2 1012.3,628.2" fill="none" stroke="#2563eb" stroke-width="4" stroke-linecap="round" stroke-linejoin="round"/><text x="734" y="892" font-size="14" font-family="Inter,Arial,sans-serif" fill="#64748b">matched span: 4164 points | footprint: 19.35 m</text></svg>