<svg xmlns="http://www.w3.org/2000/svg" width="1400" height="980" viewBox="0 0 1400 980" role="img" aria-labelledby="title desc"><title id="title">lidar_slam_2d trajectory gallery</title><desc id="desc">Overlay panels showing aligned lidar_slam_2d trajectories against reference trajectories across backpack and IILABS datasets.</desc><defs><linearGradient id="bg2" x1="0" x2="1" y1="0" y2="1"><stop offset="0%" stop-color="#ffffff"/><stop offset="100%" stop-color="#eef2ff"/></linearGradient></defs><rect width="100%" height="100%" fill="url(#bg2)"/><text x="60" y="78" font-size="42" font-family="Inter,Arial,sans-serif" font-weight="700" fill="#0f172a">Trajectory overlays</text><text x="60" y="116" font-size="20" font-family="Inter,Arial,sans-serif" fill="#475569">lidar_slam_2d trajectories are aligned in SE(2) to the reference path for visual comparison.</text><rect x="60" y="130" width="14" height="14" rx="7" fill="#2563eb"/><text x="84" y="142" font-size="16" font-family="Inter,Arial,sans-serif" fill="#0f172a">lidar_slam_2d</text><rect x="150" y="130" width="14" height="14" rx="7" fill="#94a3b8"/><text x="174" y="142" font-size="16" font-family="Inter,Arial,sans-serif" fill="#0f172a">reference</text><rect x="60" y="170" rx="28" ry="28" width="610" height="350" fill="#ffffff" stroke="#cbd5e1" stroke-width="2"/><text x="84" y="208" font-size="24" font-family="Inter,Arial,sans-serif" font-weight="700" fill="#0f172a">Backpack 300 scans</text><text x="646" y="208" text-anchor="end" font-size="16" font-family="Inter,Arial,sans-serif" fill="#475569">Cartographer pseudo GT | align RMSE 0.081 m</text><polyline points="509.7,238.1 509.1,238.0 508.8,238.1 508.6,238.3 508.4,238.4 507.7,238.7 507.3,238.8 506.8,239.0 505.7,239.4 504.7,239.6 503.5,239.7 502.1,240.0 500.1,240.6 500.1,240.6 500.1,240.6 500.1,240.6 500.1,240.6 500.1,240.6 500.1,240.6 500.1,240.6 500.1,240.6 500.1,240.6 500.1,240.6 499.1,241.1 497.5,242.0 494.1,244.3 492.0,246.0 489.9,247.7 488.4,249.0 486.9,250.0 485.3,251.1 482.7,252.9 480.8,254.5 480.0,255.2 480.0,255.2 480.0,255.2 480.0,255.2 480.0,255.2 480.0,255.2 480.0,255.2 480.0,255.2 480.0,255.2 480.0,255.2 480.0,255.2 480.0,255.5 479.1,256.6 475.9,260.8 474.1,263.4 472.6,265.7 469.7,269.6 468.6,271.8 467.8,273.9 465.3,277.6 463.7,279.5 462.9,280.7 462.8,280.8 462.8,280.8 462.8,280.8 462.8,280.8 462.8,280.8 462.3,281.5 460.7,283.3 458.7,285.0 455.3,287.6 451.9,290.1 449.6,292.2 447.3,294.5 445.5,296.2 443.0,297.9 440.4,299.9 438.3,301.9 437.6,302.6 437.6,302.6 437.6,302.6 437.6,302.6 437.6,302.6 437.6,302.6 437.8,302.5 436.0,304.4 434.1,306.6 430.6,310.0 427.2,313.2 423.5,316.8 422.5,317.6 420.1,320.1 418.4,322.3 416.3,324.6 413.5,326.8 413.1,327.1 413.1,327.1 413.1,327.1 413.1,327.1 413.1,327.1 413.1,327.1 413.1,327.1 413.1,327.1 413.1,327.1 410.5,329.1 408.2,331.0 406.4,332.3 405.3,333.1 402.4,334.8 400.0,336.5 394.2,341.4 391.8,343.4 390.5,344.0 388.8,344.9 386.6,346.6 386.1,347.0 386.1,347.0 386.1,347.0 386.1,347.0 386.1,347.0 386.1,347.0 386.1,347.0 386.1,347.0 386.1,347.0 386.1,347.0 386.1,347.0 386.1,347.0 384.8,348.1 381.8,350.9 379.6,353.3 378.7,354.2 376.7,356.4 375.5,357.7 374.3,359.1 372.9,360.8 369.9,364.0 368.7,365.5 367.6,367.1 366.2,369.0 365.4,370.0 363.8,371.8 362.4,373.3 360.6,375.0 360.6,375.0 360.6,375.0 360.6,375.0 360.6,375.0 360.6,375.0 360.6,375.0 360.6,375.0 360.6,375.0 360.6,375.0 360.6,375.0 360.6,375.0 360.6,375.0 360.6,375.0 360.6,375.0 359.6,375.9 358.5,376.7 356.8,378.0 355.0,379.6 355.0,379.6 352.3,381.7 350.8,382.8 349.3,384.1 348.9,384.4 346.0,386.7 344.7,387.8 340.9,390.9 338.4,392.8 336.3,393.9 333.8,395.5 333.7,395.7 333.7,395.7 333.7,395.7 333.7,395.7 333.7,395.7 333.7,395.7 333.7,395.7 333.7,395.7 333.4,396.0 329.6,399.5 327.3,401.5 324.2,404.0 322.3,405.6 318.8,408.6 316.6,410.2 312.7,412.9 310.9,414.7 309.2,416.8 309.1,416.9 308.0,417.9 306.6,418.9 305.1,419.8 304.1,420.4 304.1,420.4 304.1,420.4 304.1,420.4 304.1,420.4 304.1,420.4 304.1,420.4 303.7,420.6 302.6,421.1 300.2,422.4 300.2,422.4 297.5,424.1 296.7,424.5 293.5,426.3 291.4,427.4 288.5,429.0 286.9,430.1 283.2,432.6 279.8,434.6 277.5,435.8 277.4,435.9 275.8,436.8 274.4,437.7 274.4,437.7 274.4,437.7 274.4,437.7 274.4,437.7 274.4,437.7 274.4,437.7 274.4,437.7 274.4,437.7 274.4,437.7 274.4,437.7 274.4,437.7 274.4,437.7 273.7,438.1 271.6,439.6 269.6,440.9 268.5,441.7 267.2,442.7 264.7,444.6 263.5,445.6 260.8,447.8 259.3,449.0 257.5,450.2 253.2,452.9 251.7,454.4 249.8,456.4 248.1,458.0 247.4,458.5 245.5,459.6 245.5,459.6 245.5,459.6 245.5,459.6 245.5,459.6 245.5,459.6 245.5,459.6 245.0,459.9 244.9,460.0 240.4,462.3 236.5,464.2 233.9,465.4 231.4,466.5 230.1,467.1 227.2,468.1 225.6,468.7 221.7,470.0" fill="none" stroke="#94a3b8" stroke-width="5" stroke-linecap="round" stroke-linejoin="round"/><polyline points="506.9,241.4 506.9,241.4 506.9,241.4 506.9,241.4 506.9,241.4 506.9,241.4 506.9,241.4 506.9,241.4 506.9,241.4 506.9,241.4 506.9,241.4 506.9,241.4 506.9,241.4 506.9,241.4 506.9,241.4 506.9,241.4 506.9,241.4 506.9,241.4 506.9,241.4 506.9,241.4 506.9,241.4 506.9,241.4 506.9,241.4 506.9,241.4 506.9,241.4 506.9,241.4 506.9,241.4 506.9,241.4 506.9,241.4 506.9,241.4 506.9,241.4 506.9,241.4 506.9,241.4 506.9,241.4 506.9,241.4 506.9,241.4 506.9,241.4 506.9,241.4 506.9,241.4 506.9,241.4 506.9,241.4 506.9,241.4 506.9,241.4 506.9,241.4 506.9,241.4 506.9,241.4 506.9,241.4 506.9,241.4 506.9,241.4 506.9,241.4 507.1,243.8 506.9,241.4 506.9,241.4 506.9,241.4 504.2,239.3 504.2,239.3 499.9,244.5 499.7,242.1 499.9,244.5 499.7,242.1 499.7,242.1 499.7,242.1 497.3,242.3 497.3,242.3 497.3,242.3 492.5,242.8 492.5,242.8 492.5,242.8 490.1,243.0 492.5,242.8 490.5,247.8 490.5,247.8 485.9,250.6 485.9,250.6 486.2,253.0 486.2,253.0 483.8,253.3 483.8,253.3 483.5,250.9 483.3,248.5 480.9,248.7 479.0,253.7 481.1,251.1 478.7,251.3 476.8,256.3 476.8,256.3 476.8,256.3 474.6,259.0 474.6,259.0 472.2,259.2 472.2,259.2 472.2,259.2 472.4,261.6 472.7,264.0 470.2,264.2 468.1,266.8 468.1,266.8 466.1,271.9 466.1,271.9 466.1,271.9 466.1,271.9 466.3,274.3 466.3,274.3 463.9,274.5 461.8,277.1 461.8,277.1 462.0,279.5 459.8,282.1 459.8,282.1 459.8,282.1 457.6,284.8 455.5,287.4 453.3,290.0 453.3,290.0 453.3,290.0 453.3,290.0 450.9,290.2 450.9,290.2 448.9,295.3 446.5,295.5 444.4,298.1 444.4,298.1 444.4,298.1 442.2,300.7 442.2,300.7 442.2,300.7 439.8,301.0 437.8,306.0 437.8,306.0 437.8,306.0 435.4,306.2 435.4,306.2 431.1,311.5 428.7,311.7 428.7,311.7 426.5,314.3 426.7,316.7 426.7,316.7 426.3,311.9 426.7,316.7 424.1,314.5 426.7,316.7 424.3,316.9 420.0,322.2 420.0,322.2 420.0,322.2 417.8,324.8 417.8,324.8 413.4,330.1 413.4,330.1 413.4,330.1 411.2,332.7 411.2,332.7 408.8,332.9 408.8,332.9 404.3,335.8 404.3,335.8 404.0,333.4 399.7,338.6 399.7,338.6 399.7,338.6 399.7,338.6 399.7,338.6 399.9,341.0 397.5,341.2 397.5,341.2 393.2,346.5 390.8,346.7 390.5,344.3 390.8,346.7 390.8,346.7 386.2,349.5 386.2,349.5 386.2,349.5 386.2,349.5 381.8,354.8 381.8,354.8 381.8,354.8 377.3,357.6 377.3,357.6 377.5,360.0 372.9,362.9 367.6,358.5 367.6,358.5 367.6,358.5 367.6,358.5 367.6,358.5 367.9,360.9 368.3,365.7 368.3,365.7 366.4,370.8 364.4,375.8 364.4,375.8 364.4,375.8 359.2,371.4 362.0,376.0 362.0,376.0 357.4,378.9 357.4,378.9 357.7,381.3 352.9,381.7 352.6,379.3 352.9,381.7 352.9,381.7 350.5,381.9 348.5,387.0 348.1,382.2 345.9,384.8 343.7,387.4 341.3,387.6 341.5,390.0 341.5,390.0 336.7,390.5 336.9,392.9 336.9,392.9 332.4,395.7 332.4,395.7 332.4,395.7 332.4,395.7 328.0,401.0 325.8,403.6 328.0,401.0 326.1,406.0 326.1,406.0 321.5,408.9 319.1,409.1 316.9,411.7 316.9,411.7 316.9,411.7 314.7,414.3 314.7,414.3 314.7,414.3 312.6,417.0 310.4,419.6 308.0,419.8 308.0,419.8 308.0,419.8 308.0,419.8 303.6,425.1 303.6,425.1 301.2,425.3 298.8,425.5 298.8,425.5 298.8,425.5 296.2,423.3 294.0,425.9 291.6,426.2 289.0,424.0 289.2,426.4 289.2,426.4 287.0,429.0 284.6,429.2 284.6,429.2 282.2,429.5 282.5,431.9 280.1,432.1 277.7,432.3 275.5,434.9 275.5,434.9 273.1,435.2 270.9,437.8 270.9,437.8 268.7,440.4 269.0,442.8 266.6,443.0 264.4,445.7 264.4,445.7 264.2,443.3 264.2,443.3 262.0,445.9 262.0,445.9 259.8,448.5 257.4,448.7 257.4,448.7 255.2,451.4 252.8,451.6 253.0,454.0 250.9,456.6 250.9,456.6 250.9,456.6 248.5,456.8 246.3,459.5 243.9,459.7 241.3,457.5 243.9,459.7 241.5,459.9 241.5,459.9 239.1,460.1 236.7,460.4 234.5,463.0 232.1,463.2 232.1,463.2 232.1,463.2 229.7,463.4 229.9,465.8 227.5,466.1 225.1,466.3 222.7,466.5 222.7,466.5 220.3,466.7" fill="none" stroke="#2563eb" stroke-width="4" stroke-linecap="round" stroke-linejoin="round"/><text x="84" y="502" font-size="14" font-family="Inter,Arial,sans-serif" fill="#64748b">matched span: 258 points | footprint: 6.00 m</text><rect x="710" y="170" rx="28" ry="28" width="610" height="350" fill="#ffffff" stroke="#cbd5e1" stroke-width="2"/><text x="734" y="208" font-size="24" font-family="Inter,Arial,sans-serif" font-weight="700" fill="#0f172a">Backpack 2k scans</text><text x="1296" y="208" text-anchor="end" font-size="16" font-family="Inter,Arial,sans-serif" fill="#475569">Cartographer pseudo GT | align RMSE 0.475 m</text><polyline points="1129.4,421.4 1129.3,421.4 1129.2,421.5 1129.0,421.5 1128.7,421.6 1128.3,421.7 1127.8,421.8 1127.8,421.8 1127.8,421.8 1127.8,421.8 1127.8,421.8 1127.8,421.8 1127.3,422.1 1126.3,422.8 1125.7,423.3 1125.2,423.7 1124.4,424.3 1124.3,424.4 1124.3,424.4 1124.3,424.4 1124.3,424.4 1124.3,424.4 1124.3,424.4 1123.5,425.4 1123.0,426.2 1122.3,427.3 1121.7,428.3 1121.3,428.8 1121.3,428.8 1121.3,428.8 1121.2,429.0 1120.5,429.6 1119.4,430.5 1118.6,431.2 1117.8,431.8 1117.0,432.5 1116.9,432.6 1116.9,432.6 1116.9,432.6 1116.6,433.0 1115.6,433.9 1114.4,435.1 1113.8,435.7 1113.2,436.5 1112.6,436.9 1112.6,436.9 1112.6,436.9 1112.6,436.9 1112.6,436.9 1111.7,437.6 1111.2,437.9 1110.3,438.5 1108.9,439.8 1108.4,440.0 1107.9,440.4 1107.9,440.4 1107.9,440.4 1107.9,440.4 1107.9,440.4 1107.9,440.4 1107.7,440.6 1106.8,441.5 1106.3,442.0 1105.8,442.5 1105.1,443.3 1104.7,443.9 1104.3,444.4 1103.8,444.9 1103.4,445.3 1103.4,445.3 1103.4,445.3 1103.4,445.3 1103.4,445.3 1103.4,445.3 1103.4,445.3 1103.3,445.4 1102.8,445.8 1102.5,446.0 1101.7,446.6 1101.4,446.9 1100.7,447.5 1099.6,448.4 1098.8,448.8 1098.8,448.8 1098.8,448.8 1098.8,448.8 1098.8,448.8 1098.0,449.5 1097.1,450.3 1096.2,451.1 1095.1,451.9 1094.5,452.5 1094.3,452.7 1093.8,453.1 1093.6,453.2 1093.6,453.2 1093.6,453.2 1093.5,453.2 1092.9,453.5 1092.5,453.8 1091.8,454.2 1090.9,454.7 1090.0,455.3 1089.0,455.8 1088.7,456.0 1088.4,456.2 1088.4,456.2 1088.4,456.2 1088.4,456.2 1088.4,456.2 1088.4,456.2 1088.3,456.2 1087.6,456.7 1087.2,457.0 1086.5,457.6 1085.8,458.1 1084.7,458.8 1084.1,459.4 1083.7,459.8 1083.4,460.0 1083.4,460.0 1083.4,460.0 1083.3,460.0 1082.5,460.5 1081.4,461.0 1080.7,461.3 1079.9,461.6 1078.9,461.9 1078.3,462.1 1078.3,462.1 1078.3,462.1 1078.3,462.1 1077.8,462.4 1076.8,463.0 1076.1,463.4 1074.8,464.3 1074.0,464.7 1073.7,465.0 1073.4,465.3 1073.4,465.3 1073.4,465.3 1073.3,465.3 1072.8,465.6 1072.4,465.8 1071.1,466.3 1070.3,466.7 1069.4,467.0 1068.1,467.3 1067.7,467.5 1067.6,467.5 1067.6,467.5 1067.6,467.5 1067.3,467.7 1066.9,467.9 1066.1,468.2 1065.3,468.5 1064.4,469.0 1062.8,469.4 1062.3,469.6 1062.0,469.7 1062.0,469.7 1062.0,469.7 1062.0,469.7 1061.6,469.7 1060.6,469.8 1059.3,469.8 1058.0,469.9 1057.1,469.8 1056.2,469.7 1056.0,469.6 1056.0,469.6 1056.0,469.6 1056.0,469.6 1056.0,469.6 1055.4,469.7 1054.4,469.8 1053.9,469.8 1053.1,469.9 1052.1,469.9 1050.8,470.0 1050.3,470.0 1049.9,470.0 1049.7,470.0 1049.6,469.9 1049.6,469.9 1049.2,469.9 1047.9,469.8 1046.7,469.4 1045.4,469.2 1043.9,468.6 1043.4,468.4 1043.4,468.4 1043.4,468.4 1042.7,468.3 1041.4,468.1 1040.1,467.6 1038.6,467.3 1037.3,467.0 1036.8,466.8 1036.8,466.8 1036.8,466.8 1036.8,466.8 1036.0,466.5 1034.6,466.1 1033.8,465.8 1032.7,465.3 1031.2,464.4 1030.7,464.2 1030.7,464.2 1030.7,464.2 1030.7,464.2 1030.0,463.9 1028.8,463.6 1027.7,463.2 1026.7,462.5 1026.2,462.3 1025.1,462.0 1024.5,461.5 1024.4,461.4 1024.4,461.4 1024.4,461.4 1023.7,460.9 1022.5,460.3 1021.3,459.2 1020.1,458.0 1019.4,457.5 1019.0,457.3 1019.0,457.3 1019.0,457.3 1019.0,457.3 1018.6,457.0 1017.9,456.4 1016.6,455.3 1015.2,454.5 1014.4,453.8 1013.4,452.7 1013.4,452.7 1013.4,452.7 1013.4,452.7 1013.4,452.7 1013.0,452.4 1012.2,451.9 1010.5,450.1 1009.8,449.4 1008.6,449.0 1008.3,448.8 1008.3,448.8 1008.3,448.8 1008.3,448.8 1007.0,448.0 1004.9,446.5 1004.1,446.1 1003.1,445.5 1002.2,444.8 1002.2,444.8 1001.9,444.6 1000.6,443.7 999.0,442.1 998.3,441.9 997.6,441.6 996.6,440.8 996.6,440.8 996.6,440.8 996.6,440.8 996.6,440.8 995.5,439.9 994.2,439.0 993.3,438.4 992.2,437.4 990.9,436.3 990.9,436.3 990.9,436.3 990.9,436.3 990.9,436.3 989.9,435.2 988.8,433.9 987.6,433.0 986.6,432.3 986.1,432.0 986.1,432.0 985.5,431.6 984.0,430.4 982.9,429.5 982.1,428.8 981.0,428.1 981.0,428.1 981.0,428.1 981.0,428.1 979.8,426.5 979.1,426.0 977.9,425.4 976.5,424.4 976.1,424.1 976.1,424.1 976.1,424.1 976.1,424.1 975.5,423.6 974.4,422.9 974.0,422.7 973.1,422.0 972.0,421.1 971.2,420.5 971.2,420.5 971.2,420.5 971.2,420.5 971.2,420.5 969.9,418.9 969.3,418.4 968.6,418.0 968.3,417.8 967.7,417.1 967.0,416.6 966.3,416.1 966.3,416.1 966.3,416.1 966.3,416.1 966.3,416.1 966.3,416.1 966.2,416.2 965.0,415.3 964.1,414.7 963.3,413.8 962.6,413.2 961.7,412.5 961.7,412.5 961.7,412.3 960.5,410.7 959.9,409.8 959.3,409.5 958.1,408.5 957.4,407.8 957.4,407.8 957.4,407.8 957.4,407.8 956.3,406.9 955.3,406.1 954.7,405.4 953.2,403.8 952.9,403.3 952.9,403.3 952.9,403.3 952.8,403.2 951.8,401.7 951.5,401.1 950.6,400.5 949.2,398.7 949.0,398.4 949.0,398.4 948.4,397.6 947.7,397.1 947.2,396.6 946.6,395.6 945.8,394.5 945.2,393.7 945.2,393.7 945.2,393.7 945.2,393.7 944.1,391.8 943.9,391.1 943.3,390.7 942.7,390.0 941.2,388.2 941.2,388.2 941.2,388.2 941.2,388.2 941.2,388.2 940.4,387.2 939.8,386.7 939.4,385.9 938.2,384.3 937.4,383.2 937.4,383.1 937.4,383.1 937.4,383.1 937.4,383.1 937.1,382.6 936.4,381.0 935.8,380.4 935.0,379.6 934.2,378.5 933.7,377.9 933.7,377.9 933.7,377.9 933.7,377.9 932.9,376.8 932.3,376.1 931.7,375.0 931.1,374.2 930.5,373.4 930.5,373.4 930.5,373.4 930.3,373.0 929.7,372.2 929.3,371.2 928.9,370.6 928.3,370.2 927.5,369.4 926.9,368.7 926.9,368.7 926.9,368.7 925.2,367.1 924.6,366.5 923.9,365.5 923.4,364.9 922.9,364.3 922.9,364.3 922.9,364.3 922.9,364.3 922.9,364.3 922.9,364.3 921.8,362.8 921.4,361.9 920.8,361.3 920.1,360.9 919.1,360.0 918.7,359.6 918.7,359.6 918.7,359.6 918.7,359.6 918.7,359.6 918.6,359.6 917.9,359.1 916.9,358.5 916.2,358.1 915.4,357.4 914.5,356.8 913.7,356.3 913.7,356.3 913.7,356.3 913.7,356.3 913.5,356.1 912.3,355.2 911.6,354.4 910.9,354.1 910.0,353.8 909.0,353.1 908.9,353.1 908.9,353.1 908.9,353.1 908.9,353.1 908.4,352.8 907.3,352.3 907.0,352.1 906.4,351.9 905.8,351.3 905.1,350.8 904.8,350.5 904.8,350.5 904.8,350.5 904.6,350.2 903.9,349.5 903.6,349.0 903.2,348.4 902.9,347.9 902.7,347.6 902.5,347.3 902.0,346.7 902.0,346.6 902.0,346.6 902.0,346.6 901.7,346.2 901.4,345.7 901.1,345.1 901.0,344.9 900.8,344.4 900.6,343.9 900.4,343.4 900.2,343.0 900.1,342.6 900.0,342.0 900.0,341.7 900.0,341.7 900.0,341.7 900.0,341.7 900.0,341.5 899.9,340.9 899.9,340.3 899.8,339.7 899.8,339.1 899.9,338.3 899.9,338.0 899.8,337.7 899.7,337.4 899.7,337.2 899.6,336.8 899.6,336.8 899.6,336.8 899.6,336.8 899.6,336.8 899.6,336.8 899.6,336.2 899.4,335.7 899.3,335.3 899.2,335.0 899.2,334.6 899.2,334.1 899.1,333.7 899.1,333.4 899.1,333.3 899.1,333.0 899.2,332.6 899.2,332.5 899.2,332.5 899.2,332.5 899.2,332.5 899.2,332.5 899.2,332.4 899.3,332.1 899.4,331.8 899.6,331.6 899.7,331.5 900.0,331.3 900.3,331.1 900.5,331.1 900.8,331.0 901.2,331.0 901.6,330.9 901.7,330.9 902.0,330.8 902.0,330.8 902.0,330.8 902.2,330.8 902.4,330.8 902.7,330.8 902.9,330.7 903.2,330.6 904.0,330.5 904.3,330.6 904.7,330.7 905.3,330.6 906.1,330.5 906.3,330.5 906.3,330.5 906.3,330.5 906.3,330.5 906.6,330.7 907.2,331.2 907.6,331.2 908.1,331.0 908.5,331.1 908.7,331.3 909.0,331.7 909.5,332.2 910.1,332.5 910.4,332.8 910.4,332.8 910.4,332.8 910.4,332.8 910.9,333.5 911.2,334.3 911.6,335.0 912.4,335.9 912.7,336.5 913.2,337.2 913.4,337.6 913.4,337.6 913.4,337.6 913.4,337.6 913.4,337.6 913.6,337.8 914.0,338.7 914.7,339.6 915.1,340.2 915.3,340.9 915.6,341.9 916.0,342.6 916.0,342.6 916.0,342.6 916.0,342.6 916.0,342.6 916.1,342.7 916.7,344.1 916.8,344.8 916.8,345.7 917.0,345.9 917.5,346.3 918.0,347.2 918.2,347.9 918.2,347.9 918.2,347.9 918.2,347.9 918.5,348.3 918.8,349.0 919.4,349.9 920.0,350.4 920.5,351.1 920.9,351.6 921.1,352.3 921.5,352.8 921.6,352.8 921.6,352.8 921.9,353.3 922.3,353.9 923.0,354.8 923.4,355.4 923.9,356.0 924.8,356.7 925.9,357.4 925.9,357.4 925.9,357.4 925.9,357.4 926.4,357.7 927.2,358.1 928.3,358.5 928.9,358.7 930.2,359.6 931.0,360.0 931.2,360.1 931.2,360.1 931.2,360.1 931.2,360.1 931.2,360.1 932.2,360.6 932.7,361.0 933.7,361.9 934.6,362.4 935.3,362.7 936.2,363.3 936.2,363.3 936.2,363.3 936.2,363.3 936.6,363.6 937.4,364.1 938.5,364.7 939.5,365.3 940.1,365.9 941.0,366.7 941.3,366.9 941.3,366.9 941.3,366.9 941.3,366.9 941.5,367.1 942.5,368.0 943.0,368.7 943.4,369.1 943.6,369.2 944.3,369.6 945.3,370.3 946.0,370.6 946.0,370.6 946.0,370.6 946.0,370.6 946.8,371.0 947.4,371.2 948.4,371.5 949.0,371.7 949.4,371.8 949.7,371.9 950.0,372.0 950.5,372.2 950.9,372.3 951.2,372.4 951.6,372.5 951.6,372.5 951.6,372.5 951.6,372.5 951.6,372.5 951.6,372.5 951.6,372.5 951.9,372.6 952.3,372.7 952.7,372.8 953.2,372.9 953.8,372.9 953.9,373.0 954.1,373.0 954.4,373.0 954.7,373.1 954.9,373.1 955.2,373.1 955.5,373.2 955.7,373.2 956.3,373.2 956.5,373.1 957.0,373.0 957.7,372.8 957.8,372.8 957.8,372.8 957.8,372.8 957.8,372.8 957.8,372.8 957.8,372.8 957.8,372.8 958.3,372.5 958.6,372.4 958.9,372.2 959.4,372.0 959.8,371.7 960.2,371.5 960.5,371.3 961.3,371.0 961.6,370.9 962.1,370.8 962.8,370.5 963.4,370.2 963.4,370.2 963.4,370.2 963.4,370.2 963.4,370.2 964.4,369.5 965.2,369.0 965.4,368.9 965.9,368.6 966.7,368.0 967.3,367.5 967.7,366.9 968.0,366.4 968.1,366.3 968.1,366.3 968.3,366.0 969.5,364.5 969.9,363.7 970.4,362.9 971.2,362.0 971.8,361.1 971.8,361.1 971.8,361.1 971.8,361.1 971.8,361.1 972.6,359.9 973.2,358.9 973.8,358.2 974.4,356.6 974.7,355.8 974.8,355.4 974.8,355.4 974.8,355.4 974.8,355.4 975.4,353.8 975.6,352.7 976.1,351.3 976.7,350.3 977.0,349.7 977.0,349.7 977.0,349.7 977.5,348.6 978.1,347.4 978.4,346.8 978.9,345.2 979.3,344.1 979.4,343.6 979.4,343.6 979.4,343.6 979.4,343.6 979.5,343.0 979.8,341.7 980.0,340.9 980.4,339.7 981.0,338.7 981.4,337.8 981.6,337.4 981.6,337.4 981.6,337.4 981.6,337.4 981.6,337.4 981.6,337.4 982.0,336.5 982.8,335.6 983.0,335.1 983.3,333.9 983.6,333.3 984.2,332.2 984.5,331.5 984.5,331.5 984.5,331.5 984.5,331.5 984.8,330.7 985.0,329.9 985.4,329.0 986.2,327.7 986.6,327.1 987.3,325.9 987.5,325.5 987.5,325.5 987.5,325.5 987.5,325.5 988.4,324.6 989.1,323.5 989.4,322.5 990.0,321.7 990.8,320.6 991.3,319.7 991.3,319.7 991.3,319.7 991.3,319.7 991.3,319.7 991.3,319.7 991.7,319.0 992.2,318.1 992.8,317.4 993.6,316.2 994.2,314.9 994.7,314.1 994.7,314.1 994.7,314.1 994.7,314.1 994.7,314.1 994.7,314.1 995.1,313.8 996.0,312.8 996.5,311.6 996.8,310.7 997.4,309.6 998.6,307.8 998.7,307.5 998.7,307.5 998.7,307.5 998.7,307.5 998.7,307.5 998.9,307.0 1000.0,305.8 1000.8,304.7 1001.3,303.6 1002.6,302.0 1002.9,301.8 1002.9,301.8 1002.9,301.8 1002.9,301.8 1002.9,301.8 1003.3,301.2 1004.0,299.7 1005.2,298.1 1006.2,296.5 1006.5,295.9 1006.5,295.9 1006.5,295.9 1006.5,295.9 1006.5,295.9 1006.8,295.6 1007.9,294.4 1009.5,292.4 1011.0,290.9 1011.2,290.7 1011.2,290.7 1011.2,290.7 1011.9,289.8 1012.1,289.5 1012.8,288.5 1013.7,286.9 1013.9,286.5 1013.9,286.5 1013.9,286.5 1013.9,286.5 1014.0,286.3 1015.4,284.8 1016.6,283.3 1018.0,281.7 1018.2,281.4 1018.2,281.4 1018.2,281.4 1018.2,281.4 1018.5,281.0 1019.4,279.6 1020.2,278.3 1021.0,277.3 1021.2,277.0 1021.2,277.0 1021.2,277.0 1021.2,277.0 1021.6,276.3 1022.2,275.8 1023.0,275.3 1023.3,275.0 1023.3,275.0 1023.3,275.0 1023.3,275.0 1023.5,274.9 1023.4,274.6 1023.5,274.2 1023.6,274.1 1023.6,274.1 1023.6,274.1 1023.6,274.1 1023.6,274.1 1023.6,274.1 1023.4,273.7 1023.5,273.1 1023.9,272.5 1024.2,271.7 1024.7,271.0 1024.7,271.0 1024.7,271.0 1024.9,270.3 1024.9,268.7 1025.0,267.4 1025.0,266.0 1025.1,265.3 1025.1,265.0 1025.1,265.0 1025.1,265.0 1025.1,265.0 1025.1,265.0 1025.2,264.3 1025.2,262.7 1025.1,261.4 1024.9,260.3 1024.8,259.7 1025.0,259.3 1025.0,259.3 1025.1,258.9 1025.1,258.0 1024.9,257.1 1024.5,256.1 1024.2,255.3 1024.0,254.4 1024.1,253.9 1024.2,253.6 1024.2,253.3 1024.2,253.3 1024.2,253.3 1024.2,252.9 1024.0,251.7 1024.1,250.7 1024.4,249.7 1024.3,248.2 1024.4,247.5 1024.5,247.3 1024.5,247.3 1024.5,247.3 1024.5,247.2 1024.6,246.3 1024.4,245.2 1024.2,244.4 1024.2,243.0 1024.4,241.5 1024.4,241.3 1024.4,241.3 1024.4,241.3 1024.4,241.3 1024.4,240.9 1024.3,240.1 1024.2,239.7 1024.5,238.5 1024.6,238.0" fill="none" stroke="#94a3b8" stroke-width="5" stroke-linecap="round" stroke-linejoin="round"/><polyline points="1133.7,426.8 1133.7,426.8 1133.7,426.8 1133.7,426.8 1133.7,426.8 1133.7,426.8 1133.7,426.8 1133.7,426.8 1133.7,426.8 1133.7,426.8 1133.7,426.8 1133.7,426.8 1133.7,426.8 1133.7,426.8 1133.7,426.8 1133.7,426.8 1133.7,426.8 1133.7,426.8 1133.7,426.8 1133.7,426.8 1133.7,426.8 1133.7,426.8 1133.7,426.8 1133.7,426.8 1133.7,426.8 1133.7,427.2 1133.7,426.8 1133.3,426.4 1132.5,427.2 1132.5,427.2 1132.5,426.8 1132.0,426.8 1132.0,426.8 1131.2,426.7 1130.8,426.7 1130.8,427.6 1129.9,428.0 1129.9,428.4 1129.5,428.4 1129.5,428.0 1129.1,427.5 1129.1,428.0 1128.2,428.8 1128.2,428.8 1127.8,429.2 1127.4,429.2 1127.4,429.6 1126.9,430.0 1126.5,430.4 1126.1,431.2 1126.1,431.2 1126.0,431.7 1125.2,432.1 1125.2,432.5 1124.8,432.9 1124.3,433.3 1123.5,434.1 1123.5,434.1 1123.1,434.1 1122.6,434.9 1121.8,435.3 1121.8,435.3 1121.3,435.8 1120.9,435.7 1120.5,436.6 1120.1,436.6 1119.2,437.4 1118.8,437.4 1118.3,438.2 1118.4,437.4 1117.9,437.8 1117.9,438.2 1117.1,439.0 1116.6,439.4 1115.8,440.3 1115.8,440.3 1115.3,440.7 1114.9,440.7 1114.1,441.1 1113.2,441.5 1113.2,441.5 1113.2,441.5 1112.8,441.9 1111.9,442.7 1111.5,442.3 1111.5,442.7 1110.7,443.1 1110.7,443.1 1109.8,443.9 1109.0,444.3 1108.9,444.7 1107.3,444.3 1107.3,444.3 1107.3,444.3 1107.2,445.5 1106.8,446.4 1106.4,447.2 1105.5,446.3 1105.9,447.2 1105.1,447.6 1104.2,448.0 1104.2,448.0 1103.8,448.0 1103.4,448.0 1102.5,448.8 1102.1,449.2 1101.3,449.2 1101.3,449.6 1100.4,450.0 1100.4,450.0 1099.1,451.2 1099.1,451.6 1098.3,452.0 1097.4,452.4 1097.4,452.4 1097.0,452.9 1096.6,453.3 1095.7,453.7 1095.7,453.7 1094.9,454.5 1094.4,454.5 1094.0,454.5 1093.6,454.0 1092.8,454.4 1092.3,454.4 1091.9,454.8 1091.5,454.8 1091.1,455.2 1090.2,455.2 1089.8,455.6 1088.9,456.0 1088.5,456.4 1088.1,456.9 1087.6,457.3 1087.7,456.8 1087.2,457.3 1086.4,457.7 1085.9,458.1 1085.5,458.5 1085.1,458.9 1084.7,458.9 1083.8,459.3 1083.8,459.3 1083.4,459.3 1082.6,459.2 1081.7,459.6 1081.7,459.6 1081.3,460.1 1080.4,460.0 1080.0,460.0 1079.6,460.0 1079.2,460.0 1078.3,460.4 1078.3,460.4 1077.9,460.8 1077.1,460.8 1076.6,461.2 1076.6,461.6 1076.2,461.6 1075.8,462.0 1074.9,462.4 1074.5,462.8 1073.6,462.8 1073.2,463.2 1072.4,463.2 1072.4,463.2 1071.5,463.2 1071.1,462.8 1069.8,463.6 1070.3,463.6 1069.8,463.6 1068.2,464.4 1068.6,464.0 1068.6,464.0 1067.3,464.4 1066.9,464.8 1066.5,464.3 1065.2,464.7 1065.6,465.6 1064.4,465.1 1064.3,465.6 1063.1,465.5 1063.1,465.5 1063.1,465.9 1061.8,465.9 1061.8,465.9 1061.0,465.9 1060.1,465.5 1060.1,465.9 1059.7,465.9 1058.9,465.4 1058.0,465.4 1057.2,465.4 1057.6,465.4 1056.8,465.0 1055.9,465.4 1054.7,464.9 1054.7,464.9 1054.7,464.9 1053.0,464.9 1053.4,464.9 1052.2,464.9 1050.9,464.8 1050.9,464.8 1050.5,464.8 1050.1,464.8 1049.7,464.8 1048.4,464.8 1047.1,464.3 1046.7,463.9 1046.7,463.9 1045.9,464.7 1045.9,463.9 1045.0,464.3 1043.8,464.2 1043.8,464.2 1043.4,464.2 1042.5,463.8 1041.7,463.8 1040.9,462.9 1040.4,463.3 1039.2,462.9 1038.8,462.9 1038.8,462.9 1038.3,462.9 1037.1,462.8 1036.7,462.0 1036.3,462.4 1035.8,462.4 1035.4,462.0 1034.2,460.7 1034.2,460.7 1033.8,460.7 1032.9,460.2 1032.5,460.2 1031.7,460.2 1031.7,460.2 1030.9,459.3 1030.0,459.3 1029.6,458.5 1028.8,458.4 1028.8,458.4 1027.5,457.6 1027.1,457.6 1026.7,457.6 1026.7,457.6 1025.9,457.1 1025.0,456.7 1024.6,456.7 1023.8,456.2 1023.8,456.2 1023.0,455.4 1022.6,455.4 1022.1,454.5 1021.7,453.7 1021.3,453.2 1020.5,452.4 1020.5,452.4 1019.7,452.4 1019.7,451.9 1018.4,451.5 1017.6,451.0 1016.7,451.9 1016.7,451.9 1016.3,451.4 1016.3,451.4 1015.9,451.4 1014.7,450.1 1013.9,449.3 1013.5,448.8 1013.5,448.8 1013.5,448.8 1013.0,448.4 1012.6,448.0 1011.4,447.1 1011.0,446.3 1010.6,445.8 1009.8,445.0 1009.7,445.4 1009.3,444.6 1008.9,444.5 1008.5,444.1 1007.7,443.7 1007.3,443.2 1006.0,442.0 1005.6,441.9 1005.2,441.9 1004.4,441.5 1004.0,441.5 1003.5,441.1 1002.7,439.8 1002.3,439.3 1001.9,438.9 1001.5,438.5 1001.1,438.9 1000.2,438.5 999.8,438.0 999.8,438.0 999.0,437.6 998.2,436.7 997.4,436.3 997.4,436.3 996.5,436.3 996.1,435.4 996.1,435.4 995.3,434.6 994.5,434.1 994.5,434.1 993.2,433.7 992.4,433.2 992.4,433.2 992.4,432.8 991.6,432.0 991.2,431.5 991.2,431.5 990.7,431.1 989.9,430.2 989.9,430.2 989.5,429.8 989.5,429.8 988.7,429.0 987.9,428.9 987.0,428.5 987.0,427.7 986.2,426.8 986.2,426.8 985.8,426.8 985.4,426.8 985.0,426.3 984.1,425.5 983.7,425.1 983.3,424.2 983.3,425.0 982.5,423.3 982.5,423.3 982.1,422.9 981.7,422.5 981.3,423.3 980.9,422.5 980.4,422.0 979.6,421.2 979.6,421.2 978.8,420.3 978.4,420.3 978.0,420.3 978.8,420.7 978.4,420.3 978.0,420.3 976.7,419.9 977.5,420.3 975.9,419.4 974.2,418.5 974.2,418.5 973.8,417.7 973.8,417.3 973.0,417.2 973.0,417.2 972.6,417.2 972.2,416.8 971.8,416.0 971.8,416.0 970.9,415.1 970.5,414.7 969.7,414.7 969.7,413.8 968.9,413.8 968.0,413.4 967.6,412.5 966.8,411.6 966.8,411.6 966.4,412.5 966.4,411.6 965.1,411.6 964.7,411.2 964.3,410.7 964.3,409.9 963.9,409.1 963.5,409.9 962.7,409.0 963.5,409.0 963.1,408.2 962.3,406.9 961.9,406.9 961.5,406.5 961.1,406.1 961.1,406.1 960.2,405.2 959.8,405.2 959.4,404.8 959.0,403.9 958.6,404.7 958.1,404.7 957.3,403.4 957.3,403.9 956.9,403.0 956.5,403.0 955.7,402.1 955.3,401.7 954.5,400.9 954.0,400.4 954.0,400.4 954.1,400.0 953.2,399.1 952.4,398.7 952.4,398.3 952.4,398.3 952.4,398.3 952.0,397.0 951.2,396.6 949.9,396.6 950.3,397.0 950.4,396.1 949.5,394.9 949.5,395.3 948.7,395.3 947.9,394.4 947.9,394.4 947.5,394.0 946.7,392.3 946.2,392.7 945.8,391.8 945.8,391.4 945.8,391.8 945.4,391.4 945.4,391.4 945.0,390.6 945.0,390.1 944.6,390.1 944.2,389.7 943.0,388.4 943.4,388.0 942.6,387.1 941.3,386.3 941.3,386.3 940.5,385.4 940.5,385.4 940.1,385.4 939.7,385.0 939.3,384.1 939.3,384.5 939.3,384.1 938.1,382.8 938.5,382.4 938.1,382.0 937.7,381.6 937.3,381.1 936.8,380.7 936.9,379.9 936.4,379.9 936.9,379.9 936.4,379.9 935.6,379.0 935.6,378.6 934.4,378.5 934.0,377.7 934.0,378.1 933.6,377.3 933.6,377.3 933.6,377.3 933.6,377.3 932.7,376.4 931.9,375.5 931.9,375.5 931.9,375.5 931.1,374.3 931.1,374.7 930.7,373.8 930.3,373.0 929.9,373.4 929.9,373.0 929.1,371.7 928.7,370.9 928.7,370.4 928.3,370.4 927.8,370.4 927.0,370.0 926.6,370.0 926.6,370.0 926.2,370.0 926.2,369.1 925.8,368.7 925.4,368.7 924.5,369.1 924.1,368.6 925.0,367.8 923.7,366.1 922.5,364.8 922.1,364.0 922.1,363.6 921.7,363.5 920.9,362.7 920.5,361.8 921.3,362.3 920.5,361.8 920.5,361.8 919.2,361.0 919.2,360.6 919.2,360.6 918.0,359.7 918.0,360.1 918.0,360.1 917.2,359.2 916.7,359.2 915.9,358.8 914.7,357.9 915.1,358.4 914.3,357.1 913.8,357.1 913.4,356.6 913.0,356.6 912.2,356.2 911.8,355.3 911.4,354.9 911.4,354.9 911.0,354.9 910.5,354.9 909.7,354.5 909.3,354.0 908.5,354.0 908.0,353.6 908.0,353.6 907.6,353.6 907.2,353.6 906.4,353.1 906.0,353.1 906.0,352.7 905.1,352.7 905.1,352.2 905.1,352.2 904.3,351.4 904.3,351.4 903.9,351.4 903.9,351.0 903.1,350.1 902.7,349.7 902.7,350.1 902.7,350.1 902.3,349.7 901.8,349.2 901.4,348.8 901.4,348.4 901.0,347.5 900.6,347.1 900.2,346.7 899.8,346.2 899.4,345.8 899.4,345.0 899.4,345.0 899.0,345.0 899.0,344.1 899.0,343.3 899.9,344.1 900.7,344.6 899.5,342.9 899.1,342.4 899.5,342.5 899.5,341.2 899.1,341.2 898.3,340.3 898.3,340.3 897.9,339.1 897.9,339.1 897.5,338.6 897.5,338.6 897.5,337.8 897.5,338.2 897.5,336.9 896.7,336.5 896.7,336.5 896.3,335.2 896.3,335.2 896.3,334.8 896.3,334.4 897.1,334.4 897.1,334.4 897.6,333.6 897.2,333.6 897.6,333.2 898.4,333.6 898.8,333.6 898.8,333.2 899.7,332.8 899.7,332.8 900.5,333.2 900.5,332.8 900.5,332.8 901.0,332.8 901.4,332.8 901.8,332.4 902.6,332.9 902.6,332.9 903.5,332.5 904.3,332.9 904.7,332.9 904.3,332.5 905.6,332.9 905.6,332.9 906.4,333.4 907.2,333.4 907.7,333.4 908.1,334.2 908.9,334.3 908.9,335.1 909.3,335.5 909.7,335.5 909.7,335.5 910.1,336.0 910.1,336.8 910.5,336.8 910.9,337.2 910.9,337.7 911.3,338.1 911.7,338.9 912.2,339.0 912.2,339.4 912.2,339.4 912.6,339.8 913.4,340.2 913.8,340.7 914.2,341.1 914.6,341.5 914.2,342.8 914.6,343.2 914.6,343.2 915.0,344.5 915.0,344.5 915.8,344.9 915.4,345.8 915.8,345.8 915.8,346.6 916.2,346.6 916.6,347.9 916.6,349.1 917.4,349.2 917.4,349.2 917.4,350.4 918.2,350.4 918.6,350.9 918.6,351.7 919.4,351.3 919.8,352.2 919.8,352.6 919.8,353.8 920.7,353.4 920.6,353.9 921.0,354.7 921.5,354.7 921.9,355.6 921.0,356.4 922.7,356.8 923.5,357.7 923.5,357.3 923.9,357.7 924.3,358.1 925.2,358.6 925.6,359.4 926.4,358.6 926.0,359.4 926.8,359.0 928.1,358.7 928.5,359.9 928.5,359.9 929.3,360.8 929.3,359.9 929.3,361.6 930.1,361.6 930.2,360.4 930.2,360.0 931.0,360.4 931.0,360.4 931.8,361.3 933.1,362.5 933.9,363.0 934.3,363.4 934.7,364.3 936.0,363.9 936.4,364.3 936.8,363.5 936.4,364.3 938.1,364.3 938.5,364.4 938.0,365.2 938.0,365.2 939.3,365.6 939.3,365.6 940.5,366.9 940.5,366.5 940.1,366.5 940.5,366.9 941.3,367.8 942.2,368.2 942.6,369.5 943.0,370.3 943.8,369.9 943.8,369.9 944.7,370.0 945.5,370.4 944.7,369.5 945.1,370.0 946.3,370.4 946.3,370.0 946.8,370.0 947.6,370.9 947.6,370.4 947.6,370.9 948.4,370.9 948.8,371.3 948.0,369.6 948.4,370.5 948.4,370.5 949.7,371.8 949.7,370.9 950.9,371.4 951.8,371.4 951.8,371.4 952.2,371.4 953.4,372.3 953.0,371.4 954.3,371.9 954.3,371.4 955.9,372.3 955.1,371.0 956.8,371.9 956.8,370.2 956.8,370.2 957.3,370.2 957.7,370.3 958.1,369.8 958.9,369.9 959.4,369.5 960.2,368.6 961.1,369.5 961.1,369.1 961.5,368.2 962.4,367.4 962.4,367.0 962.8,367.4 962.4,366.6 963.2,365.8 964.1,364.9 964.5,364.5 964.5,364.5 965.0,364.1 965.0,364.1 965.8,362.9 965.8,362.5 966.7,362.1 967.1,361.6 967.5,361.2 967.1,360.8 968.4,360.4 968.4,359.2 968.9,359.2 969.3,358.8 969.7,357.9 969.7,357.9 970.2,357.5 970.6,356.7 971.0,356.3 970.6,355.8 971.5,355.0 970.6,355.0 971.1,354.6 971.5,353.3 971.5,352.9 971.5,352.9 972.0,352.1 972.4,351.3 972.8,350.8 972.9,349.6 973.3,349.2 973.7,350.0 973.7,349.2 974.1,348.4 974.6,347.9 974.6,347.9 975.0,347.1 975.0,346.3 975.0,345.9 975.5,345.4 975.9,344.6 976.7,344.6 976.3,344.2 976.3,343.8 976.4,342.5 976.4,342.5 976.4,341.7 976.8,340.9 977.3,340.4 977.7,339.6 978.1,339.2 978.6,338.4 978.6,338.0 979.0,337.5 979.4,336.7 979.9,336.3 979.9,336.3 980.3,335.5 980.3,335.5 980.7,335.1 980.8,334.2 981.2,334.2 981.6,333.4 981.6,332.6 981.6,332.6 982.1,331.7 982.5,330.9 982.5,330.5 983.0,329.6 983.4,329.2 983.8,328.4 983.8,328.4 984.3,328.0 984.7,327.6 985.1,326.8 986.0,325.9 986.4,325.5 986.9,325.1 986.9,324.7 986.9,324.7 986.9,324.3 987.3,323.4 987.7,323.0 988.2,321.8 988.6,321.4 989.1,321.0 989.1,320.5 989.9,320.1 990.8,318.9 990.8,318.9 990.8,318.5 991.2,318.1 991.7,317.7 991.7,317.2 991.7,316.8 992.5,316.0 993.0,315.6 993.4,314.8 993.4,313.9 993.8,313.5 994.7,312.7 994.7,312.3 995.1,311.9 995.6,311.0 995.6,310.6 996.5,309.8 996.5,309.4 996.9,309.0 997.8,308.1 998.2,307.3 998.2,307.3 998.6,306.9 999.1,306.1 999.5,305.6 1000.3,304.8 999.9,304.8 1000.4,304.4 1001.6,303.2 1001.7,302.8 1001.7,302.3 1002.1,301.9 1002.5,301.1 1002.5,301.1 1003.4,299.9 1003.8,299.4 1004.3,298.6 1004.7,298.2 1005.6,297.4 1005.6,297.4 1006.0,297.0 1006.0,297.0 1006.4,296.6 1007.7,295.3 1007.7,294.9 1008.6,294.5 1009.0,294.1 1010.3,292.9 1009.9,292.9 1009.9,292.9 1010.3,292.4 1010.7,292.0 1010.7,291.6 1011.2,291.2 1011.2,290.8 1011.6,290.0 1012.1,289.1 1012.1,289.1 1012.9,288.3 1013.3,287.9 1013.3,287.9 1013.8,287.5 1014.2,287.1 1014.6,286.7 1015.1,286.3 1015.5,285.8 1015.5,285.8 1015.5,285.8 1015.5,285.8 1015.9,285.4 1016.4,284.6 1017.2,283.4 1017.7,283.0 1017.7,282.5 1018.1,282.1 1018.1,282.1 1018.1,282.1 1018.5,281.7 1018.5,281.7 1019.4,280.9 1019.8,280.5 1020.3,279.6 1021.1,278.8 1021.1,278.8 1021.5,278.8 1022.0,278.4 1021.5,278.8 1021.5,278.8 1022.0,278.8 1022.0,278.8 1022.0,278.8 1022.0,278.8 1022.4,278.4 1022.8,277.6 1023.7,276.8 1022.8,277.6 1022.8,277.6 1023.7,276.8 1024.1,276.4 1024.1,276.0 1024.5,275.5 1024.5,275.5 1024.9,276.4 1025.4,276.0 1025.8,275.2 1026.2,274.7 1026.2,274.7 1027.1,273.9 1028.0,273.1 1027.5,273.1 1028.0,272.7 1028.0,272.3 1028.4,271.9 1028.0,271.4 1028.4,271.0 1028.5,270.2 1028.9,269.3 1027.6,270.2 1028.5,268.9 1028.9,268.5 1028.9,267.7 1029.8,267.3 1029.8,266.8 1030.2,266.4 1030.2,265.6 1030.3,264.7 1030.3,263.9 1030.3,263.5 1030.3,263.9 1030.7,263.1 1030.7,263.1 1031.1,262.7 1030.7,261.8 1031.2,261.4 1031.2,261.0 1030.8,260.6 1029.5,260.1 1029.5,259.3 1029.5,259.3 1030.4,258.4 1030.0,257.6 1030.0,257.6 1030.9,256.8 1030.9,256.4 1030.9,255.9 1030.9,255.5 1030.9,254.7 1030.9,254.3 1031.4,253.4 1031.8,253.0 1032.2,252.6 1032.2,251.8 1032.2,251.3 1032.2,251.3 1032.3,250.9 1032.7,250.5 1032.7,250.1 1032.7,249.3 1032.7,248.8 1033.2,248.0 1033.2,247.6 1032.8,246.7 1032.8,246.3 1033.2,245.5 1033.6,245.1 1033.7,244.7 1033.7,243.8 1033.3,243.8 1034.1,243.0 1034.1,242.6 1034.1,242.1 1034.6,241.7" fill="none" stroke="#2563eb" stroke-width="4" stroke-linecap="round" stroke-linejoin="round"/><text x="734" y="502" font-size="14" font-family="Inter,Arial,sans-serif" fill="#64748b">matched span: 1953 points | footprint: 28.26 m</text><rect x="60" y="560" rx="28" ry="28" width="610" height="350" fill="#ffffff" stroke="#cbd5e1" stroke-width="2"/><text x="84" y="598" font-size="24" font-family="Inter,Arial,sans-serif" font-weight="700" fill="#0f172a">IILABS loop 2k</text><text x="646" y="598" text-anchor="end" font-size="16" font-family="Inter,Arial,sans-serif" fill="#475569">Ground truth | align RMSE 0.101 m</text><polyline points="353.4,858.5 353.4,858.5 353.4,858.5 353.4,858.5 353.4,858.5 353.4,858.5 353.4,858.5 353.4,858.5 353.4,858.5 353.4,858.5 353.4,858.5 353.4,858.5 353.4,858.5 353.4,858.5 353.4,858.5 353.6,858.4 355.5,858.4 357.4,858.3 359.2,858.4 361.1,858.5 363.0,858.5 364.9,858.5 366.7,858.4 368.6,858.3 370.5,858.1 372.3,857.9 374.1,857.6 376.0,857.2 377.8,856.8 379.5,856.2 381.3,855.5 383.0,854.7 384.6,853.8 386.1,852.7 387.5,851.5 388.8,850.2 390.0,848.7 391.1,847.2 392.0,845.6 392.9,843.9 393.6,842.2 394.2,840.5 394.6,838.7 395.0,836.8 395.3,835.0 395.5,832.9 395.8,829.8 396.1,826.7 396.4,823.6 396.7,820.5 397.0,817.4 397.3,814.3 397.6,811.2 397.9,808.1 398.2,805.1 398.5,802.0 398.8,798.9 399.2,795.8 399.6,792.7 399.9,789.6 400.1,786.5 400.4,783.4 400.7,780.3 401.0,777.3 401.3,774.2 401.6,771.1 401.9,768.0 402.2,764.9 402.5,761.8 402.9,758.7 403.2,755.6 403.5,752.5 403.8,749.4 404.2,746.3 404.5,743.2 404.8,740.1 405.0,737.0 405.2,733.9 405.5,730.8 405.8,727.8 406.1,724.7 406.3,721.6 406.5,719.6 406.5,717.8 406.2,715.9 405.8,714.1 405.2,712.3 404.5,710.6 403.6,709.0 402.6,707.5 401.5,706.0 400.3,704.6 399.1,703.2 397.9,701.9 396.7,700.5 395.5,699.1 394.5,697.6 393.5,696.1 392.7,694.4 392.0,692.7 391.6,690.9 391.3,689.1 391.2,687.2 391.3,685.3 391.5,683.5 391.7,681.6 391.9,679.7 392.1,677.9 392.2,676.0 392.4,674.2 392.6,672.3 392.8,670.4 393.0,668.6 393.2,666.7 393.3,664.9 393.5,663.0 393.6,661.1 393.8,659.3 394.0,657.4 394.2,655.6 394.3,653.7 394.6,651.9 394.8,650.0 395.0,648.1 395.1,646.3 394.8,644.5 394.1,642.7 393.1,641.2 391.9,639.8 390.5,638.5 389.0,637.5 387.4,636.5 385.7,635.7 384.0,634.9 382.3,634.2 380.5,633.5 378.8,633.0 376.9,632.6 375.1,632.2 373.3,631.8 371.5,631.5 369.6,631.2 367.8,631.0 365.9,630.8 364.0,630.7 362.2,630.6 360.3,630.6 359.6,846.9 361.5,846.9 363.3,847.0 365.2,847.0 367.1,846.9 368.9,846.9 370.8,846.7 372.6,846.5 374.5,846.3 376.3,846.1 378.2,845.8 380.0,845.4 381.8,845.0 383.6,844.4 385.3,843.8 387.0,843.1 388.7,842.3 390.3,841.4 391.8,840.2 393.1,839.0 394.2,837.5 395.0,835.8 395.4,834.0 395.7,831.2 396.0,828.1 396.2,825.0 396.5,821.9 396.9,818.8 397.2,815.7 397.5,812.6 397.8,809.5 398.1,806.4 398.4,803.3 398.7,800.2 399.0,797.1 399.4,794.0 399.8,790.9 400.1,787.9 400.3,784.7 400.6,781.7 400.8,778.6 401.1,775.5 401.4,772.4 401.8,769.3 402.1,766.2 402.4,763.1 402.7,760.0 403.0,757.0 403.3,753.9 403.7,750.8 404.0,747.7 404.3,744.6 404.6,741.5 404.9,738.4 405.1,735.3 405.4,732.2 405.6,729.1 406.0,726.0 406.3,722.9 406.5,720.4 406.5,718.5 406.3,716.7 406.0,714.9 405.5,713.1 404.8,711.3 404.0,709.7 403.0,708.1 401.9,706.6 400.8,705.2 399.6,703.8 398.3,702.5 397.1,701.1 396.0,699.7 394.9,698.3 393.9,696.8 393.0,695.1 392.3,693.4 391.8,691.7 391.4,689.9 391.3,688.0 391.3,686.2 391.4,684.3 391.6,682.4 391.8,680.6 392.0,678.7 392.2,676.9 392.3,675.0 392.5,673.2 392.7,671.3 392.9,669.4 393.1,667.6 393.3,665.7 393.4,663.9 393.5,662.0 393.7,660.2 394.0,658.3 394.2,656.5 394.4,654.6 394.5,652.8 394.7,650.9 394.9,649.0 395.1,647.2 395.0,645.3 394.5,643.6 393.6,641.9 392.5,640.4 391.2,639.1 389.7,638.0 388.2,636.9 386.5,636.1 384.9,635.2 383.1,634.5 381.4,633.9 379.6,633.3 377.8,632.8 376.0,632.4 374.2,632.0 372.4,631.7 370.5,631.4 368.7,631.1 366.8,630.9 364.9,630.8 363.1,630.6 361.2,630.6 359.4,630.6 360.7,846.9 362.5,847.0 364.4,847.0 366.3,847.0 368.1,846.9 370.0,846.8 371.8,846.6 373.7,846.4 375.5,846.2 377.4,845.9 379.2,845.6 381.0,845.2 382.8,844.7 384.6,844.1 386.3,843.5 388.0,842.7 389.6,841.8 391.1,840.7 392.5,839.5 393.7,838.1 394.7,836.5 395.3,834.8 395.5,832.6 395.8,829.5 396.1,826.4 396.4,823.3 396.7,820.2 397.0,817.1 397.3,814.0 397.6,810.9 397.9,807.8 398.2,804.7 398.5,801.6 398.8,798.5 399.2,795.4 399.6,792.4 399.9,789.3 400.2,786.2 400.4,783.1 400.7,780.0 400.9,776.9 401.3,773.8 401.6,770.7 401.9,767.6 402.2,764.5 402.6,761.4 402.9,758.4 403.2,755.3 403.5,752.2 403.9,749.1 404.2,746.0 404.5,742.9 404.8,739.8 405.0,736.7 405.2,733.6 405.5,730.5 405.8,727.4 406.1,724.3 406.4,721.3 406.5,719.5 406.4,717.6 406.2,715.8 405.7,714.0 405.2,712.2 404.4,710.5 403.5,708.9 402.5,707.4 401.3,705.9 400.2,704.5 399.0,703.2 397.8,701.8 396.6,700.4 395.4,699.0 394.4,697.5 393.4,696.0 392.6,694.3 392.0,692.6 391.6,690.8 391.3,688.9 391.2,687.1 391.3,685.2 391.5,683.3 391.7,681.5 391.9,679.6 392.1,677.7 392.2,675.9 392.4,674.0 392.6,672.2 392.8,670.3 393.0,668.4 393.2,666.6 393.4,664.7 393.5,662.9 393.6,661.0 393.9,659.2 394.1,657.3 394.3,655.5 394.4,653.6 394.6,651.8 394.8,649.9 395.0,648.1 395.1,646.2 394.8,644.4 394.1,642.7 393.0,641.1 391.8,639.7 390.4,638.5 388.9,637.4 387.3,636.5 385.7,635.6 384.0,634.9 382.2,634.2 380.5,633.5 378.7,633.0 376.9,632.5 375.0,632.2 373.2,631.8 371.4,631.5 369.5,631.2 367.7,631.0 365.8,630.8 363.9,630.7 362.1,630.6 360.2,630.6 359.8,846.9 361.7,847.0 363.5,847.0 365.4,847.0 367.3,846.9 369.1,846.9 371.0,846.7 372.8,846.5 374.7,846.3 376.5,846.1 378.4,845.7 380.2,845.4 382.0,845.0 383.8,844.4 385.5,843.8 387.2,843.1 388.9,842.3 390.4,841.3 391.9,840.2 393.2,838.8 394.3,837.3 395.1,835.6 395.4,833.8 395.7,830.9 396.0,827.8 396.3,824.7 396.6,821.6 396.9,818.5 397.2,815.4 397.5,812.3 397.8,809.2 398.1,806.1 398.4,803.0 398.7,799.9 399.0,796.9 399.4,793.8 399.8,790.7 400.1,787.6 400.3,784.5 400.6,781.4 400.8,778.4 401.1,775.3 401.4,772.2 401.8,769.1 402.1,766.0 402.4,762.9 402.8,759.8 403.1,756.7 403.4,753.6 403.7,750.6 404.1,747.5 404.4,744.4 404.6,741.3 404.9,738.2 405.1,735.1 405.4,732.0 405.6,728.9 406.0,725.8 406.3,722.7 406.5,720.3 406.5,718.5 406.3,716.6 406.0,714.8 405.5,713.0 404.8,711.3 403.9,709.6 402.9,708.1 401.9,706.6 400.7,705.1 399.5,703.8 398.3,702.4 397.1,701.0 396.0,699.7 394.9,698.2 393.9,696.7 393.0,695.1 392.3,693.4 391.7,691.6 391.4,689.8 391.2,687.9 391.3,686.1 391.4,684.2 391.6,682.3 391.8,680.5 392.0,678.6 392.2,676.7 392.3,674.9 392.5,673.0 392.7,671.2 392.9,669.3 393.1,667.5 393.3,665.6 393.4,663.7 393.6,661.9 393.8,660.0 394.0,658.1 394.2,656.3 394.3,654.4 394.5,652.6 394.8,650.7 394.9,648.9 395.1,647.0 395.0,645.2 394.4,643.4 393.5,641.8 392.4,640.3 391.1,639.0 389.6,637.9 388.0,636.9 386.4,636.0 384.7,635.2 383.0,634.5 381.2,633.8 379.5,633.2 377.7,632.7 375.9,632.3 374.0,632.0 372.2,631.6 370.3,631.3 368.5,631.0 366.6,630.9 364.8,630.8 362.9,630.7 361.0,630.6 359.2,630.6 360.7,846.9 362.6,847.0 364.5,847.0 366.3,847.0 368.2,846.9 370.1,846.8 371.9,846.6 373.8,846.4 375.6,846.2 377.5,845.9 379.3,845.6 381.1,845.2 382.9,844.7 384.6,844.1 386.4,843.5 388.1,842.7 389.7,841.8 391.2,840.7 392.6,839.5 393.8,838.1 394.7,836.5 395.3,834.7 395.6,832.4 395.8,829.3 396.2,826.2 396.5,823.1 396.7,820.0 397.0,816.9 397.3,813.8 397.7,810.8 398.0,807.7 398.2,804.6 398.5,801.5 398.8,798.4 399.2,795.3 399.6,792.2 399.9,789.1 400.2,786.0 400.4,782.9 400.7,779.8 401.0,776.7 401.3,773.7 401.6,770.6 401.9,767.5 402.2,764.4 402.6,761.3 402.9,758.2 403.2,755.1 403.5,752.0 403.9,748.9 404.2,745.8 404.5,742.7 404.8,739.6 405.0,736.5 405.3,733.4 405.5,730.3 405.8,727.2 406.2,724.2 406.4,721.2 406.5,719.3 406.4,717.5 406.2,715.7 405.7,713.9 405.1,712.1 404.4,710.4 403.4,708.8 402.4,707.3 401.3,705.8 400.1,704.4 398.9,703.1 397.7,701.7 396.5,700.3 395.4,698.9 394.3,697.4 393.4,695.9 392.6,694.2 392.0,692.5 391.5,690.7 391.3,688.8 391.2,687.0 391.3,685.1 391.5,683.2 391.7,681.4 391.9,679.5 392.1,677.6 392.2,675.8 392.4,673.9 392.6,672.1 392.8,670.2 393.0,668.4 393.2,666.5 393.4,664.7 393.5,662.8 393.7,660.9 393.9,659.1 394.1,657.2 394.3,655.4 394.5,653.5 394.7,651.7 394.9,649.8 395.1,647.9 395.1,646.1 394.8,644.3 394.0,642.6 393.0,641.0 391.7,639.6 390.3,638.4 388.8,637.3 387.2,636.4 385.6,635.6 383.9,634.8 382.1,634.1 380.4,633.5 378.6,633.0 376.8,632.5 374.9,632.1 373.1,631.8 371.3,631.5 369.4,631.1 367.6,631.0 365.7,630.8 363.8,630.7 362.0,630.6 360.1,630.6 359.7,846.9 361.6,846.9 363.5,847.0 365.3,847.0 367.2,846.9 369.1,846.8 370.9,846.7 372.8,846.5 374.6,846.3 376.5,846.0 378.3,845.7 380.1,845.4 381.9,845.0 383.7,844.4 385.5,843.8 387.2,843.1 388.8,842.3 390.4,841.3 391.9,840.2 393.2,838.9 394.3,837.4 395.0,835.7 395.3,834.5 395.3,834.4 395.3,834.4 395.3,834.4 395.1,836.0 394.8,837.8 394.3,839.6 393.9,841.4 393.3,843.2 392.5,844.9 391.7,846.5 390.6,848.1 389.5,849.6 388.2,850.9 386.8,852.2 385.4,853.4 383.8,854.4 382.2,855.3 380.5,856.1 378.8,856.7 377.0,857.3 375.2,857.7 373.4,858.0 371.5,858.2 369.7,858.4 367.8,858.5 365.9,858.6 364.1,858.6 362.2,858.5 360.4,858.5 358.5,858.4 356.6,858.3 354.9,858.2 353.9,858.0 353.7,858.0 353.7,858.0 353.7,858.0 353.7,858.0 353.7,858.0" fill="none" stroke="#94a3b8" stroke-width="5" stroke-linecap="round" stroke-linejoin="round"/><polyline points="354.3,860.0 354.3,859.9 354.3,859.9 354.3,859.9 354.3,859.9 354.3,859.9 354.3,860.0 354.3,859.9 354.3,859.9 354.3,859.9 354.3,859.9 354.3,859.9 354.3,859.9 354.3,859.9 354.3,859.9 354.3,859.9 354.3,860.0 354.3,860.0 354.3,860.0 354.3,860.0 354.3,860.0 354.3,860.0 354.3,860.0 354.3,860.0 354.3,860.0 354.3,860.0 354.3,860.0 354.3,860.0 354.3,860.0 354.3,860.0 354.3,860.0 354.3,860.0 354.3,860.0 354.3,860.0 354.3,860.0 354.3,860.0 354.3,860.0 354.3,860.0 354.3,859.9 354.3,859.9 354.3,859.9 354.5,859.9 355.0,860.0 355.8,860.0 356.5,859.8 357.2,859.9 357.9,859.9 358.6,859.9 359.3,859.9 359.8,859.9 360.5,859.9 361.2,859.9 361.9,859.8 362.6,859.8 363.2,859.9 363.9,859.9 364.5,859.9 365.3,859.9 366.1,859.7 366.7,859.7 367.6,859.7 368.3,859.6 369.0,859.6 369.5,859.6 370.3,859.5 371.0,859.5 371.8,859.5 372.5,859.4 373.2,859.3 373.9,859.1 374.6,859.0 375.3,858.8 376.0,858.7 376.6,858.6 377.5,858.4 378.1,858.2 378.9,857.7 379.4,857.5 380.1,857.3 380.8,857.0 381.4,856.8 382.1,856.5 382.7,856.2 383.3,855.9 384.2,855.7 384.8,855.3 385.5,854.9 385.9,854.4 386.3,854.1 387.2,853.7 387.6,853.0 388.0,852.7 388.5,851.9 389.0,851.7 389.6,850.9 390.0,850.3 390.3,849.7 391.1,849.4 391.2,848.6 391.8,848.3 391.8,847.4 392.4,846.7 392.5,846.4 393.2,845.4 393.4,845.1 393.5,844.2 393.9,843.3 394.2,843.0 394.6,842.2 394.3,841.4 394.4,841.0 394.6,839.9 394.8,839.5 395.1,838.5 395.4,838.1 395.1,837.1 395.4,836.6 395.8,835.6 395.6,835.2 395.4,834.2 395.7,833.0 396.1,831.9 395.9,830.7 395.7,829.4 396.1,828.2 396.0,826.9 396.6,825.6 396.6,824.9 396.6,823.5 396.7,822.2 396.8,820.7 396.9,819.9 397.0,818.6 397.1,817.3 397.2,816.0 397.2,814.8 397.3,814.0 397.4,812.6 397.5,811.8 397.6,810.4 397.6,809.1 398.1,807.9 398.0,806.6 398.0,805.4 398.6,804.2 398.7,803.1 398.1,802.0 398.8,800.9 398.8,799.2 398.8,798.1 398.8,797.0 399.4,795.9 399.4,794.8 399.4,793.6 399.4,792.5 399.4,791.3 399.5,790.1 400.1,788.9 400.1,787.7 400.1,786.5 400.1,785.4 400.1,784.2 400.1,783.0 400.3,781.6 400.5,780.7 400.7,779.4 400.8,778.2 401.0,777.0 400.7,775.8 400.8,774.4 401.1,773.0 401.4,772.0 401.3,770.3 401.4,769.5 401.4,768.1 402.1,767.2 402.1,765.8 402.1,765.1 402.4,763.3 402.2,762.1 402.5,761.3 402.6,760.0 402.6,758.4 402.7,757.4 402.8,756.5 402.8,754.8 402.9,753.7 403.1,752.6 403.2,751.4 403.3,750.2 403.5,749.0 403.7,748.2 403.9,746.9 404.0,745.6 404.1,744.4 404.2,743.4 404.3,741.8 404.5,740.9 404.6,739.4 404.8,738.7 404.8,737.3 404.8,735.9 404.8,734.9 404.8,734.0 405.4,732.4 405.4,731.5 405.3,730.2 405.3,728.9 405.8,727.8 405.8,726.7 405.8,725.2 405.7,724.0 405.8,722.6 406.3,721.4 406.3,720.7 406.3,719.9 406.3,719.2 406.3,718.6 406.4,718.0 406.3,717.5 405.7,716.5 405.7,715.9 405.8,715.2 405.2,714.4 405.2,714.1 405.3,713.2 404.8,712.3 404.3,711.6 404.5,710.8 404.1,710.5 403.7,710.1 403.3,709.2 403.1,708.7 402.2,708.0 401.9,707.4 401.6,706.7 401.3,706.6 400.9,705.9 400.6,705.3 399.6,704.8 399.2,704.3 398.8,703.3 398.4,702.8 398.2,702.4 397.3,701.9 397.0,701.7 396.7,700.9 396.4,700.4 395.6,699.9 395.3,699.2 395.1,698.7 394.2,698.2 394.0,697.6 393.8,696.9 393.0,696.6 392.9,696.1 392.8,694.9 392.2,694.7 392.1,694.0 391.5,693.1 391.5,692.8 391.5,691.9 391.0,691.0 391.1,690.4 390.6,689.9 390.6,688.8 390.8,688.3 390.3,687.7 390.5,687.0 390.6,686.3 390.8,685.4 390.5,684.5 390.7,684.1 391.0,682.9 390.8,682.2 391.1,681.6 391.0,680.9 391.3,680.2 391.0,679.5 391.4,678.9 391.2,678.1 391.6,677.4 391.4,676.6 391.2,675.8 391.7,675.0 391.7,674.3 391.8,673.7 391.8,673.0 391.9,672.4 392.0,671.3 391.6,670.6 391.8,670.0 392.0,669.3 392.1,668.5 392.2,667.6 392.3,667.3 392.4,666.8 392.5,665.7 392.6,665.3 392.6,664.5 392.7,663.7 392.7,662.9 392.7,662.0 392.8,661.7 392.8,661.0 392.8,659.8 392.8,659.2 392.9,658.7 393.1,658.1 393.2,657.0 392.9,656.3 393.1,655.6 393.4,654.9 393.0,654.3 393.3,653.6 393.5,652.8 393.2,652.1 393.6,651.2 393.4,651.1 393.7,650.3 393.6,649.6 393.9,648.4 393.8,647.8 394.2,647.0 394.1,646.4 393.9,645.7 393.8,645.0 393.6,644.3 393.5,643.6 393.4,642.8 393.1,642.5 392.7,642.0 392.3,641.0 391.7,640.5 391.1,639.9 390.9,639.7 390.4,639.2 389.9,638.8 389.1,638.0 388.8,637.8 387.8,637.5 387.2,637.0 386.9,636.3 386.0,636.1 385.6,636.0 384.6,635.2 384.2,635.1 383.8,635.0 382.9,634.4 382.1,634.5 381.3,634.0 380.6,633.5 380.3,633.6 379.6,633.1 378.9,633.3 378.1,632.8 377.8,632.8 376.9,632.3 376.1,632.4 375.3,631.9 374.5,632.1 374.2,631.6 373.3,631.7 372.6,631.2 371.9,631.3 371.1,631.3 370.4,630.8 369.8,630.9 368.9,630.5 368.2,630.7 367.5,630.3 366.7,630.5 366.5,630.1 365.8,630.3 365.3,630.5 364.5,630.2 363.6,630.5 362.9,630.2 362.1,630.0 361.5,630.4 360.4,630.2 360.0,629.9 359.2,630.2 358.6,629.9 357.8,629.6 357.1,629.8 356.4,630.0 355.7,630.2 355.0,629.8 354.4,630.0 353.8,630.2 353.2,630.4 352.3,630.2 351.4,630.6 350.8,630.9 350.3,631.2 349.5,630.7 348.7,631.4 347.8,631.6 347.5,631.9 346.7,632.2 346.3,632.0 345.4,632.4 344.5,632.8 344.1,632.7 343.6,633.2 342.6,633.8 342.2,633.7 341.8,634.3 341.3,634.9 340.3,635.5 340.0,635.5 339.6,636.2 339.2,636.4 338.2,637.1 337.9,637.8 337.6,638.4 337.3,639.0 337.0,639.7 336.7,640.5 336.5,641.4 336.9,641.7 336.7,642.7 336.5,643.5 336.4,645.0 336.3,646.5 336.2,647.4 336.0,648.8 335.9,649.7 335.8,651.2 335.7,652.3 335.6,653.4 335.5,654.6 335.4,655.9 335.3,657.1 335.2,658.3 335.1,659.5 335.0,660.8 334.9,662.1 334.8,662.9 334.7,664.2 334.6,665.7 334.5,667.1 334.4,667.9 334.3,669.4 334.3,670.3 334.2,671.8 334.2,672.8 334.1,673.8 334.1,674.9 334.1,676.1 333.4,677.4 333.4,678.6 333.4,679.8 333.3,681.0 333.3,682.2 333.2,683.4 333.2,684.5 333.1,685.6 333.0,687.1 333.0,688.0 332.9,689.5 332.3,690.6 332.2,691.8 332.2,693.0 332.1,694.2 332.1,695.4 332.0,696.6 332.0,697.7 331.9,698.9 331.8,700.1 331.8,701.1 331.8,702.7 331.7,703.5 331.6,704.6 331.5,705.5 331.4,707.2 331.2,708.3 331.1,709.5 330.9,710.7 330.8,712.1 330.6,712.9 330.5,714.5 330.3,715.6 330.2,716.5 330.1,718.0 330.0,718.9 329.9,720.3 330.3,721.0 330.2,722.4 330.0,724.1 329.9,725.1 329.8,726.3 329.7,727.5 329.6,728.8 329.5,730.1 329.6,731.1 329.1,732.0 329.1,733.6 329.2,734.5 329.3,735.6 328.8,736.8 328.9,738.1 328.5,739.4 328.6,740.7 328.7,741.5 328.3,742.9 328.4,744.3 328.5,745.3 328.1,746.8 328.2,747.7 327.8,749.1 327.9,749.9 328.0,751.3 327.6,752.7 327.7,753.5 327.3,754.8 327.4,756.1 327.5,757.4 327.0,758.7 327.1,759.4 327.3,760.7 326.7,762.0 326.8,763.3 326.8,764.5 326.9,765.8 327.0,766.5 326.4,767.9 326.5,769.3 326.6,770.1 326.7,771.1 326.2,772.6 326.3,773.5 325.9,775.2 326.0,776.3 326.1,777.3 325.7,778.3 325.8,779.9 326.0,780.7 325.6,782.3 325.8,783.2 325.4,784.5 325.7,785.7 325.4,786.9 325.1,788.0 325.3,789.3 325.0,790.5 325.3,791.6 325.0,792.8 324.8,794.0 325.1,795.2 324.8,796.3 324.6,797.5 325.0,798.8 324.3,800.2 324.4,800.9 324.0,802.2 324.1,803.5 324.3,804.8 324.0,806.2 323.7,806.9 323.9,808.2 323.7,809.6 324.1,810.4 323.9,812.1 323.9,813.1 323.9,814.0 323.3,815.5 323.4,816.4 323.5,817.9 323.1,818.9 323.2,820.0 323.4,821.0 323.5,822.5 323.1,823.4 323.4,824.8 323.0,825.6 323.2,827.0 322.9,827.3 323.1,828.1 323.4,829.0 323.1,829.4 323.3,830.4 323.6,830.9 324.0,831.3 324.4,832.3 324.8,832.5 325.2,833.3 325.5,834.0 325.8,834.6 326.3,835.4 326.9,835.5 327.5,836.1 328.1,836.7 328.8,837.2 329.3,837.5 329.6,837.7 330.6,837.9 330.9,838.7 331.3,838.9 332.4,839.2 333.0,839.6 333.5,840.0 334.0,840.3 335.0,840.6 335.2,840.8 336.0,841.3 336.8,841.6 337.6,842.0 337.8,842.1 338.5,842.3 339.4,842.7 339.7,843.0 340.4,843.3 341.2,843.5 342.0,843.8 342.4,844.0 343.4,844.2 343.9,844.4 344.6,844.3 345.6,844.5 346.0,844.7 347.0,844.9 347.3,845.1 348.3,845.2 349.2,845.3 349.9,845.4 350.5,845.6 351.0,845.7 351.7,845.9 352.5,846.0 353.2,846.1 353.9,846.2 354.6,846.4 355.3,846.5 355.9,846.4 356.6,846.8 357.3,846.8 358.1,846.7 358.8,846.8 359.5,846.8 360.2,846.8 360.9,846.8 361.6,846.8 362.4,846.9 363.1,846.9 363.8,846.9 364.5,846.8 365.2,846.8 366.0,846.8 366.7,846.8 367.4,846.8 368.1,846.8 368.9,846.7 369.6,846.6 370.3,846.6 371.0,846.5 371.6,846.4 372.3,846.4 373.1,846.3 373.8,846.2 374.5,846.2 375.2,846.0 375.9,845.9 376.7,845.7 377.4,845.6 378.1,845.5 378.8,845.4 379.6,845.5 380.1,845.2 381.1,845.1 381.8,844.7 382.4,844.6 383.1,844.4 383.7,844.1 384.3,843.9 385.0,843.6 385.8,843.4 386.5,843.2 386.8,842.8 387.8,842.5 388.1,842.2 388.7,841.9 389.6,841.5 390.0,841.2 390.8,840.7 391.1,840.2 391.4,839.8 392.3,839.3 392.5,838.8 393.3,838.3 393.9,837.5 394.0,837.0 394.1,836.4 394.2,835.9 394.4,834.8 394.5,834.3 394.7,833.5 394.8,832.1 394.7,831.2 395.2,829.5 395.2,828.4 395.2,827.4 395.2,826.2 395.3,825.1 395.7,824.0 396.1,822.5 396.2,821.3 396.3,820.2 396.4,819.1 396.6,818.0 396.8,816.4 396.5,815.4 396.8,814.3 397.2,812.7 396.9,811.7 397.3,810.7 397.0,809.7 397.3,808.2 397.7,807.3 398.0,805.9 397.8,805.1 398.2,803.7 398.1,802.3 398.5,800.9 398.3,800.1 398.7,798.7 398.5,797.3 398.9,796.4 399.2,795.0 399.1,793.5 399.5,792.7 399.3,791.8 399.7,790.4 399.6,788.9 400.0,788.0 399.9,786.5 399.8,785.5 400.3,784.4 400.2,783.4 400.7,781.8 400.7,780.7 400.6,779.6 400.6,778.3 400.8,777.5 400.9,776.3 401.0,775.0 401.2,773.7 401.4,772.4 401.6,771.1 401.9,769.8 401.6,768.4 402.0,767.2 401.9,765.9 402.3,765.0 402.1,764.0 402.4,762.6 402.8,761.3 402.6,759.9 402.9,758.7 402.6,758.0 402.9,756.7 403.3,755.4 403.1,754.1 403.5,753.1 403.6,751.7 403.8,750.9 404.0,749.5 404.1,748.2 404.2,747.0 404.3,745.8 404.3,744.7 404.5,743.3 405.0,742.6 404.8,741.2 405.2,739.9 404.9,738.8 405.2,737.8 405.5,736.5 405.7,735.1 405.8,734.4 405.9,733.2 405.9,731.6 405.9,730.6 405.9,729.4 406.4,728.2 406.3,727.0 406.9,725.8 407.0,724.6 407.0,723.4 407.0,722.1 407.1,720.8 407.1,720.0 407.1,719.3 407.1,718.7 407.1,718.1 407.2,717.4 407.2,716.6 407.2,716.0 406.6,715.3 406.6,714.7 406.6,714.0 406.7,713.3 406.0,712.4 406.0,712.1 405.4,711.0 405.4,710.4 404.9,709.8 405.0,709.2 404.4,708.6 403.8,707.8 403.8,707.7 403.2,707.0 402.6,706.1 402.5,705.8 401.8,705.3 401.7,704.6 401.0,703.7 400.4,703.2 400.4,702.6 399.8,702.3 399.2,701.9 398.6,701.1 398.6,701.0 397.9,700.3 397.2,699.6 397.1,698.9 396.5,698.2 396.0,697.7 395.6,697.2 395.1,696.8 394.7,696.3 394.9,695.6 394.0,694.5 393.8,694.1 393.7,693.4 393.0,692.5 393.0,692.2 392.9,691.3 392.9,691.0 392.3,690.1 392.3,689.8 392.3,688.8 392.3,688.0 392.2,687.4 392.0,686.9 391.8,685.8 391.7,685.2 392.1,684.4 392.1,683.4 392.1,682.9 392.1,682.3 392.1,681.8 392.2,680.3 392.1,680.0 392.8,679.4 392.8,678.8 392.8,678.0 392.8,677.3 392.9,676.3 393.1,675.6 392.6,675.3 392.8,674.3 393.1,673.2 393.4,673.1 393.0,671.7 393.3,671.5 393.6,670.6 393.4,669.8 393.7,669.5 393.5,668.6 393.8,667.8 393.6,667.0 393.9,666.1 394.3,665.7 394.0,665.2 393.8,663.9 394.2,663.8 394.0,662.4 394.4,661.7 394.3,661.2 394.1,660.8 394.6,659.8 394.5,659.1 395.0,658.2 394.9,657.6 394.9,657.3 394.9,656.5 394.9,655.7 394.9,654.8 394.9,654.5 395.5,653.5 395.5,652.5 395.6,652.0 395.7,651.5 395.2,650.3 395.4,649.6 395.8,649.1 396.0,648.6 395.7,647.9 395.9,647.1 396.2,646.3 396.4,645.3 396.0,644.7 396.3,644.2 396.1,643.2 395.8,642.7 395.4,642.1 395.2,641.3 395.0,640.5 394.8,640.4 394.0,639.6 393.8,638.7 393.5,638.4 392.5,638.2 392.3,637.5 391.5,636.8 391.2,636.8 390.3,636.2 389.9,635.5 389.6,635.4 388.5,635.3 388.1,634.6 387.6,634.5 386.5,633.9 386.0,633.9 385.7,633.4 384.7,633.3 383.8,632.7 383.5,632.7 382.7,632.2 381.8,631.6 381.5,631.7 380.6,631.7 379.7,631.2 379.4,631.2 378.5,630.7 377.7,630.8 377.5,630.3 376.7,630.5 376.0,630.0 375.3,630.2 374.6,629.8 373.9,630.0 373.2,629.6 372.5,629.2 371.8,629.5 371.1,629.1 369.8,628.8 369.1,629.1 368.7,628.8 367.7,629.1 367.3,628.8 366.5,628.6 365.5,628.3 365.2,628.7 364.2,628.4 363.7,628.2 363.3,628.5 362.4,628.3 361.6,628.6 360.9,628.3 360.2,628.1 359.2,628.4 358.8,628.3 357.8,628.0 357.5,628.4 356.6,628.7 355.8,628.5 355.2,628.8 354.8,628.4 353.9,628.6 353.0,628.8 352.6,629.1 351.6,629.4 350.7,629.2 350.3,629.6 349.4,630.0 349.0,629.9 348.3,630.1 347.3,630.5 346.9,630.3 346.4,630.9 345.9,630.9 344.7,631.5 344.3,632.1 343.9,632.0 343.1,632.5 342.8,633.1 341.8,633.2 341.5,633.9 341.1,634.7 340.8,634.9 339.9,635.7 339.6,636.2 339.3,636.7 339.1,637.2 338.9,638.1 338.7,639.1 338.5,639.5 338.3,640.2" fill="none" stroke="#2563eb" stroke-width="4" stroke-linecap="round" stroke-linejoin="round"/><text x="84" y="892" font-size="14" font-family="Inter,Arial,sans-serif" fill="#64748b">matched span: 1415 points | footprint: 19.43 m</text><rect x="710" y="560" rx="28" ry="28" width="610" height="350" fill="#ffffff" stroke="#cbd5e1" stroke-width="2"/><text x="734" y="598" font-size="24" font-family="Inter,Arial,sans-serif" font-weight="700" fill="#0f172a">IILABS slippage full</text><text x="1296" y="598" text-anchor="end" font-size="16" font-family="Inter,Arial,sans-serif" fill="#475569">Ground truth | align RMSE 0.076 m</text><polyline points="1013.6,628.9 1013.6,628.9 1013.6,628.9 1013.6,628.9 1013.6,628.9 1013.6,628.9 1013.6,628.9 1013.6,628.9 1013.6,628.9 1013.6,628.9 1013.6,628.9 1013.6,628.9 1013.6,628.9 1013.6,628.9 1013.6,628.9 1013.6,628.9 1013.6,628.9 1013.6,628.9 1013.6,628.9 1013.6,628.9 1013.6,628.9 1013.6,628.9 1013.6,628.9 1013.6,628.9 1013.6,628.9 1013.6,628.9 1013.6,628.9 1013.6,628.9 1013.6,628.9 1013.6,628.9 1013.8,629.2 1013.9,629.9 1014.0,630.6 1014.1,631.3 1014.0,632.1 1014.0,632.9 1014.0,633.7 1014.0,634.5 1013.9,635.3 1014.0,636.1 1014.0,636.8 1014.0,637.6 1014.0,638.4 1014.0,639.2 1014.0,639.9 1014.0,640.7 1014.0,641.5 1014.0,642.3 1014.0,643.1 1014.0,643.9 1014.0,644.7 1014.0,645.5 1014.0,646.3 1014.0,647.1 1014.0,647.9 1014.0,648.7 1014.0,649.5 1014.1,650.3 1014.1,651.1 1014.1,651.9 1014.1,652.7 1014.1,653.4 1014.1,654.2 1014.1,655.0 1014.1,655.8 1014.1,656.6 1014.1,657.5 1014.1,658.2 1014.2,659.0 1014.2,659.8 1014.2,660.6 1014.2,661.4 1014.2,662.2 1014.2,663.0 1014.2,663.8 1014.2,664.6 1014.2,665.5 1014.2,666.3 1014.3,667.1 1014.3,667.8 1014.3,668.6 1014.4,669.4 1014.3,670.2 1014.3,671.0 1014.3,671.8 1014.3,672.6 1014.3,673.4 1014.4,674.2 1014.5,675.0 1014.5,675.8 1014.5,676.6 1014.5,677.3 1014.5,678.1 1014.5,679.0 1014.5,679.8 1014.5,680.5 1014.5,681.3 1014.5,682.1 1014.6,682.9 1014.6,683.7 1014.6,684.5 1014.6,685.3 1014.6,686.1 1014.6,686.9 1014.7,687.7 1014.7,688.5 1014.7,689.3 1014.8,690.1 1014.8,690.9 1014.8,691.7 1014.8,692.5 1014.8,693.2 1014.9,694.0 1014.9,694.8 1015.0,695.6 1015.0,696.4 1015.0,697.2 1015.0,698.0 1015.0,698.8 1015.0,699.6 1015.0,700.4 1015.0,701.2 1015.0,702.0 1015.0,702.8 1015.0,703.6 1015.1,704.4 1015.1,705.2 1015.1,705.9 1015.1,706.7 1015.1,707.5 1015.1,708.3 1015.1,709.1 1015.1,709.9 1015.1,710.7 1015.2,711.5 1015.2,712.3 1015.3,713.1 1015.3,713.9 1015.3,714.6 1015.3,715.4 1015.3,716.3 1015.3,717.0 1015.3,717.9 1015.3,718.7 1015.3,719.5 1015.3,720.3 1015.3,721.0 1015.3,721.8 1015.3,722.7 1015.3,723.5 1015.3,724.3 1015.3,725.1 1015.3,725.9 1015.4,726.7 1015.4,727.5 1015.4,728.2 1015.4,729.1 1015.5,729.8 1015.5,730.7 1015.5,731.5 1015.5,732.2 1015.6,733.0 1015.6,733.8 1015.6,734.6 1015.6,735.4 1015.6,736.2 1015.6,737.0 1015.7,737.8 1015.7,738.6 1015.7,739.4 1015.7,740.2 1015.7,741.0 1015.7,741.8 1015.7,742.6 1015.7,743.4 1015.7,744.2 1015.7,745.0 1015.8,745.8 1015.8,746.6 1015.8,747.4 1015.8,748.2 1015.8,748.9 1015.8,749.7 1015.8,750.5 1015.8,751.3 1015.9,752.1 1015.8,752.9 1015.8,753.7 1015.8,754.5 1015.8,755.3 1015.8,756.1 1015.9,756.9 1015.9,757.7 1015.9,758.5 1015.9,759.3 1015.9,760.0 1015.9,760.8 1016.0,761.6 1016.0,762.4 1016.0,763.2 1016.0,764.0 1016.0,764.8 1016.0,765.6 1016.0,766.4 1016.1,767.2 1016.1,767.9 1016.1,768.7 1016.1,769.5 1016.1,770.3 1016.1,771.1 1016.1,771.9 1016.1,772.7 1016.1,773.5 1016.1,774.3 1016.2,775.1 1016.2,775.9 1016.2,776.7 1016.2,777.5 1016.2,778.3 1016.2,779.1 1016.2,779.9 1016.2,780.6 1016.2,781.4 1016.2,782.2 1016.3,783.0 1016.3,783.8 1016.3,784.6 1016.3,785.4 1016.3,786.2 1016.4,787.0 1016.4,787.8 1016.4,788.6 1016.4,789.4 1016.4,790.2 1016.4,791.0 1016.4,791.8 1016.5,792.6 1016.5,793.4 1016.5,794.2 1016.5,795.0 1016.5,795.8 1016.5,796.6 1016.6,797.4 1016.6,798.2 1016.6,799.0 1016.6,799.9 1016.6,800.7 1016.6,801.5 1016.7,802.2 1016.7,803.1 1016.7,803.8 1016.7,804.7 1016.7,805.5 1016.7,806.3 1016.7,807.1 1016.8,807.8 1016.8,808.6 1016.8,809.4 1016.8,810.2 1016.8,811.0 1016.8,811.8 1016.8,812.6 1016.8,813.5 1016.8,814.3 1016.8,815.1 1016.8,815.9 1016.9,816.7 1016.9,817.4 1016.9,818.2 1016.9,819.0 1016.9,819.8 1017.0,820.6 1017.0,821.4 1017.0,822.2 1017.0,823.0 1017.0,823.8 1017.0,824.6 1017.0,825.4 1017.0,826.2 1017.0,827.0 1017.0,827.8 1017.0,828.6 1017.1,829.4 1017.1,830.2 1017.1,831.0 1017.1,831.8 1017.1,832.6 1017.1,833.4 1017.1,834.2 1017.1,835.0 1017.1,835.8 1017.1,836.6 1017.1,837.4 1017.1,838.1 1017.0,838.9 1017.0,839.8 1017.0,840.5 1017.1,841.3 1017.1,842.1 1017.1,842.9 1017.1,843.7 1017.1,844.5 1017.1,845.3 1017.1,846.1 1017.1,846.9 1017.1,847.7 1017.1,848.5 1017.1,849.3 1017.1,850.1 1017.1,850.9 1017.1,851.7 1017.2,852.5 1017.2,853.3 1017.2,854.1 1017.2,854.9 1017.2,855.7 1017.2,856.5 1017.2,857.2 1017.2,858.1 1017.2,858.8 1017.2,859.0 1017.2,859.0 1017.2,859.0 1017.2,859.0 1017.2,859.0 1017.2,859.0 1017.2,859.0 1017.2,859.0 1017.2,858.9 1017.3,858.4 1017.3,857.6 1017.3,856.7 1017.2,855.9 1017.2,855.1 1017.2,854.3 1017.1,853.4 1017.1,852.6 1017.1,851.8 1017.1,851.0 1017.1,850.2 1017.0,849.4 1017.0,848.5 1017.0,847.7 1017.0,846.9 1017.0,846.1 1017.0,845.3 1017.0,844.4 1017.0,843.6 1017.0,842.8 1017.0,842.0 1016.9,841.2 1016.9,840.4 1016.9,839.5 1016.9,838.7 1017.0,837.9 1017.0,837.1 1017.0,836.2 1017.0,835.4 1016.9,834.6 1016.9,833.8 1016.9,832.9 1016.9,832.1 1016.9,831.3 1016.9,830.5 1016.9,829.6 1016.9,828.8 1016.9,828.0 1016.9,827.2 1016.9,826.4 1016.9,825.7 1016.9,825.0 1016.9,824.3 1016.9,823.5 1016.9,822.7 1016.9,821.9 1016.9,821.1 1016.9,820.4 1016.9,819.6 1016.9,818.8 1016.8,817.9 1016.8,817.1 1016.8,816.3 1016.8,815.4 1016.8,814.6 1016.8,813.8 1016.8,812.9 1016.8,812.1 1016.8,811.3 1016.8,810.5 1016.7,809.7 1016.7,808.9 1016.7,808.0 1016.6,807.2 1016.7,806.4 1016.6,805.6 1016.6,804.8 1016.7,804.0 1016.7,803.2 1016.7,802.4 1016.7,801.6 1016.6,800.8 1016.6,799.9 1016.6,799.1 1016.6,798.3 1016.6,797.5 1016.6,796.7 1016.6,795.8 1016.5,795.0 1016.5,794.2 1016.5,793.4 1016.5,792.6 1016.4,791.8 1016.4,790.9 1016.4,790.1 1016.4,789.3 1016.4,788.5 1016.4,787.7 1016.3,786.8 1016.3,786.0 1016.3,785.2 1016.2,784.4 1016.2,783.5 1016.2,782.7 1016.2,781.9 1016.2,781.0 1016.2,780.2 1016.2,779.4 1016.2,778.5 1016.1,777.7 1016.1,776.9 1016.1,776.1 1016.1,775.3 1016.1,774.4 1016.1,773.6 1016.0,772.8 1016.0,772.0 1016.0,771.2 1016.0,770.4 1016.0,769.6 1016.0,768.8 1016.0,767.9 1015.9,767.1 1015.9,766.3 1015.9,765.5 1015.9,764.6 1015.9,763.8 1015.9,763.0 1015.9,762.2 1015.9,761.4 1015.9,760.5 1015.9,759.7 1015.9,758.9 1015.8,758.1 1015.8,757.3 1015.8,756.5 1015.9,755.7 1015.9,755.0 1015.9,754.2 1015.8,753.4 1015.8,752.5 1015.8,751.7 1015.8,751.0 1015.9,750.2 1015.9,749.5 1015.8,748.7 1015.8,747.9 1015.7,747.1 1015.7,746.4 1015.7,745.5 1015.7,744.7 1015.6,743.9 1015.6,743.1 1015.6,742.3 1015.6,741.4 1015.6,740.6 1015.6,739.8 1015.6,739.0 1015.6,738.1 1015.6,737.3 1015.6,736.5 1015.5,735.7 1015.5,734.8 1015.5,734.0 1015.5,733.3 1015.5,732.5 1015.5,731.7 1015.5,730.9 1015.4,730.0 1015.4,729.2 1015.4,728.4 1015.4,727.6 1015.4,726.8 1015.4,726.0 1015.4,725.2 1015.3,724.3 1015.3,723.5 1015.3,722.7 1015.3,721.9 1015.2,721.0 1015.2,720.3 1015.3,719.5 1015.2,718.8 1015.2,718.0 1015.1,717.3 1015.1,716.5 1015.1,715.7 1015.1,714.8 1015.1,714.0 1015.1,713.2 1015.1,712.4 1015.1,711.5 1015.1,710.7 1015.1,709.9 1015.1,709.1 1015.1,708.3 1015.0,707.5 1015.0,706.7 1015.0,705.9 1015.0,705.1 1015.0,704.3 1015.0,703.4 1015.0,702.6 1015.0,701.8 1015.0,701.0 1015.0,700.2 1014.9,699.4 1014.9,698.5 1014.9,697.8 1015.0,697.0 1015.0,696.3 1014.9,695.5 1014.9,694.7 1014.9,693.9 1014.9,693.1 1014.9,692.2 1014.9,691.4 1014.8,690.6 1014.8,689.8 1014.8,688.9 1014.8,688.1 1014.7,687.3 1014.7,686.4 1014.7,685.6 1014.7,684.8 1014.7,684.0 1014.7,683.3 1014.6,682.4 1014.6,681.6 1014.6,680.8 1014.5,680.0 1014.5,679.2 1014.5,678.3 1014.5,677.5 1014.4,676.7 1014.4,675.9 1014.4,675.1 1014.4,674.2 1014.4,673.4 1014.4,672.6 1014.4,671.7 1014.4,670.9 1014.3,670.1 1014.3,669.2 1014.3,668.4 1014.3,667.6 1014.3,666.7 1014.2,665.9 1014.2,665.0 1014.2,664.2 1014.2,663.4 1014.2,662.6 1014.1,661.8 1014.1,660.9 1014.1,660.1 1014.1,659.3 1014.1,658.5 1014.1,657.7 1014.1,656.9 1014.1,656.2 1014.0,655.4 1014.0,654.5 1014.0,653.7 1013.9,652.9 1013.9,652.1 1013.9,651.3 1013.9,650.5 1013.9,649.7 1013.9,648.9 1013.9,648.1 1013.9,647.3 1013.9,646.4 1013.9,645.6 1013.9,644.8 1013.9,644.0 1013.9,643.1 1013.8,642.3 1013.8,641.5 1013.8,640.7 1013.7,639.9 1013.7,639.0 1013.8,638.2 1013.8,637.4 1013.8,636.6 1013.7,635.7 1013.7,634.9 1013.7,634.1 1013.7,633.3 1013.8,632.5 1013.8,631.7 1013.8,630.9 1013.8,630.1 1013.7,629.4 1013.7,628.6 1013.7,628.4 1013.7,628.4 1013.7,628.4 1013.7,628.4 1013.7,628.4 1013.7,628.4 1013.7,628.4 1013.7,628.4 1013.7,628.4 1013.7,628.4 1013.7,628.4 1013.7,628.4 1013.7,628.4 1013.7,628.4 1013.7,628.4 1013.7,628.4 1013.7,628.4 1013.7,628.4 1013.7,628.4 1013.7,628.4 1013.7,628.4 1013.7,628.4 1013.7,628.4 1013.7,628.4 1013.7,628.4 1013.7,628.4 1013.7,628.4 1013.7,628.4 1013.7,628.4 1013.7,628.4 1013.7,628.4 1013.7,628.4 1013.7,628.4 1013.7,628.4 1013.7,628.4 1013.7,628.4 1013.7,628.4 1013.7,628.4 1013.7,628.4 1013.7,628.4 1013.7,628.4 1013.7,628.4 1013.7,628.4 1013.7,628.4 1013.7,628.4 1013.7,628.4 1013.7,628.4 1013.7,628.4 1013.7,628.4 1013.7,628.4 1013.7,628.4 1013.7,628.4 1013.7,628.4 1013.7,628.4 1013.7,628.4 1013.7,628.4 1013.7,628.4 1013.7,628.4 1013.7,628.4 1013.7,628.4 1013.7,628.4 1013.7,628.4 1013.7,628.4 1013.7,628.4 1013.7,628.4 1013.7,628.4 1013.7,628.4 1013.7,628.4 1013.7,628.4 1013.7,628.4 1013.7,628.4 1013.7,628.4 1013.7,628.4 1013.7,628.4 1013.7,628.4 1013.7,628.4 1013.7,628.4 1013.7,628.4 1013.7,628.4 1013.7,628.4 1013.7,628.4 1013.7,628.4 1013.7,628.4 1013.7,628.4 1013.7,628.4 1013.7,628.4 1013.7,628.4 1013.7,628.4 1013.7,628.4 1013.7,628.4 1013.7,628.4 1013.7,628.4 1013.7,628.4 1013.7,628.4" fill="none" stroke="#94a3b8" stroke-width="5" stroke-linecap="round" stroke-linejoin="round"/><polyline points="1012.3,628.1 1012.3,628.1 1012.3,628.1 1012.3,628.1 1012.3,628.1 1012.3,628.1 1012.3,628.2 1012.3,628.1 1012.3,628.1 1012.3,628.1 1012.3,628.1 1012.3,628.1 1012.3,628.1 1012.3,628.1 1012.3,628.1 1012.3,628.1 1012.3,628.1 1012.3,628.1 1012.3,628.1 1012.3,628.1 1012.3,628.1 1012.3,628.1 1012.1,628.3 1012.2,628.2 1012.3,628.1 1012.2,628.2 1012.3,628.1 1012.2,628.2 1012.3,628.1 1012.2,628.2 1012.4,628.0 1012.2,628.2 1012.3,628.1 1012.2,628.2 1012.4,628.0 1012.2,628.2 1012.3,628.1 1012.2,628.2 1012.4,628.0 1012.2,628.2 1012.3,628.1 1012.2,628.2 1012.4,628.0 1012.2,628.2 1012.3,628.1 1012.2,628.2 1012.4,628.0 1012.2,628.2 1012.3,628.1 1012.2,628.2 1012.4,628.0 1012.2,628.2 1012.3,628.1 1012.2,628.2 1012.4,628.0 1012.2,628.2 1012.3,628.1 1012.2,628.2 1012.4,628.3 1012.4,628.7 1012.6,629.2 1012.5,629.5 1012.7,630.1 1012.7,630.4 1012.7,631.2 1012.6,631.7 1012.7,632.1 1012.5,632.8 1012.7,633.2 1012.6,633.8 1012.7,634.3 1012.6,634.9 1012.7,635.2 1012.5,635.9 1012.7,636.4 1012.6,637.0 1012.8,637.4 1012.6,638.1 1012.8,638.4 1012.6,639.1 1012.8,639.5 1012.7,640.1 1012.8,640.4 1012.7,641.1 1012.8,641.9 1012.7,642.3 1012.9,643.0 1012.8,643.4 1012.9,644.1 1012.7,644.4 1012.8,645.1 1012.7,645.5 1012.9,646.2 1012.9,646.6 1012.7,647.2 1012.9,647.5 1012.9,648.2 1012.8,648.9 1013.1,649.3 1013.0,649.9 1012.8,650.3 1012.9,650.9 1013.1,651.3 1013.1,652.0 1012.8,652.4 1012.8,653.1 1013.1,653.5 1013.2,654.2 1012.9,654.6 1013.0,655.3 1013.2,655.8 1013.2,656.4 1013.0,656.8 1013.1,657.5 1013.0,657.9 1013.1,658.6 1013.0,659.0 1013.2,659.7 1013.1,660.0 1013.4,660.7 1013.3,661.2 1013.0,661.9 1013.5,662.3 1013.1,662.9 1013.5,663.3 1013.4,664.0 1013.1,664.3 1013.1,665.0 1013.4,665.4 1013.4,666.0 1013.1,666.4 1013.2,667.1 1013.5,667.5 1013.6,668.2 1013.3,668.5 1013.4,669.2 1013.6,669.6 1013.6,670.3 1013.3,670.7 1013.7,671.4 1013.7,671.8 1013.4,672.5 1013.4,672.9 1013.7,673.6 1013.6,674.0 1013.4,674.6 1013.5,674.9 1013.4,675.5 1013.7,675.9 1013.7,676.5 1013.8,677.4 1013.5,677.9 1013.6,678.2 1013.4,678.8 1013.6,679.0 1013.4,679.6 1013.6,680.5 1013.9,681.0 1013.9,681.3 1013.6,681.9 1013.6,682.7 1013.9,682.7 1013.9,683.5 1013.6,684.1 1013.6,684.8 1013.9,685.2 1013.9,685.8 1014.0,686.1 1013.9,686.7 1014.0,687.2 1013.7,687.9 1013.8,688.3 1014.1,689.0 1014.1,689.4 1013.8,690.1 1013.8,690.5 1014.1,691.1 1014.1,691.5 1013.8,692.2 1013.9,692.5 1013.9,693.2 1014.2,693.6 1014.2,694.3 1013.9,694.7 1013.9,695.3 1014.1,696.1 1013.9,696.5 1014.1,697.2 1014.0,697.6 1014.2,698.3 1014.1,698.7 1014.3,699.4 1014.2,699.7 1014.3,700.4 1014.2,700.7 1014.4,701.4 1014.3,701.8 1014.4,702.4 1014.3,702.8 1014.4,703.5 1014.3,703.9 1014.5,704.6 1014.3,704.9 1014.4,705.6 1014.4,706.0 1014.5,706.6 1014.4,707.0 1014.4,707.7 1014.2,708.1 1014.4,708.7 1014.3,709.4 1014.5,709.9 1014.2,710.4 1014.5,711.2 1014.4,711.6 1014.6,712.2 1014.5,712.6 1014.6,713.2 1014.4,713.5 1014.7,714.1 1014.6,714.8 1014.8,715.2 1014.6,716.0 1014.6,716.4 1014.9,717.0 1014.8,717.4 1014.5,718.0 1014.8,718.4 1014.6,719.1 1014.7,719.5 1014.6,720.2 1014.7,720.6 1014.5,721.2 1014.6,721.7 1014.5,722.3 1014.7,722.7 1014.5,723.4 1014.8,723.7 1014.7,724.4 1014.8,724.9 1014.6,725.6 1014.7,726.1 1014.8,726.4 1014.5,727.0 1014.7,727.8 1014.7,728.3 1014.8,728.6 1014.9,729.1 1014.9,730.0 1014.8,730.4 1014.9,730.7 1014.8,731.3 1015.1,732.2 1014.9,732.7 1015.0,732.9 1015.0,733.4 1015.0,734.3 1015.0,734.7 1014.9,735.4 1015.1,735.7 1015.1,736.4 1015.2,736.8 1015.2,737.4 1015.2,737.8 1015.1,738.4 1015.2,739.3 1015.0,739.9 1015.0,740.2 1015.1,740.7 1014.9,741.4 1015.0,741.9 1014.9,742.0 1015.0,743.1 1015.1,743.2 1015.2,743.6 1015.1,744.4 1015.3,744.8 1015.3,745.6 1015.1,746.0 1015.3,746.7 1015.1,747.1 1015.4,747.7 1015.4,748.1 1015.2,748.7 1015.3,749.5 1015.2,750.0 1015.3,750.2 1015.3,750.7 1015.0,751.5 1015.5,752.0 1015.0,752.2 1015.5,752.8 1015.1,753.6 1015.0,754.1 1015.2,754.9 1015.2,755.4 1015.4,755.6 1015.4,756.6 1015.2,756.7 1015.3,757.1 1015.2,757.8 1015.3,758.2 1015.6,758.9 1015.5,759.4 1015.2,760.1 1015.7,760.5 1015.4,761.2 1015.3,761.5 1015.3,762.2 1015.6,762.5 1015.6,763.2 1015.3,763.5 1015.6,764.1 1015.6,764.5 1015.8,765.1 1015.6,766.0 1015.7,766.6 1015.7,766.8 1015.5,767.4 1015.6,768.2 1015.6,768.6 1015.8,768.8 1015.7,769.3 1015.9,770.0 1015.8,770.5 1016.0,771.3 1015.8,771.8 1016.0,772.5 1015.9,772.9 1015.8,773.6 1015.7,773.9 1015.8,774.5 1015.8,774.8 1015.9,775.4 1015.8,775.8 1016.0,776.4 1015.9,776.8 1016.0,777.5 1015.8,777.9 1015.9,778.6 1015.8,779.0 1015.9,779.7 1015.9,780.1 1015.9,780.8 1016.2,781.2 1016.1,782.0 1015.8,782.4 1016.0,783.0 1015.9,783.4 1016.1,784.1 1016.1,784.5 1016.0,785.1 1016.2,785.4 1016.1,786.1 1016.3,786.5 1016.2,787.1 1016.4,788.0 1016.1,788.6 1016.3,788.9 1016.2,789.4 1016.1,790.3 1016.4,790.8 1016.4,791.0 1016.0,791.6 1016.4,792.4 1016.4,792.9 1016.1,793.2 1016.6,794.1 1016.2,794.8 1016.4,795.1 1016.2,795.7 1016.3,796.1 1016.4,796.8 1016.2,797.1 1016.5,797.8 1016.5,798.2 1016.2,798.9 1016.5,799.3 1016.4,800.0 1016.4,800.5 1016.3,801.2 1016.6,801.6 1016.6,802.2 1016.6,802.6 1016.8,803.3 1016.9,803.6 1016.4,804.3 1016.5,805.1 1016.9,805.5 1016.5,806.1 1016.8,806.4 1016.8,807.1 1016.8,807.4 1017.1,808.1 1016.9,808.5 1017.2,809.2 1016.9,809.7 1017.2,810.4 1016.6,810.8 1016.9,811.5 1017.0,811.9 1016.6,812.5 1017.1,812.9 1017.2,813.5 1016.8,814.3 1016.9,814.8 1016.7,815.1 1016.9,815.7 1017.1,816.0 1017.1,816.7 1016.7,817.1 1017.1,817.8 1017.1,818.3 1016.7,819.0 1017.2,819.4 1017.0,820.1 1017.1,820.5 1016.8,821.1 1016.7,821.5 1017.3,822.2 1017.2,822.6 1016.9,823.2 1017.0,824.0 1017.0,824.5 1017.3,824.7 1017.4,825.7 1017.1,825.8 1017.0,826.3 1017.4,827.0 1017.0,827.4 1017.1,828.1 1016.9,828.5 1017.0,829.2 1017.4,829.6 1017.0,830.3 1017.0,830.7 1017.3,831.3 1017.4,831.7 1017.4,832.3 1017.1,833.1 1017.1,833.5 1017.5,834.2 1017.4,834.6 1017.3,835.2 1017.3,835.5 1017.0,836.1 1017.7,837.0 1017.2,837.4 1017.4,838.0 1017.3,838.3 1017.2,838.8 1017.0,839.5 1017.0,839.8 1017.4,840.5 1017.4,840.9 1017.2,841.5 1017.3,841.9 1017.5,842.6 1017.6,842.9 1017.4,843.6 1017.5,844.4 1017.3,844.9 1017.4,845.1 1017.2,845.6 1017.2,846.4 1017.5,846.9 1017.4,847.7 1017.1,848.1 1017.7,848.8 1017.5,849.2 1017.5,849.8 1017.3,850.2 1017.3,850.8 1017.7,851.7 1017.5,852.1 1017.7,852.7 1017.0,853.0 1017.2,853.6 1017.2,853.8 1017.5,854.4 1017.5,855.2 1017.2,855.8 1017.7,856.0 1017.3,856.6 1017.2,857.4 1017.4,857.9 1017.4,858.1 1017.3,858.7 1017.8,859.6 1017.4,859.6 1017.2,859.8 1017.4,859.8 1017.3,860.0 1017.7,859.9 1017.7,859.5 1017.3,859.4 1017.5,859.7 1017.3,859.7 1017.5,859.9 1017.4,859.8 1017.1,860.0 1017.4,859.9 1017.5,859.5 1017.9,859.3 1017.4,858.9 1017.4,858.1 1017.6,857.6 1017.5,856.8 1017.2,856.4 1017.3,855.6 1017.1,855.1 1017.2,854.4 1017.3,854.0 1017.1,853.3 1017.2,852.9 1017.5,852.7 1017.2,851.7 1017.3,851.6 1017.2,850.6 1017.2,850.0 1017.4,849.7 1017.3,849.1 1017.2,848.2 1017.1,847.7 1017.4,847.5 1017.2,847.0 1017.3,846.2 1017.1,845.7 1017.1,845.0 1017.1,844.5 1016.8,843.8 1017.4,843.4 1017.1,842.7 1017.0,842.4 1017.2,841.7 1017.0,841.3 1017.1,840.6 1016.9,840.2 1017.0,839.6 1016.9,838.7 1017.0,838.2 1016.9,838.0 1017.1,837.4 1017.0,836.6 1017.0,836.1 1017.4,835.9 1017.0,835.3 1016.9,834.5 1017.1,833.9 1017.1,833.7 1017.1,833.1 1016.8,832.3 1016.8,831.7 1017.3,831.4 1017.1,830.8 1017.2,830.5 1017.0,829.8 1017.0,828.9 1017.1,828.7 1017.0,827.7 1016.9,827.6 1017.0,826.7 1017.0,826.2 1017.2,825.9 1017.2,825.4 1017.1,825.2 1017.1,824.6 1016.8,824.3 1016.9,823.7 1017.1,822.8 1017.0,822.2 1017.1,821.9 1016.8,821.3 1017.0,821.0 1017.1,820.4 1016.9,819.4 1017.0,818.9 1016.8,818.6 1017.0,818.1 1016.8,817.3 1017.0,816.8 1016.8,816.1 1016.9,815.7 1016.8,815.0 1016.8,814.6 1017.1,814.0 1017.0,813.6 1017.1,813.0 1016.8,812.6 1016.7,812.0 1017.0,811.6 1017.0,810.9 1016.7,810.0 1016.8,809.9 1016.7,809.0 1016.9,808.4 1016.8,808.1 1017.0,807.5 1016.9,807.2 1016.5,806.5 1016.8,806.1 1016.7,805.5 1016.8,805.0 1016.6,804.3 1016.8,803.9 1016.7,803.2 1016.9,802.7 1016.9,802.0 1016.6,801.6 1016.7,800.9 1016.6,800.5 1016.8,799.8 1016.8,799.4 1016.5,798.7 1017.0,798.3 1016.7,797.6 1016.6,797.2 1016.8,796.5 1016.7,796.1 1016.8,795.5 1016.5,795.1 1016.6,794.4 1016.7,794.0 1016.4,793.3 1016.6,792.8 1016.5,792.1 1016.5,791.7 1016.3,791.0 1016.3,790.6 1016.4,789.9 1016.5,789.5 1016.5,788.8 1016.7,788.4 1016.6,787.7 1016.3,787.3 1016.3,786.5 1016.6,786.1 1016.4,785.4 1016.4,785.0 1016.3,784.3 1016.3,783.8 1016.2,783.2 1016.4,782.8 1016.3,782.1 1016.5,781.7 1016.5,781.0 1016.5,780.6 1016.5,779.9 1016.4,779.4 1016.2,778.8 1016.3,778.4 1016.1,777.7 1016.2,777.3 1016.6,776.6 1016.2,776.2 1016.2,775.5 1016.4,775.1 1016.3,774.4 1016.2,774.0 1016.5,773.3 1016.4,772.9 1016.0,772.2 1016.3,771.8 1016.3,771.1 1016.2,770.7 1016.4,770.0 1016.3,769.6 1016.4,768.9 1016.3,768.5 1016.5,767.8 1016.4,767.4 1016.2,766.7 1016.3,766.3 1016.1,765.6 1016.2,765.2 1016.1,764.5 1016.3,764.1 1016.1,763.4 1016.3,762.6 1016.2,762.2 1016.1,761.6 1016.3,761.3 1016.1,760.7 1015.9,759.8 1015.9,759.4 1016.1,758.7 1016.0,758.4 1016.2,757.8 1016.2,757.5 1015.9,756.8 1016.0,755.9 1016.2,755.4 1016.1,755.2 1016.3,754.6 1016.2,753.9 1016.1,753.5 1016.2,752.8 1016.0,752.4 1016.1,751.8 1016.0,751.4 1016.2,750.7 1016.2,750.3 1016.0,749.7 1016.1,749.3 1016.1,748.7 1015.9,748.3 1016.0,747.6 1016.0,747.3 1016.1,746.6 1016.1,746.2 1016.2,745.5 1016.0,745.2 1016.0,744.5 1016.2,744.0 1016.1,743.3 1016.3,742.8 1016.2,742.1 1015.9,741.6 1016.0,741.4 1016.0,740.9 1016.0,740.0 1016.0,739.5 1015.9,739.2 1016.2,738.7 1016.1,737.8 1016.1,737.2 1015.9,737.0 1015.9,736.4 1015.6,735.6 1015.7,735.0 1016.0,734.8 1016.0,734.2 1015.9,733.4 1015.9,732.9 1015.8,732.6 1015.6,732.0 1015.8,731.7 1015.5,731.0 1015.7,730.1 1015.6,729.6 1015.8,729.3 1015.6,728.8 1015.7,728.0 1015.4,727.6 1015.5,726.8 1015.4,726.4 1015.5,725.7 1015.7,725.4 1015.7,724.7 1015.5,724.3 1015.6,723.6 1015.3,723.2 1015.4,722.5 1015.4,722.1 1015.7,721.3 1015.6,720.9 1015.7,720.2 1015.5,719.9 1015.3,719.2 1015.4,718.8 1015.3,718.1 1015.4,717.7 1015.3,717.1 1015.5,716.7 1015.4,716.1 1015.6,715.7 1015.4,715.1 1015.5,714.1 1015.4,714.1 1015.6,713.2 1015.4,712.5 1015.4,712.2 1015.4,711.6 1015.7,710.7 1015.3,710.7 1015.4,709.8 1015.7,709.2 1015.4,708.9 1015.4,708.3 1015.4,707.9 1015.4,707.3 1015.5,706.9 1015.3,706.2 1015.4,705.8 1015.3,705.1 1015.4,704.7 1015.3,704.0 1015.4,703.6 1015.5,702.9 1015.3,701.9 1015.4,701.8 1015.3,700.9 1015.6,700.8 1015.4,699.9 1015.5,699.2 1015.3,698.8 1015.4,698.2 1015.2,697.8 1015.3,697.2 1015.4,696.8 1015.3,696.6 1015.4,696.1 1015.2,695.4 1015.3,694.9 1015.4,694.1 1015.2,693.6 1015.4,692.9 1015.2,692.4 1015.4,692.2 1015.3,691.7 1015.3,690.9 1015.2,690.4 1015.3,689.6 1015.2,689.2 1015.3,688.4 1015.2,687.9 1015.3,687.8 1015.1,687.3 1015.2,686.5 1015.1,686.1 1015.3,685.3 1015.1,684.8 1015.2,684.6 1015.1,684.1 1015.2,683.3 1015.1,682.8 1015.2,682.0 1015.0,681.6 1015.2,681.4 1015.0,680.9 1015.1,680.0 1015.0,679.5 1015.1,679.3 1015.0,678.7 1015.1,677.9 1014.9,677.3 1015.0,677.0 1014.9,676.4 1015.0,675.5 1014.8,675.0 1015.0,674.7 1014.9,674.1 1015.1,673.7 1014.9,673.1 1015.1,672.2 1014.9,672.2 1015.1,671.3 1014.9,670.6 1015.1,670.3 1014.9,669.6 1015.1,669.3 1015.0,668.6 1015.1,667.8 1014.9,667.2 1015.0,666.9 1014.8,666.3 1015.0,665.5 1015.1,665.1 1014.9,664.4 1015.0,664.1 1014.8,663.4 1014.9,663.1 1015.0,662.4 1014.8,662.1 1014.9,661.4 1014.8,660.9 1014.9,660.2 1014.7,659.7 1014.9,659.0 1014.7,658.6 1014.8,657.9 1014.7,657.6 1014.9,656.9 1014.8,656.6 1014.9,656.0 1014.7,655.6 1014.8,654.9 1014.7,654.5 1014.9,653.8 1014.8,653.3 1014.9,652.6 1014.7,652.2 1014.9,651.5 1014.7,651.1 1014.8,650.4 1014.6,650.0 1014.8,649.4 1014.6,649.0 1014.8,648.3 1014.7,647.9 1014.8,647.3 1014.7,646.8 1014.8,646.1 1014.7,645.6 1014.8,645.0 1014.7,644.6 1014.8,644.0 1014.6,643.6 1014.7,642.9 1014.6,642.4 1014.7,641.6 1014.6,641.2 1014.7,640.5 1014.5,640.1 1014.6,639.5 1014.5,639.1 1014.7,638.4 1014.5,637.9 1014.6,637.2 1014.6,636.7 1014.6,636.0 1014.8,635.6 1014.6,634.8 1014.8,634.4 1014.6,633.7 1014.8,633.4 1014.6,632.7 1014.8,632.4 1014.6,631.7 1014.8,631.3 1014.7,630.6 1014.8,630.2 1014.7,629.5 1014.8,629.1 1014.7,629.0 1014.7,628.6 1014.7,628.5 1014.8,628.6 1014.7,628.5 1014.8,628.6 1014.7,628.5 1014.8,628.6 1014.7,628.5 1014.8,628.6 1014.7,628.5 1014.8,628.6 1014.7,628.5 1014.8,628.6 1014.7,628.5 1014.8,628.6 1014.7,628.5 1014.8,628.6 1014.7,628.5 1014.8,628.6 1014.7,628.5 1014.8,628.6 1014.7,628.5 1014.8,628.6 1014.7,628.5 1014.8,628.6 1014.7,628.5 1014.8,628.6 1014.7,628.5 1014.8,628.6 1014.7,628.5 1014.8,628.6 1014.7,628.5 1014.8,628.6 1014.7,628.5 1014.8,628.6 1014.7,628.5 1014.8,628.6 1014.7,628.5 1014.8,628.6 1014.7,628.5 1014.8,628.6 1014.7,628.5 1014.8,628.6 1014.7,628.5 1014.8,628.6 1014.7,628.5 1014.8,628.6 1014.7,628.5 1014.8,628.6 1014.7,628.5 1014.8,628.6 1014.7,628.5 1014.8,628.6 1014.7,628.5 1014.8,628.6 1014.7,628.5 1014.8,628.6 1014.7,628.5 1014.8,628.6 1014.7,628.5 1014.8,628.6 1014.7,628.5 1014.8,628.6 1014.7,628.5 1014.8,628.6 1014.7,628.5 1014.8,628.6 1014.7,628.5 1014.8,628.6 1014.7,628.5 1014.8,628.6 1014.7,628.5 1014.8,628.6 1014.7,628.5 1014.8,628.6 1014.7,628.5 1014.8,628.6 1014.7,628.5 1014.8,628.6 1014.7,628.5 1014.8,628.6 1014.7,628.5 1014.8,628.6 1014.7,628.5 1014.8,628.6 1014.7,628.5 1014.8,628.6 1014.7,628.5 1014.8,628.6 1014.7,628.5 1014.8,628.6 1014.7,628.5 1014.8,628.6 1014.7,628.5 1014.8,628.6 1014.7,628.5 1014.8,628.6 1014.7,628.5 1014.8,628.6 1014.7,628.5 1014.8,628.6 1014.7,628.5 1014.8,628.6 1014.7,628.5 1014.8,628.6 1014.7,628.5 1014.8,628.6 1014.7,628.5 1014.8,628.6 1014.7,628.5 1014.8,628.6 1014.7,628.5 1014.8,628.6 1014.7,628.5 1014.8,628.6 1014.7,628.5 1014.8,628.6 1014.7,628.5 1014.8,628.6 1014.7,628.5 1014.8,628.6 1014.7,628.5" fill="none" stroke="#2563eb" stroke-width="4" stroke-linecap="round" stroke-linejoin="round"/><text x="734" y="892" font-size="14" font-family="Inter,Arial,sans-serif" fill="#64748b">matched span: 1034 points | footprint: 19.39 m</text></svg>